G04 DipTrace 3.2.0.1*
G04 Bottom.gbr*
%MOIN*%
G04 #@! TF.FileFunction,Copper,L2,Bot*
G04 #@! TF.Part,Single*
%AMOUTLINE0*
4,1,16,
-0.011741,0.041358,
-0.029685,0.037294,
-0.044088,0.025848,
-0.052097,0.009286,
-0.052129,-0.009112,
-0.044175,-0.025701,
-0.02981,-0.037196,
-0.011881,-0.041319,
0.011741,-0.041358,
0.029685,-0.037294,
0.044088,-0.025848,
0.052097,-0.009286,
0.052129,0.009112,
0.044175,0.025701,
0.02981,0.037196,
0.011881,0.041319,
-0.011741,0.041358,
0*%
%AMOUTLINE6*
4,1,5,
-0.01378,0.031496,
-0.01378,-0.031496,
0.01378,-0.031496,
0.01378,0.023622,
0.005906,0.031496,
-0.01378,0.031496,
0*%
G04 #@! TA.AperFunction,CopperBalancing*
%ADD10C,0.009843*%
%ADD14C,0.011811*%
G04 #@! TA.AperFunction,Conductor*
%ADD15C,0.027559*%
%ADD16C,0.015748*%
G04 #@! TA.AperFunction,ViaPad*
%ADD18C,0.023622*%
G04 #@! TA.AperFunction,Conductor*
%ADD19C,0.005*%
%ADD20C,0.019685*%
G04 #@! TA.AperFunction,ViaPad*
%ADD21C,0.031496*%
%ADD22C,0.035433*%
G04 #@! TA.AperFunction,Conductor*
%ADD23C,0.007874*%
%ADD27R,0.03937X0.043307*%
%ADD28R,0.043307X0.03937*%
%ADD31R,0.059055X0.051181*%
G04 #@! TA.AperFunction,ComponentPad*
%ADD38C,0.041339*%
%ADD39R,0.047244X0.047244*%
%ADD51R,0.01378X0.027559*%
%ADD52R,0.027559X0.01378*%
G04 #@! TA.AperFunction,ComponentPad*
%ADD101OUTLINE0*%
%ADD107OUTLINE6*%
%FSLAX26Y26*%
G04*
G70*
G90*
G75*
G01*
G04 Bottom*
%LPD*%
X-694618Y-277623D2*
D14*
X-726623D1*
X-888059Y-116188D1*
X-497705Y-337873D2*
D15*
X-375344D1*
X-352470Y-314999D1*
X28026D1*
X71091Y-271934D1*
X219495D1*
X282605Y-208824D1*
X312293D1*
X498205D1*
X533759Y-173270D1*
X575211Y-131818D1*
X623004Y-84025D1*
X707654Y625D1*
X-497705Y-337873D2*
X-497105Y-366333D1*
X-633000Y53010D2*
D14*
Y328358D1*
X-527604Y433755D1*
X1306854Y137470D2*
X1317244D1*
X1334214Y120500D1*
Y97471D1*
X1313533Y-12549D2*
Y-9322D1*
X1308623Y-4412D1*
Y20699D1*
X622155Y-83176D2*
D15*
X623004Y-84025D1*
X574362Y-130969D2*
X575211Y-131818D1*
X533396Y-172909D2*
X533759Y-173270D1*
X470004Y-12916D2*
D14*
Y-60041D1*
Y-110022D1*
Y-60041D2*
X599020D1*
X622155Y-83176D1*
X-1212777Y543068D2*
X-1177281D1*
X-1176858Y542646D1*
X-1140802D1*
X-1140545Y542903D1*
X-1105442D1*
X-1104837Y542298D1*
X-579236Y-216133D2*
Y-247635D1*
X-578992Y-247879D1*
X311219Y-197761D2*
D15*
X312293Y-208824D1*
X268062Y-99088D2*
D14*
Y-129802D1*
X289728Y-151469D1*
Y-176270D1*
X311219Y-197761D1*
Y-207940D1*
X337921Y-234642D1*
X1311714Y-59610D2*
X1313533D1*
Y-12549D1*
X707206Y-164790D2*
X770507D1*
X835953D1*
X837026Y-163717D1*
X707206Y-164790D2*
Y-194831D1*
X727592Y-215217D1*
Y-259205D1*
X729738Y-261350D1*
X625667Y-264570D2*
X677165D1*
X679311Y-262424D1*
X728664D1*
X729738Y-261350D1*
X812350Y-49990D2*
X865995D1*
X868140Y-47844D1*
X917493D1*
X812350Y-49990D2*
Y-95052D1*
X834881Y-117583D1*
Y-161571D1*
X837026Y-163717D1*
X1199034Y559273D2*
Y500656D1*
X1203427Y496264D1*
X1127211Y558386D2*
Y498671D1*
X1129807Y496075D1*
X578367Y247887D2*
X639824D1*
X640576Y247134D1*
X710609D1*
Y246424D1*
X925079Y-568457D2*
X1164584D1*
X1179542Y-553499D1*
Y-501797D1*
X1178177Y-500432D1*
X1104618Y137774D2*
X1152377D1*
X1156937Y133214D1*
X-1046606Y-156293D2*
D16*
Y-402795D1*
X-1071583Y-427772D1*
X-417172Y-588316D2*
X-590921D1*
X-915987Y-263251D1*
Y-5173D1*
X-807867Y102946D1*
Y187493D1*
X-819882Y199508D1*
X-884648D1*
X-886839Y197318D1*
X-133253Y-150663D2*
D14*
X2093D1*
X48570Y-104186D1*
X-590808Y-63341D2*
Y-5017D1*
X-558315Y27476D1*
X21056D1*
X89402Y95822D1*
X-229470Y-196522D2*
X-370685D1*
X-530012Y-37197D1*
X-531345D1*
X1385395Y20699D2*
D19*
Y37239D1*
X1357097Y65537D1*
X1290378D1*
X1259165Y34324D1*
Y13218D1*
X1244491Y-1457D1*
X1064390D1*
X861302Y201631D1*
X405240D1*
X292626Y89017D1*
X209362D1*
X1213Y-119133D1*
X-147085D1*
X-161014Y-133062D1*
Y-161224D1*
X-196312Y-196522D1*
X-229470D1*
X-528257Y-1299D2*
D14*
X-537999D1*
X-558070Y-21370D1*
Y-69211D1*
X-473130Y-154151D1*
D19*
X-472270D1*
X-406756Y-219664D1*
X-191475D1*
X-148437Y-176626D1*
X15407D1*
X92766Y-99268D1*
Y-50903D1*
X213293Y69623D1*
X301261D1*
X414249Y182612D1*
X856702D1*
X1052916Y-13602D1*
X1247307D1*
X1269841Y8932D1*
Y30360D1*
X1294142Y54659D1*
X1342463D1*
X1358395Y38727D1*
Y22109D1*
X1359804Y20699D1*
X-329379Y-391136D2*
D20*
Y-393129D1*
X-387820D1*
X-416776Y-422084D1*
X-519059D1*
X-625833Y-315310D1*
Y5984D1*
X-654209D1*
X-738764Y90539D1*
X-625833Y5984D2*
X-574004Y57814D1*
X3304D1*
X167780Y222289D1*
X332340D1*
X528656Y418605D1*
X1119266D1*
D16*
X1129807Y429146D1*
X-738643Y361262D2*
D14*
X-738764D1*
Y90539D1*
X1359804Y97471D2*
Y137751D1*
X1354018D1*
X1131930Y368993D2*
D20*
Y431269D1*
X1129807Y429146D1*
X1203427Y429335D1*
X1308623Y97471D2*
D10*
X1300714D1*
X1263669Y60427D1*
X1199623D1*
Y195066D1*
X1218941Y214383D1*
Y409144D1*
X1198751Y429335D1*
X1203427D1*
X47962Y-394030D2*
D18*
X27139D1*
X102513Y-318656D1*
X956505D1*
X985780Y-289382D1*
X1110949D1*
D16*
X1170159D1*
Y-289333D1*
X47962Y-394030D2*
D20*
X105984Y-336008D1*
Y-314726D1*
X47962Y-394030D2*
Y-390570D1*
D15*
X-10778D1*
X-388440Y-393840D2*
D20*
Y-393600D1*
X-331843D1*
D14*
X-329379Y-391136D1*
X1390454Y-59217D2*
Y-37409D1*
X1370223Y-17178D1*
X1355546D1*
X1193604Y23239D2*
D20*
X1177678D1*
X1156937Y43980D1*
Y66285D1*
X1221696Y217245D2*
D14*
X1218941Y214383D1*
X-329379Y-391136D2*
D18*
Y-390570D1*
X-10778D1*
X1193604Y23239D2*
D14*
X1199623D1*
D20*
Y60427D1*
X171314Y223164D2*
X167780Y222289D1*
X-1043566Y100669D2*
D16*
Y-71160D1*
X-1014594Y-100131D1*
Y-416007D1*
X-1002088Y-428513D1*
X-886719Y119776D2*
X-974613Y31882D1*
Y-388730D1*
X-934912Y-428430D1*
X-843021Y158517D2*
Y117577D1*
X-943835Y16764D1*
Y-348617D1*
X-862783Y-429668D1*
X-685087Y-437049D2*
D18*
X-592273Y-529862D1*
X-332594D1*
D20*
Y-578273D1*
X-332012D1*
X-554476Y-335909D2*
D14*
X-460639Y-242072D1*
X-177243D1*
X-136409Y-201238D1*
X23087D1*
X130472Y-93852D1*
Y-48902D1*
X224972Y45598D1*
X-633870Y-362731D2*
X-525678Y-470923D1*
X99896D1*
X206171Y-364648D1*
X1103474D1*
X1106112Y-362010D1*
X1178177Y-425629D2*
Y-367146D1*
X1173041Y-362010D1*
X1385004Y135004D2*
X1385395Y97471D1*
X1193752Y-46781D2*
D19*
X1038930D1*
X848714Y143436D1*
X434475D1*
X290302Y-739D1*
X252302D1*
X178378Y-74663D1*
Y-110140D1*
X57328Y-231192D1*
X57933D1*
X33190Y-255934D1*
X-86612D1*
X-113837Y-228709D1*
X-202014Y-166370D2*
D23*
X-314902D1*
X-375584Y-105688D1*
X-266038Y-19366D2*
D14*
Y-72134D1*
X-247564Y-90608D1*
X-3726D1*
X227698Y140816D1*
X-574176Y269990D2*
D20*
X-56495D1*
X30558Y182937D1*
X-25803Y-61504D2*
D14*
Y-62314D1*
X-235220D1*
X-233538Y-60631D1*
X235180Y-193696D2*
X208571Y-167087D1*
Y-82308D1*
X249194Y-41685D1*
X292110D1*
X448122Y114327D1*
X845651D1*
X1048682Y-88705D1*
X1200951D1*
D23*
Y-73751D1*
X1213297Y-61404D1*
X1269929D1*
X1280270Y-71745D1*
Y-83572D1*
X1295392Y-98694D1*
X1311606D1*
X1311714Y-98587D1*
X1200951Y-88705D2*
D14*
Y-131016D1*
X1167979Y-163988D1*
Y-222404D1*
X1170159D1*
X1173878Y-115226D2*
X1115277Y-173825D1*
Y-222453D1*
X1110949D1*
X1173878Y-115226D2*
X1038958D1*
X837316Y86417D1*
X463318D1*
X307333Y-69567D1*
X255781D1*
X236709Y-88639D1*
Y-151003D1*
X1301035Y-132075D2*
D23*
X1378673D1*
X1391979Y-118769D1*
Y-98587D1*
X1390454D1*
X-202597Y-25245D2*
D14*
X17427D1*
X227614Y184942D1*
X-70844Y-228541D2*
D19*
X28487D1*
X154010Y-103017D1*
Y-64836D1*
X252688Y33843D1*
X296010D1*
X425261Y163092D1*
X854890D1*
X1042954Y-24972D1*
X1252583D1*
X1282640Y5085D1*
Y28776D1*
X1298269Y44404D1*
X1328016D1*
X1334214Y38206D1*
Y20699D1*
D18*
X1199034Y559273D3*
X1127211Y558386D3*
X1164453D3*
X-1212777Y543068D3*
X-1140545Y542903D3*
X-1176858Y542646D3*
X-1104837Y542298D3*
X-527604Y433755D3*
X-509478Y412882D3*
X1131930Y368993D3*
X-738643Y361262D3*
X-574176Y269990D3*
X171314Y223164D3*
X640576Y247134D3*
X710609Y246424D3*
X1221696Y217245D3*
X578367Y247887D3*
X-614222Y202682D3*
X-886839Y197318D3*
X227614Y184942D3*
X30558Y182937D3*
X-613135Y169499D3*
X-843021Y158517D3*
D22*
X-363214Y145080D3*
D18*
X227698Y140816D3*
X-612235Y134209D3*
X1306854Y137470D3*
X1354018Y137751D3*
X-886719Y119776D3*
X-1043566Y100669D3*
X89402Y95822D3*
D21*
X-738764Y90539D3*
D18*
X-1226021Y69491D3*
X-633000Y53010D3*
X224972Y45598D3*
X-1226021Y30652D3*
X1193604Y23239D3*
D21*
X707654Y625D3*
D18*
X-528257Y-1299D3*
X-1227487Y-11850D3*
X1385004Y135004D3*
X470004Y-12916D3*
X-1011470Y-16923D3*
X1313533Y-12549D3*
X1355546Y-17178D3*
X-266038Y-19366D3*
X-202597Y-25245D3*
X868140Y-47844D3*
X917493D3*
X-531345Y-37197D3*
X-1227972Y-49479D3*
X812350Y-49990D3*
X-1011470Y-56031D3*
X470004Y-60041D3*
X-233538Y-60631D3*
X-25803Y-61504D3*
X-590808Y-63341D3*
X1173878Y-115226D3*
X622155Y-83176D3*
X268062Y-99088D3*
X48570Y-104186D3*
X470004Y-110022D3*
X-888059Y-116188D3*
X574362Y-130969D3*
X1301035Y-132075D3*
X-792087Y-139403D3*
X-728220D3*
X-698491D3*
X236709Y-151003D3*
X-759052Y-139954D3*
D3*
X289728Y-151469D3*
X-1046606Y-156293D3*
X-133253Y-150663D3*
X837026Y-163717D3*
X707206Y-164790D3*
X770507D3*
X533396Y-172909D3*
X-70844Y-228541D3*
X-229470Y-196522D3*
X235180Y-193696D3*
X1193752Y-46781D3*
X-1081743Y-196942D3*
X311219Y-197761D3*
X-579236Y-216133D3*
X-1082198Y-228339D3*
X337921Y-234642D3*
X-578992Y-247879D3*
X729738Y-261350D3*
X679311Y-262424D3*
X625667Y-264570D3*
X-694618Y-277623D3*
X-579248Y-280490D3*
X-909948Y-306102D3*
X105984Y-314726D3*
X-899769Y-328501D3*
X-554476Y-335909D3*
X-497705Y-337873D3*
X-633870Y-362731D3*
X-497105Y-366333D3*
D21*
X-329379Y-391136D3*
X47962Y-394030D3*
D18*
X-10778Y-390570D3*
X-388440Y-393840D3*
X-1071583Y-427772D3*
X-1002088Y-428513D3*
X-934912Y-428430D3*
X-862783Y-429668D3*
D21*
X-685087Y-437049D3*
X-332594Y-529862D3*
D18*
X877114Y-568457D3*
X925079D3*
X-930906Y-570748D3*
X-1072298Y-571125D3*
X-863594D3*
X-1153524Y-572252D3*
X-1000098D3*
X-1223152Y-572412D3*
X-332012Y-578273D3*
X-417172Y-588316D3*
X1104618Y137774D3*
X-473130Y-154151D3*
X-202014Y-166370D3*
X-375584Y-105688D3*
X-113837Y-228709D3*
X-1264455Y570997D2*
D14*
X-1054634D1*
X-660709D2*
X-513034D1*
X483600D2*
X691113D1*
X834077D2*
X1264455D1*
X-1269185Y559318D2*
X-1042016D1*
X-673328D2*
X-509966D1*
X478316D2*
X691091D1*
X834054D2*
X1269185D1*
X-1273937Y547638D2*
X-1029398D1*
X-685969D2*
X-506898D1*
X266871D2*
X273668D1*
X316861D2*
X323656D1*
X366873D2*
X373669D1*
X416862D2*
X423663D1*
X466067D2*
X692659D1*
X832555D2*
X1273937D1*
X-1278665Y535958D2*
X-1016756D1*
X-698588D2*
X-503831D1*
X224310D2*
X698241D1*
X826927D2*
X1164362D1*
X1242480D2*
X1278665D1*
X-1287201Y524278D2*
X-1004138D1*
X-711228D2*
X-500762D1*
X221243D2*
X705808D1*
X819475D2*
X1090751D1*
X1242480D2*
X1287201D1*
X-1296428Y512598D2*
X-991520D1*
X-723848D2*
X-497717D1*
X218175D2*
X720387D1*
X804781D2*
X1090751D1*
X1242480D2*
X1296428D1*
X-1306186Y500919D2*
X-987874D1*
X-901890D2*
X-814654D1*
X-728669D2*
X-494648D1*
X215106D2*
X1090751D1*
X1242480D2*
X1306186D1*
X-1322657Y489239D2*
X-987874D1*
X-901890D2*
X-814654D1*
X-728669D2*
X-491581D1*
X212060D2*
X1090751D1*
X1242480D2*
X1322657D1*
X-1325310Y477559D2*
X-987874D1*
X-901890D2*
X-814654D1*
X-728669D2*
X-487290D1*
X207770D2*
X1090751D1*
X1242480D2*
X1325310D1*
X-1307039Y465879D2*
X-987874D1*
X-901890D2*
X-814654D1*
X-728669D2*
X-477440D1*
X195152D2*
X1090751D1*
X1242480D2*
X1307039D1*
X-1296589Y454199D2*
X-480577D1*
X197713D2*
X1090751D1*
X1242480D2*
X1296589D1*
X-1289923Y442520D2*
X-475686D1*
X192776D2*
X512841D1*
X1242480D2*
X1289923D1*
X-1285886Y430840D2*
X-468328D1*
X186248D2*
X500060D1*
X1242480D2*
X1285886D1*
X-1284063Y419160D2*
X-460946D1*
X179719D2*
X488388D1*
X1244188D2*
X1284063D1*
X-1284224Y407480D2*
X-453564D1*
X173190D2*
X476715D1*
X1246194D2*
X1284224D1*
X-1286416Y395801D2*
X-446182D1*
X166663D2*
X465020D1*
X1246194D2*
X1286416D1*
X-1290823Y384121D2*
X-759244D1*
X-718034D2*
X-438801D1*
X160134D2*
X453348D1*
X534996D2*
X1102723D1*
X1161142D2*
X1191698D1*
X1246194D2*
X1290823D1*
X-1298020Y372441D2*
X-767664D1*
X-709614D2*
X-431419D1*
X153605D2*
X441675D1*
X523323D2*
X1100946D1*
X1162917D2*
X1191698D1*
X1246194D2*
X1298020D1*
X-1309323Y360761D2*
X-769808D1*
X-707469D2*
X-424037D1*
X147077D2*
X429979D1*
X511627D2*
X1101892D1*
X1161949D2*
X1191698D1*
X1246194D2*
X1309323D1*
X-1328655Y349081D2*
X-767248D1*
X-710052D2*
X-416655D1*
X140549D2*
X418306D1*
X499954D2*
X1108306D1*
X1155559D2*
X1191698D1*
X1246194D2*
X1330269D1*
X1377915D2*
X1386626D1*
X-1290199Y337402D2*
X-764042D1*
X-713490D2*
X-409295D1*
X134021D2*
X406634D1*
X488282D2*
X1191698D1*
X1246194D2*
X1386626D1*
X-1281411Y325722D2*
X-764042D1*
X-713490D2*
X-400668D1*
X124724D2*
X394938D1*
X476587D2*
X1191698D1*
X1246194D2*
X1386626D1*
X-1279335Y314042D2*
X-764042D1*
X-713490D2*
X383265D1*
X464913D2*
X1191698D1*
X1246194D2*
X1386626D1*
X-1279335Y302362D2*
X-764042D1*
X-713490D2*
X371593D1*
X453241D2*
X1191698D1*
X1246194D2*
X1386626D1*
X-1279335Y290682D2*
X-764042D1*
X-713490D2*
X-597072D1*
X-36409D2*
X359920D1*
X441568D2*
X1191698D1*
X1246194D2*
X1380304D1*
X-1279335Y279003D2*
X-764042D1*
X-713490D2*
X-603970D1*
X-24690D2*
X348224D1*
X429873D2*
X1191698D1*
X1246194D2*
X1356937D1*
X-1279335Y267323D2*
X-764042D1*
X-713490D2*
X-605239D1*
X-12995D2*
X336552D1*
X418201D2*
X1191698D1*
X1246194D2*
X1333568D1*
X-1279335Y255643D2*
X-764042D1*
X-713490D2*
X-601710D1*
X-1322D2*
X324879D1*
X406528D2*
X1191698D1*
X1246194D2*
X1310223D1*
X-1279335Y243963D2*
X-764042D1*
X-713490D2*
X-590268D1*
X10350D2*
X148521D1*
X394832D2*
X1191698D1*
X1246194D2*
X1286854D1*
X-1279335Y232283D2*
X-764042D1*
X-713490D2*
X-59602D1*
X22046D2*
X136941D1*
X383159D2*
X1191698D1*
X1248824D2*
X1263509D1*
X-1279335Y220604D2*
X-906928D1*
X-803387D2*
X-764042D1*
X-713490D2*
X-47929D1*
X33719D2*
X125268D1*
X371487D2*
X395815D1*
X870734D2*
X1187130D1*
X-1279335Y208924D2*
X-915693D1*
X-791253D2*
X-764042D1*
X-713490D2*
X-36257D1*
X46730D2*
X113596D1*
X359791D2*
X382089D1*
X884459D2*
X1176381D1*
X-1279335Y197244D2*
X-918024D1*
X-782510D2*
X-764042D1*
X-713490D2*
X-24584D1*
X58102D2*
X101900D1*
X346112D2*
X370416D1*
X896131D2*
X1172482D1*
X-1279335Y185564D2*
X-915625D1*
X-780618D2*
X-764042D1*
X-713490D2*
X-12888D1*
X61631D2*
X90227D1*
X258798D2*
X358744D1*
X907804D2*
X1172390D1*
X-1279335Y173885D2*
X-906743D1*
X-780618D2*
X-764042D1*
X-713490D2*
X-1215D1*
X60340D2*
X78555D1*
X256676D2*
X347049D1*
X919476D2*
X1172390D1*
X-1279335Y162205D2*
X-873986D1*
X-780618D2*
X-764042D1*
X-713490D2*
X7689D1*
X53420D2*
X66882D1*
X249916D2*
X335375D1*
X931172D2*
X1117879D1*
X-1279335Y150525D2*
X-873109D1*
X-780618D2*
X-764042D1*
X-713490D2*
X55186D1*
X257276D2*
X323703D1*
X942845D2*
X1117879D1*
X-1279335Y138845D2*
X-911056D1*
X-780618D2*
X-764042D1*
X-713490D2*
X43514D1*
X258820D2*
X312007D1*
X954517D2*
X1117879D1*
X-1279335Y127165D2*
X-1058810D1*
X-1028304D2*
X-917378D1*
X-780618D2*
X-764042D1*
X-713490D2*
X31841D1*
X255591D2*
X300335D1*
X966213D2*
X1117879D1*
X-1279335Y115486D2*
X-1070828D1*
X-1016308D2*
X-929050D1*
X-780618D2*
X-764042D1*
X-713490D2*
X20146D1*
X244957D2*
X288661D1*
X977886D2*
X1117879D1*
X-1279335Y103806D2*
X-1074589D1*
X-1012549D2*
X-940723D1*
X-780618D2*
X-771193D1*
X-706339D2*
X8472D1*
X989559D2*
X1117879D1*
X-1279335Y92126D2*
X-1073504D1*
X-1013633D2*
X-952419D1*
X-782971D2*
X-773846D1*
X-699533D2*
X-3199D1*
X1001255D2*
X1117879D1*
X-1279335Y80446D2*
X-1070806D1*
X-1016332D2*
X-964091D1*
X-792337D2*
X-772346D1*
X-687837D2*
X-591720D1*
X1012927D2*
X1117879D1*
X-1279335Y68766D2*
X-1070806D1*
X-1016332D2*
X-975764D1*
X-804010D2*
X-765979D1*
X-676165D2*
X-603878D1*
X1024600D2*
X1117879D1*
X-1279335Y57087D2*
X-1070806D1*
X-1016332D2*
X-987459D1*
X-815682D2*
X-746140D1*
X-664492D2*
X-615550D1*
X469251D2*
X831392D1*
X1036295D2*
X1117879D1*
X-1279335Y45407D2*
X-1070806D1*
X-1016332D2*
X-998071D1*
X-827378D2*
X-734445D1*
X-652797D2*
X-627223D1*
X457555D2*
X843064D1*
X1047967D2*
X1117879D1*
X-1279335Y33727D2*
X-1070806D1*
X-1016332D2*
X-1001785D1*
X-839051D2*
X-722773D1*
X445882D2*
X854761D1*
X1059640D2*
X1117879D1*
X-1279335Y22047D2*
X-1070806D1*
X-1016332D2*
X-1001854D1*
X-850723D2*
X-711100D1*
X434210D2*
X866433D1*
X1071336D2*
X1138041D1*
X-1279335Y10367D2*
X-1070806D1*
X-1016332D2*
X-1001854D1*
X-862396D2*
X-699427D1*
X422514D2*
X878106D1*
X-1279335Y-1312D2*
X-1070806D1*
X-1016332D2*
X-1001854D1*
X-874092D2*
X-687731D1*
X410841D2*
X889778D1*
X-1279335Y-12992D2*
X-1070806D1*
X-1016332D2*
X-1001854D1*
X-885765D2*
X-676059D1*
X399169D2*
X901474D1*
X1295008D2*
X1324664D1*
X-1279335Y-24672D2*
X-1070806D1*
X-1016332D2*
X-1001854D1*
X-888740D2*
X-655043D1*
X387472D2*
X913147D1*
X1283335D2*
X1325310D1*
X-1279335Y-36352D2*
X-1070806D1*
X-1016332D2*
X-1001854D1*
X-888740D2*
X-655043D1*
X375801D2*
X924819D1*
X1271639D2*
X1278568D1*
X-1279335Y-48031D2*
X-1070806D1*
X-1016332D2*
X-1001854D1*
X-888740D2*
X-655043D1*
X364127D2*
X936514D1*
X-1279335Y-59711D2*
X-1070806D1*
X-1016332D2*
X-1001854D1*
X-888740D2*
X-655043D1*
X352455D2*
X948188D1*
X-1279335Y-71391D2*
X-1070806D1*
X-888740D2*
X-655043D1*
X340760D2*
X959860D1*
X-1279335Y-83071D2*
X-1067921D1*
X-888740D2*
X-655043D1*
X329087D2*
X971556D1*
X-1279335Y-94751D2*
X-1058025D1*
X-888740D2*
X-655043D1*
X-596625D2*
X-567776D1*
X265857D2*
X983228D1*
X-1279335Y-106430D2*
X-1046329D1*
X-888740D2*
X-655043D1*
X-596625D2*
X-556104D1*
X261980D2*
X994902D1*
X-1279335Y-118110D2*
X-1041832D1*
X-888740D2*
X-655043D1*
X-596625D2*
X-544430D1*
X261980D2*
X1006597D1*
X-1279335Y-129790D2*
X-1061854D1*
X-888740D2*
X-655043D1*
X-596625D2*
X-532759D1*
X261980D2*
X1018269D1*
X-1279335Y-141470D2*
X-1073874D1*
X-888740D2*
X-655043D1*
X-596625D2*
X-521062D1*
X266341D2*
X1112388D1*
X-1279335Y-153150D2*
X-1077634D1*
X-888740D2*
X-655043D1*
X-596625D2*
X-509390D1*
X165808D2*
X183285D1*
X267818D2*
X1100693D1*
X-1279335Y-164829D2*
X-1076550D1*
X-888740D2*
X-655043D1*
X-596625D2*
X-502354D1*
X154136D2*
X183285D1*
X264518D2*
X1091743D1*
X-1279335Y-176509D2*
X-1073850D1*
X-888740D2*
X-655043D1*
X-596625D2*
X-494303D1*
X142441D2*
X185223D1*
X260942D2*
X1090012D1*
X-1279335Y-188189D2*
X-1073850D1*
X-888740D2*
X-655043D1*
X-596625D2*
X-468673D1*
X130768D2*
X194428D1*
X265857D2*
X1071903D1*
X-1279335Y-199869D2*
X-1073850D1*
X-888740D2*
X-655043D1*
X-596625D2*
X-457001D1*
X119096D2*
X204647D1*
X265718D2*
X1071903D1*
X-1279335Y-211549D2*
X-1073850D1*
X-888740D2*
X-655043D1*
X-596625D2*
X-445306D1*
X107399D2*
X209883D1*
X260482D2*
X1071903D1*
X1209215D2*
X1222033D1*
X-1279335Y-223228D2*
X-1073850D1*
X-888740D2*
X-655043D1*
X-596625D2*
X-476840D1*
X95727D2*
X228730D1*
X241635D2*
X1071903D1*
X1209215D2*
X1245402D1*
X-1279335Y-234908D2*
X-1073850D1*
X-888740D2*
X-655043D1*
X-596625D2*
X-488720D1*
X84054D2*
X1071903D1*
X1209215D2*
X1268747D1*
X-1279335Y-246588D2*
X-1073850D1*
X-888740D2*
X-655043D1*
X-596625D2*
X-500416D1*
X-146491D2*
X-139118D1*
X72982D2*
X1071903D1*
X1209215D2*
X1292114D1*
X-1279335Y-258268D2*
X-1073850D1*
X-882927D2*
X-655043D1*
X-596625D2*
X-512089D1*
X-158186D2*
X-120134D1*
X61286D2*
X1071903D1*
X1209215D2*
X1315459D1*
X-1279335Y-269948D2*
X-1073850D1*
X-871255D2*
X-655043D1*
X-596625D2*
X-523761D1*
X-453255D2*
X-103039D1*
X49613D2*
X961613D1*
X1209215D2*
X1338828D1*
X-1279335Y-281627D2*
X-1073850D1*
X-859581D2*
X-655043D1*
X-596625D2*
X-535457D1*
X-464928D2*
X949917D1*
X1209215D2*
X1362197D1*
X-1279335Y-293307D2*
X-1073850D1*
X-847886D2*
X-655043D1*
X-596625D2*
X-547130D1*
X-476623D2*
X83791D1*
X1209215D2*
X1385542D1*
X-1279335Y-304987D2*
X-1073850D1*
X-836214D2*
X-655043D1*
X-595333D2*
X-558802D1*
X-488295D2*
X72580D1*
X1209215D2*
X1386602D1*
X-1279335Y-316667D2*
X-1073850D1*
X-916584D2*
X-900606D1*
X-824541D2*
X-655021D1*
X-499969D2*
X60885D1*
X1209215D2*
X1386602D1*
X-1279335Y-328346D2*
X-1073850D1*
X-916584D2*
X-888934D1*
X-812845D2*
X-651837D1*
X-511664D2*
X49211D1*
X1214060D2*
X1386602D1*
X-1280165Y-340026D2*
X-1073850D1*
X-914392D2*
X-877261D1*
X-801173D2*
X-654651D1*
X-523337D2*
X37539D1*
X1214060D2*
X1386602D1*
X-1284987Y-351706D2*
X-1073850D1*
X-902697D2*
X-865566D1*
X-789500D2*
X-662955D1*
X-527789D2*
X25866D1*
X1214060D2*
X1323787D1*
X-1302265Y-363386D2*
X-1073850D1*
X-891024D2*
X-853894D1*
X-777804D2*
X-665055D1*
X-536924D2*
X-350102D1*
X1214060D2*
X1306302D1*
X-1296105Y-375066D2*
X-1073850D1*
X-879352D2*
X-842220D1*
X-766131D2*
X-662403D1*
X-525252D2*
X-413009D1*
X1214060D2*
X1296105D1*
X-1289623Y-386745D2*
X-1073850D1*
X-867656D2*
X-830525D1*
X-754459D2*
X-653037D1*
X-513579D2*
X-422260D1*
X1227071D2*
X1289623D1*
X-1285724Y-398425D2*
X-1080286D1*
X-855983D2*
X-818852D1*
X-742764D2*
X-633428D1*
X207655D2*
X721194D1*
X800535D2*
X1065098D1*
X1227071D2*
X1285724D1*
X-1284017Y-410105D2*
X-1097010D1*
X-838866D2*
X-807180D1*
X-731091D2*
X-706902D1*
X-663270D2*
X-621756D1*
X195959D2*
X706085D1*
X815600D2*
X1129274D1*
X1227071D2*
X1284017D1*
X-1284294Y-421785D2*
X-1102155D1*
X-832661D2*
X-795484D1*
X-653604D2*
X-610083D1*
X184286D2*
X697341D1*
X824434D2*
X1129274D1*
X1227071D2*
X1284294D1*
X-1286601Y-433465D2*
X-1102224D1*
X-904150D2*
X-897031D1*
X-831853D2*
X-783811D1*
X-645068D2*
X-598387D1*
X172614D2*
X691690D1*
X830041D2*
X1129274D1*
X1227071D2*
X1286601D1*
X-1291169Y-445144D2*
X-1097219D1*
X-1045951D2*
X-1028244D1*
X-975938D2*
X-961000D1*
X-908810D2*
X-889672D1*
X-835913D2*
X-772139D1*
X-633373D2*
X-586715D1*
X160941D2*
X689407D1*
X832370D2*
X1129274D1*
X1227071D2*
X1291169D1*
X-1298551Y-456824D2*
X-1080240D1*
X-1062930D2*
X-1013203D1*
X-990979D2*
X-945774D1*
X-924035D2*
X-876707D1*
X-848856D2*
X-760444D1*
X-621701D2*
X-575042D1*
X149245D2*
X689383D1*
X832348D2*
X1129274D1*
X1227071D2*
X1298551D1*
X-1310177Y-468504D2*
X-748770D1*
X-610028D2*
X-563346D1*
X137573D2*
X691136D1*
X830686D2*
X1129274D1*
X1227071D2*
X1310177D1*
X-1332345Y-480184D2*
X-737098D1*
X-598356D2*
X-551675D1*
X125900D2*
X696719D1*
X825034D2*
X1129274D1*
X1227071D2*
X1332345D1*
X-1318966Y-491864D2*
X-725425D1*
X-586660D2*
X-538778D1*
X113005D2*
X704585D1*
X817283D2*
X1129274D1*
X1227071D2*
X1318966D1*
X-1303602Y-503543D2*
X-713730D1*
X-309978D2*
X719210D1*
X802566D2*
X1129274D1*
X1227071D2*
X1303602D1*
X-1294352Y-515223D2*
X-702056D1*
X-300795D2*
X35163D1*
X71043D2*
X153273D1*
X189154D2*
X1129274D1*
X1227071D2*
X1294352D1*
X-1285101Y-526903D2*
X-690385D1*
X-297613D2*
X21299D1*
X84908D2*
X139409D1*
X203018D2*
X1129274D1*
X1227071D2*
X1285101D1*
X-1277605Y-538583D2*
X-678689D1*
X-298627D2*
X15579D1*
X90652D2*
X133689D1*
X208762D2*
X1129274D1*
X1227071D2*
X1277605D1*
X-1272852Y-550262D2*
X-667016D1*
X-303379D2*
X14079D1*
X92151D2*
X132189D1*
X210261D2*
X1272852D1*
X-1268123Y-561942D2*
X-655344D1*
X-303379D2*
X16270D1*
X89959D2*
X134381D1*
X208070D2*
X1268123D1*
X-1263786Y-573622D2*
X-643648D1*
X-301188D2*
X22983D1*
X83224D2*
X141093D1*
X201335D2*
X1263786D1*
X1166734Y536106D2*
X1241301D1*
Y422556D1*
X1243020Y419118D1*
X1244283Y415228D1*
X1244924Y411189D1*
X1245004Y385522D1*
Y236155D1*
X1247274Y232920D1*
X1249412Y228726D1*
X1250589Y225232D1*
X1387808Y293846D1*
X1387795Y354067D1*
X1380510Y350517D1*
X1375425Y348640D1*
X1370209Y347169D1*
X1364892Y346113D1*
X1359510Y345475D1*
X1354094Y345262D1*
X1348678Y345475D1*
X1343297Y346113D1*
X1337980Y347169D1*
X1332764Y348640D1*
X1327678Y350517D1*
X1322756Y352786D1*
X1318028Y355434D1*
X1313520Y358446D1*
X1309264Y361802D1*
X1305283Y365480D1*
X1301605Y369461D1*
X1298249Y373717D1*
X1295238Y378224D1*
X1292589Y382953D1*
X1290320Y387875D1*
X1288444Y392961D1*
X1286972Y398177D1*
X1285916Y403493D1*
X1285278Y408875D1*
X1285066Y414291D1*
X1285278Y419707D1*
X1285916Y425089D1*
X1286972Y430406D1*
X1288444Y435622D1*
X1290320Y440707D1*
X1292589Y445630D1*
X1295238Y450358D1*
X1298249Y454866D1*
X1301605Y459122D1*
X1305283Y463102D1*
X1309264Y466781D1*
X1313520Y470136D1*
X1318028Y473148D1*
X1322756Y475797D1*
X1327678Y478066D1*
X1332764Y479942D1*
X1335759Y480786D1*
X1306182Y501850D1*
X1280837Y533828D1*
X1278051Y540374D1*
X1265064Y572761D1*
X1264045Y582699D1*
X830373Y582677D1*
X832143Y578438D1*
X832743Y575648D1*
X832892Y567301D1*
X832812Y553382D1*
X832362Y550563D1*
X831472Y547845D1*
X822377Y529098D1*
X820747Y526756D1*
X818766Y524693D1*
X802434Y511748D1*
X799950Y510344D1*
X796266Y509088D1*
X776941Y504768D1*
X774273Y504579D1*
X749278Y504675D1*
X746560Y505096D1*
X727320Y509579D1*
X724673Y510646D1*
X721394Y512743D1*
X705967Y525159D1*
X704045Y527269D1*
X702000Y530583D1*
X693490Y548462D1*
X692673Y551197D1*
X692294Y554031D1*
X692299Y573444D1*
X692528Y576289D1*
X693199Y579063D1*
X693698Y580407D1*
X690647Y582677D1*
X483701D1*
X483556Y577407D1*
X482841Y572739D1*
X481566Y568193D1*
X479748Y563836D1*
X477416Y559731D1*
X474602Y555938D1*
X471350Y552516D1*
X467707Y549513D1*
X463726Y546974D1*
X459467Y544937D1*
X454992Y543430D1*
X450367Y542479D1*
X445661Y542094D1*
X440944Y542285D1*
X436285Y543045D1*
X431751Y544365D1*
X427411Y546224D1*
X423329Y548597D1*
X420220Y550902D1*
X415652Y547619D1*
X410219Y544852D1*
X404420Y542967D1*
X398398Y542013D1*
X392301D1*
X386278Y542967D1*
X382547Y544088D1*
X377218Y546322D1*
X372020Y549508D1*
X370231Y550917D1*
X365652Y547619D1*
X360219Y544852D1*
X354420Y542967D1*
X348398Y542013D1*
X342301D1*
X336278Y542967D1*
X332547Y544088D1*
X327218Y546322D1*
X322020Y549508D1*
X320231Y550917D1*
X315652Y547619D1*
X310219Y544852D1*
X304420Y542967D1*
X298398Y542013D1*
X292301D1*
X286278Y542967D1*
X282547Y544088D1*
X277218Y546322D1*
X272020Y549508D1*
X270231Y550917D1*
X265652Y547619D1*
X260219Y544852D1*
X254420Y542967D1*
X248398Y542013D1*
X242301D1*
X236278Y542967D1*
X230479Y544852D1*
X226034Y547067D1*
X209358Y483757D1*
X205741Y475854D1*
X201961Y471663D1*
X198797Y468503D1*
X193966Y465850D1*
X195265Y463310D1*
X196150Y460596D1*
X196600Y457777D1*
X196604Y454923D1*
X196160Y452104D1*
X195281Y449388D1*
X188583Y437144D1*
X129304Y331214D1*
X127539Y328971D1*
X125445Y327031D1*
X123073Y325445D1*
X120483Y324247D1*
X117736Y323470D1*
X114896Y323133D1*
X-389618Y321873D1*
X-392438Y322312D1*
X-395155Y323186D1*
X-397701Y324476D1*
X-400014Y326148D1*
X-402038Y328160D1*
X-406769Y335287D1*
X-477458Y447322D1*
X-478554Y449957D1*
X-479223Y452731D1*
X-479450Y455576D1*
X-479230Y458423D1*
X-478567Y461198D1*
X-477478Y463836D1*
X-475986Y466276D1*
X-476492Y467490D1*
X-478991Y469017D1*
X-485222Y475782D1*
X-487606Y480899D1*
X-489181Y484594D1*
X-514909Y582682D1*
X-649278Y582677D1*
X-727035Y510839D1*
X-728713Y510064D1*
X-729623Y509883D1*
X-729843Y500472D1*
Y464094D1*
X-813465D1*
Y509839D1*
X-903077Y509843D1*
X-903071Y464094D1*
X-986693D1*
Y510070D1*
X-988508Y510970D1*
X-1066081Y582671D1*
X-1264034Y582676D1*
X-1265163Y572307D1*
X-1280459Y534478D1*
X-1284776Y528823D1*
X-1306526Y501539D1*
X-1335759Y480786D1*
X-1332764Y479942D1*
X-1327678Y478066D1*
X-1322756Y475797D1*
X-1318028Y473148D1*
X-1313520Y470136D1*
X-1309264Y466781D1*
X-1305283Y463102D1*
X-1301605Y459122D1*
X-1298249Y454866D1*
X-1295238Y450358D1*
X-1292589Y445630D1*
X-1290320Y440707D1*
X-1288444Y435622D1*
X-1286972Y430406D1*
X-1285916Y425089D1*
X-1285278Y419707D1*
X-1285066Y414291D1*
X-1285278Y408875D1*
X-1285916Y403493D1*
X-1286972Y398177D1*
X-1288444Y392961D1*
X-1290320Y387875D1*
X-1292589Y382953D1*
X-1295238Y378224D1*
X-1298249Y373717D1*
X-1301605Y369461D1*
X-1305283Y365480D1*
X-1309264Y361802D1*
X-1313520Y358446D1*
X-1318028Y355434D1*
X-1322756Y352786D1*
X-1327678Y350517D1*
X-1330955Y349308D1*
X-1303304Y343650D1*
X-1294879Y340299D1*
X-1291550Y337551D1*
X-1286958Y333361D1*
X-1282260Y324969D1*
X-1281424Y320734D1*
X-1280512Y315043D1*
X-1280585Y-335571D1*
X-1282203Y-344493D1*
X-1284238Y-348301D1*
X-1287243Y-353412D1*
X-1293988Y-359346D1*
X-1295559Y-360324D1*
X-1304117Y-363572D1*
X-1305283Y-365480D1*
X-1301605Y-369461D1*
X-1298249Y-373717D1*
X-1295238Y-378224D1*
X-1292589Y-382953D1*
X-1290320Y-387875D1*
X-1288444Y-392961D1*
X-1286972Y-398177D1*
X-1285916Y-403493D1*
X-1285278Y-408875D1*
X-1285066Y-414291D1*
X-1285278Y-419707D1*
X-1285916Y-425089D1*
X-1286972Y-430406D1*
X-1288444Y-435622D1*
X-1290320Y-440707D1*
X-1292589Y-445630D1*
X-1295238Y-450358D1*
X-1298249Y-454866D1*
X-1301605Y-459122D1*
X-1305283Y-463102D1*
X-1309264Y-466781D1*
X-1313520Y-470136D1*
X-1318028Y-473148D1*
X-1322756Y-475797D1*
X-1327678Y-478066D1*
X-1332764Y-479942D1*
X-1335759Y-480786D1*
X-1306181Y-501852D1*
X-1280836Y-533829D1*
X-1278049Y-540375D1*
X-1265121Y-572478D1*
X-1264043Y-582699D1*
X-633413Y-582677D1*
X-917759Y-298339D1*
X-917772Y-337820D1*
X-854857Y-400736D1*
X-851303Y-401951D1*
X-847109Y-404089D1*
X-843301Y-406856D1*
X-839971Y-410185D1*
X-837205Y-413993D1*
X-835067Y-418188D1*
X-833613Y-422664D1*
X-832875Y-427314D1*
Y-432022D1*
X-833613Y-436672D1*
X-835067Y-441148D1*
X-837205Y-445343D1*
X-839971Y-449151D1*
X-843301Y-452480D1*
X-847109Y-455247D1*
X-851303Y-457385D1*
X-855780Y-458839D1*
X-860429Y-459576D1*
X-865138D1*
X-869787Y-458839D1*
X-874264Y-457385D1*
X-878458Y-455247D1*
X-882266Y-452480D1*
X-885596Y-449151D1*
X-888362Y-445343D1*
X-890500Y-441148D1*
X-891688Y-437619D1*
X-905240Y-424070D1*
X-904912Y-428430D1*
X-905281Y-433123D1*
X-906381Y-437701D1*
X-908182Y-442050D1*
X-910642Y-446064D1*
X-913699Y-449643D1*
X-917278Y-452701D1*
X-921293Y-455160D1*
X-925642Y-456962D1*
X-930219Y-458062D1*
X-934912Y-458430D1*
X-939605Y-458062D1*
X-944182Y-456962D1*
X-948531Y-455160D1*
X-952546Y-452701D1*
X-956125Y-449643D1*
X-959182Y-446064D1*
X-961642Y-442050D1*
X-963444Y-437701D1*
X-963816Y-436382D1*
X-972084Y-428118D1*
X-972457Y-433206D1*
X-973556Y-437783D1*
X-975358Y-442133D1*
X-977818Y-446147D1*
X-980875Y-449726D1*
X-984454Y-452783D1*
X-988469Y-455243D1*
X-992818Y-457045D1*
X-997395Y-458144D1*
X-1002088Y-458513D1*
X-1006781Y-458144D1*
X-1011358Y-457045D1*
X-1015707Y-455243D1*
X-1019722Y-452783D1*
X-1023301Y-449726D1*
X-1026358Y-446147D1*
X-1028818Y-442133D1*
X-1030619Y-437783D1*
X-1030992Y-436465D1*
X-1034413Y-432933D1*
X-1035684Y-431319D1*
X-1040705Y-433752D1*
X-1042646Y-435693D1*
X-1043866Y-439252D1*
X-1046004Y-443446D1*
X-1048770Y-447255D1*
X-1052100Y-450584D1*
X-1055908Y-453350D1*
X-1060102Y-455488D1*
X-1064579Y-456942D1*
X-1069228Y-457680D1*
X-1073937D1*
X-1078587Y-456942D1*
X-1083063Y-455488D1*
X-1087257Y-453350D1*
X-1091066Y-450584D1*
X-1094395Y-447255D1*
X-1097161Y-443446D1*
X-1099299Y-439252D1*
X-1100753Y-434776D1*
X-1101491Y-430126D1*
Y-425417D1*
X-1100753Y-420768D1*
X-1099299Y-416291D1*
X-1097161Y-412097D1*
X-1094395Y-408289D1*
X-1091066Y-404959D1*
X-1087257Y-402193D1*
X-1083063Y-400055D1*
X-1079534Y-398867D1*
X-1072673Y-392003D1*
X-1072669Y-171165D1*
X-1074323Y-167773D1*
X-1075777Y-163297D1*
X-1076514Y-158647D1*
Y-153938D1*
X-1075777Y-149289D1*
X-1074323Y-144812D1*
X-1072185Y-140618D1*
X-1069419Y-136810D1*
X-1066089Y-133480D1*
X-1062281Y-130714D1*
X-1058087Y-128576D1*
X-1053610Y-127122D1*
X-1048961Y-126385D1*
X-1044252D1*
X-1040659Y-126912D1*
X-1040657Y-110927D1*
X-1063385Y-88087D1*
X-1065789Y-84778D1*
X-1067644Y-81134D1*
X-1068908Y-77244D1*
X-1069549Y-73205D1*
X-1069629Y-47538D1*
Y85820D1*
X-1071282Y89189D1*
X-1072736Y93665D1*
X-1073474Y98315D1*
Y103024D1*
X-1072736Y107673D1*
X-1071282Y112150D1*
X-1069144Y116344D1*
X-1066378Y120152D1*
X-1063049Y123482D1*
X-1059240Y126248D1*
X-1055046Y128386D1*
X-1050570Y129840D1*
X-1045920Y130577D1*
X-1041211D1*
X-1036562Y129840D1*
X-1032085Y128386D1*
X-1027891Y126248D1*
X-1024083Y123482D1*
X-1020753Y120152D1*
X-1017987Y116344D1*
X-1015849Y112150D1*
X-1014395Y107673D1*
X-1013657Y103024D1*
Y98315D1*
X-1014395Y93665D1*
X-1015849Y89189D1*
X-1017505Y85853D1*
X-1017503Y-60371D1*
X-1000685Y-77182D1*
X-1000596Y33927D1*
X-999955Y37966D1*
X-998692Y41856D1*
X-996835Y45500D1*
X-994432Y48808D1*
X-976339Y67014D1*
X-915643Y127711D1*
X-914436Y131256D1*
X-912298Y135450D1*
X-909531Y139259D1*
X-906202Y142588D1*
X-902394Y145354D1*
X-898199Y147492D1*
X-893723Y148946D1*
X-889073Y149684D1*
X-884365D1*
X-879715Y148946D1*
X-875239Y147492D1*
X-871045Y145354D1*
X-869430Y144276D1*
X-871552Y149247D1*
X-872652Y153824D1*
X-873021Y158517D1*
X-872652Y163210D1*
X-871552Y167787D1*
X-869751Y172136D1*
X-869270Y172996D1*
X-873219Y170588D1*
X-877568Y168786D1*
X-882146Y167686D1*
X-886839Y167318D1*
X-891531Y167686D1*
X-896109Y168786D1*
X-900458Y170588D1*
X-904472Y173047D1*
X-908051Y176105D1*
X-911109Y179684D1*
X-913568Y183698D1*
X-915370Y188047D1*
X-916470Y192625D1*
X-916839Y197318D1*
X-916470Y202010D1*
X-915370Y206588D1*
X-913568Y210937D1*
X-911109Y214951D1*
X-908051Y218530D1*
X-904472Y221588D1*
X-900458Y224047D1*
X-896109Y225849D1*
X-891531Y226949D1*
X-886839Y227318D1*
X-882146Y226949D1*
X-877568Y225849D1*
X-876818Y225572D1*
X-817837Y225491D1*
X-813798Y224850D1*
X-809908Y223587D1*
X-806264Y221731D1*
X-802955Y219327D1*
X-789438Y205923D1*
X-786782Y202812D1*
X-784646Y199325D1*
X-783080Y195547D1*
X-782125Y191571D1*
X-781804Y187486D1*
X-781885Y100902D1*
X-782525Y96862D1*
X-783789Y92972D1*
X-785644Y89328D1*
X-788049Y86020D1*
X-806142Y67814D1*
X-889936Y-15980D1*
X-889924Y-252444D1*
X-716970Y-425409D1*
X-715324Y-421642D1*
X-712542Y-417101D1*
X-709084Y-413051D1*
X-705034Y-409593D1*
X-700493Y-406811D1*
X-695573Y-404773D1*
X-690395Y-403529D1*
X-685087Y-403112D1*
X-679778Y-403529D1*
X-674600Y-404773D1*
X-669680Y-406811D1*
X-665139Y-409593D1*
X-661089Y-413051D1*
X-657631Y-417101D1*
X-654849Y-421642D1*
X-652811Y-426562D1*
X-652677Y-427033D1*
X-579852Y-499857D1*
X-348463Y-499862D1*
X-343081Y-497587D1*
X-337903Y-496343D1*
X-332594Y-495925D1*
X-327286Y-496343D1*
X-322108Y-497587D1*
X-317188Y-499625D1*
X-312647Y-502407D1*
X-308597Y-505865D1*
X-305139Y-509915D1*
X-302357Y-514455D1*
X-300319Y-519375D1*
X-299075Y-524554D1*
X-298657Y-529862D1*
X-299075Y-535171D1*
X-300319Y-540349D1*
X-302357Y-545269D1*
X-304567Y-548953D1*
X-304563Y-566148D1*
X-302841Y-571269D1*
X-302104Y-575919D1*
Y-580627D1*
X-302348Y-582682D1*
X35432Y-582677D1*
X30850Y-579827D1*
X26331Y-575967D1*
X22471Y-571448D1*
X19366Y-566381D1*
X17092Y-560890D1*
X15703Y-555112D1*
X15238Y-549186D1*
X15703Y-543261D1*
X17092Y-537483D1*
X19366Y-531992D1*
X22471Y-526925D1*
X26331Y-522406D1*
X30850Y-518546D1*
X35917Y-515441D1*
X41408Y-513167D1*
X47186Y-511778D1*
X53112Y-511312D1*
X59037Y-511778D1*
X64815Y-513167D1*
X70306Y-515441D1*
X75373Y-518546D1*
X79892Y-522406D1*
X83752Y-526925D1*
X86857Y-531992D1*
X89131Y-537483D1*
X90520Y-543261D1*
X90986Y-549186D1*
X90520Y-555112D1*
X89131Y-560890D1*
X86857Y-566381D1*
X83752Y-571448D1*
X79892Y-575967D1*
X75373Y-579827D1*
X70762Y-582677D1*
X153542Y-582678D1*
X148961Y-579827D1*
X144441Y-575967D1*
X140581Y-571448D1*
X137476Y-566381D1*
X135202Y-560890D1*
X133814Y-555112D1*
X133348Y-549186D1*
X133814Y-543261D1*
X135202Y-537483D1*
X137476Y-531992D1*
X140581Y-526925D1*
X144441Y-522406D1*
X148961Y-518546D1*
X154028Y-515441D1*
X159518Y-513167D1*
X165297Y-511778D1*
X171222Y-511312D1*
X177147Y-511778D1*
X182925Y-513167D1*
X188416Y-515441D1*
X193483Y-518546D1*
X198003Y-522406D1*
X201862Y-526925D1*
X204967Y-531992D1*
X207241Y-537483D1*
X208630Y-543261D1*
X209096Y-549186D1*
X208630Y-555112D1*
X207241Y-560890D1*
X204967Y-566381D1*
X201862Y-571448D1*
X198003Y-575967D1*
X193483Y-579827D1*
X188873Y-582677D1*
X1264055Y-582678D1*
X1265164Y-572310D1*
X1280458Y-534479D1*
X1284774Y-528824D1*
X1306308Y-501731D1*
X1335702Y-480828D1*
X1327678Y-478066D1*
X1322756Y-475797D1*
X1318028Y-473148D1*
X1313520Y-470136D1*
X1309264Y-466781D1*
X1305283Y-463102D1*
X1301605Y-459122D1*
X1298249Y-454866D1*
X1295238Y-450358D1*
X1292589Y-445630D1*
X1290320Y-440707D1*
X1288444Y-435622D1*
X1286972Y-430406D1*
X1285916Y-425089D1*
X1285278Y-419707D1*
X1285066Y-414291D1*
X1285278Y-408875D1*
X1285916Y-403493D1*
X1286972Y-398177D1*
X1288444Y-392961D1*
X1290320Y-387875D1*
X1292589Y-382953D1*
X1295238Y-378224D1*
X1298249Y-373717D1*
X1301605Y-369461D1*
X1305283Y-365480D1*
X1309264Y-361802D1*
X1313520Y-358446D1*
X1318028Y-355434D1*
X1322756Y-352786D1*
X1327678Y-350517D1*
X1332764Y-348640D1*
X1337980Y-347169D1*
X1343297Y-346113D1*
X1348678Y-345475D1*
X1354094Y-345262D1*
X1359510Y-345475D1*
X1364892Y-346113D1*
X1370209Y-347169D1*
X1375425Y-348640D1*
X1380510Y-350517D1*
X1387780Y-354100D1*
X1387795Y-293848D1*
X1208025Y-203954D1*
X1208033Y-324117D1*
X1212883Y-324136D1*
X1212885Y-381849D1*
X1225894D1*
Y-544211D1*
X1130461D1*
Y-399903D1*
X1066269Y-399885D1*
Y-388743D1*
X216147D1*
X115545Y-489244D1*
X112486Y-491466D1*
X109117Y-493182D1*
X105521Y-494352D1*
X101787Y-494942D1*
X70369Y-495017D1*
X-527570Y-494944D1*
X-531303Y-494352D1*
X-534899Y-493184D1*
X-538268Y-491467D1*
X-541327Y-489244D1*
X-563594Y-467081D1*
X-638255Y-392421D1*
X-643140Y-391262D1*
X-647490Y-389461D1*
X-651504Y-387001D1*
X-655083Y-383944D1*
X-658140Y-380365D1*
X-660600Y-376350D1*
X-662402Y-372001D1*
X-663501Y-367424D1*
X-663870Y-362731D1*
X-663501Y-358038D1*
X-662402Y-353461D1*
X-660600Y-349112D1*
X-658140Y-345097D1*
X-655083Y-341518D1*
X-651504Y-338461D1*
X-647490Y-336001D1*
X-645655Y-335131D1*
X-648512Y-331786D1*
X-650810Y-328035D1*
X-652493Y-323972D1*
X-653520Y-319694D1*
X-653865Y-315310D1*
Y-22041D1*
X-658593Y-21702D1*
X-662871Y-20676D1*
X-666934Y-18992D1*
X-670685Y-16694D1*
X-674030Y-13837D1*
X-745068Y57201D1*
X-749251Y58264D1*
X-754171Y60302D1*
X-758711Y63084D1*
X-762761Y66542D1*
X-766219Y70592D1*
X-769001Y75133D1*
X-771039Y80052D1*
X-772283Y85231D1*
X-772701Y90539D1*
X-772283Y95848D1*
X-771039Y101026D1*
X-769001Y105946D1*
X-766219Y110487D1*
X-762853Y114437D1*
X-762913Y343629D1*
X-765373Y347643D1*
X-767175Y351992D1*
X-768274Y356570D1*
X-768643Y361262D1*
X-768274Y365955D1*
X-767175Y370533D1*
X-765373Y374882D1*
X-762913Y378896D1*
X-759856Y382475D1*
X-756277Y385533D1*
X-752262Y387992D1*
X-747913Y389794D1*
X-743336Y390894D1*
X-738643Y391262D1*
X-733950Y390894D1*
X-729373Y389794D1*
X-725024Y387992D1*
X-721009Y385533D1*
X-717430Y382475D1*
X-714373Y378896D1*
X-711913Y374882D1*
X-710112Y370533D1*
X-709012Y365955D1*
X-708643Y361262D1*
X-709012Y356570D1*
X-710112Y351992D1*
X-711913Y347643D1*
X-714675Y343245D1*
X-714669Y114454D1*
X-711308Y110487D1*
X-708526Y105946D1*
X-706488Y101026D1*
X-705446Y96860D1*
X-642587Y34005D1*
X-637438Y34016D1*
X-592209Y79129D1*
X-588651Y81714D1*
X-584731Y83711D1*
X-580547Y85071D1*
X-576203Y85759D1*
X-550382Y85845D1*
X-8165Y85987D1*
X150101Y244377D1*
X153680Y247434D1*
X157694Y249894D1*
X162043Y251696D1*
X166621Y252795D1*
X171314Y253164D1*
X176007Y252795D1*
X180584Y251696D1*
X184005Y250322D1*
X320870Y250462D1*
X510451Y439920D1*
X514009Y442505D1*
X517929Y444503D1*
X522113Y445862D1*
X526457Y446550D1*
X552278Y446636D1*
X1091933Y446629D1*
Y535917D1*
X1165552Y535919D1*
Y536106D1*
X1166734D1*
X1192881Y389492D2*
X1167669D1*
X1167681Y389303D1*
X1159953D1*
X1159962Y379665D1*
X1161101Y375997D1*
X1161839Y371348D1*
Y366639D1*
X1161101Y361990D1*
X1159647Y357513D1*
X1157509Y353319D1*
X1154743Y349510D1*
X1151413Y346181D1*
X1147605Y343415D1*
X1143411Y341277D1*
X1138934Y339823D1*
X1134285Y339085D1*
X1129576D1*
X1124927Y339823D1*
X1120450Y341277D1*
X1116256Y343415D1*
X1112448Y346181D1*
X1109118Y349510D1*
X1106352Y353319D1*
X1104214Y357513D1*
X1102760Y361990D1*
X1102022Y366639D1*
Y371348D1*
X1102760Y375997D1*
X1103899Y379619D1*
Y389316D1*
X1091933Y389303D1*
Y390572D1*
X540273Y390573D1*
X350545Y200974D1*
X346987Y198388D1*
X343067Y196391D1*
X338883Y195031D1*
X334539Y194344D1*
X308718Y194257D1*
X256146Y194213D1*
X257245Y189635D1*
X257614Y184942D1*
X257245Y180249D1*
X256146Y175672D1*
X254344Y171323D1*
X251885Y167308D1*
X248827Y163730D1*
X247970Y162936D1*
X250510Y160299D1*
X253277Y156491D1*
X255415Y152297D1*
X256869Y147820D1*
X257606Y143171D1*
Y138462D1*
X256869Y133812D1*
X255415Y129336D1*
X253277Y125142D1*
X250510Y121333D1*
X247181Y118004D1*
X243373Y115238D1*
X239178Y113100D1*
X234702Y111646D1*
X232108Y111152D1*
X232984Y109706D1*
X284035D1*
X391804Y217364D1*
X394430Y219272D1*
X397323Y220745D1*
X400411Y221748D1*
X403617Y222256D1*
X446579Y222320D1*
X862925Y222256D1*
X866131Y221748D1*
X869219Y220745D1*
X872112Y219272D1*
X874738Y217364D1*
X905161Y187029D1*
X1072962Y19230D1*
X1142060Y19232D1*
X1135617Y25782D1*
X1129850Y26442D1*
X1119063D1*
Y173056D1*
X1173564D1*
X1173640Y197110D1*
X1174281Y201150D1*
X1175545Y205039D1*
X1177402Y208684D1*
X1179804Y211992D1*
X1192727Y225028D1*
X1192878Y232100D1*
Y389496D1*
X1078980Y-182610D2*
X1091184D1*
X1091257Y-171936D1*
X1091848Y-168201D1*
X1093017Y-164605D1*
X1094732Y-161236D1*
X1096955Y-158178D1*
X1115710Y-139319D1*
X1037068Y-139245D1*
X1033333Y-138654D1*
X1029738Y-137486D1*
X1026369Y-135769D1*
X1023310Y-133547D1*
X1001042Y-111383D1*
X827337Y62322D1*
X473319Y62323D1*
X322982Y-87888D1*
X319923Y-90110D1*
X316554Y-91827D1*
X312958Y-92995D1*
X309224Y-93587D1*
X277806Y-93661D1*
X265741D1*
X260797Y-98626D1*
X260803Y-133138D1*
X263438Y-137383D1*
X265240Y-141732D1*
X266339Y-146310D1*
X266709Y-151003D1*
X266339Y-155696D1*
X265240Y-160273D1*
X263438Y-164622D1*
X260979Y-168636D1*
X257921Y-172215D1*
X256982Y-173084D1*
X259450Y-176063D1*
X261911Y-180076D1*
X263711Y-184425D1*
X264811Y-189003D1*
X265180Y-193696D1*
X264811Y-198388D1*
X263711Y-202967D1*
X261911Y-207316D1*
X259450Y-211329D1*
X256394Y-214909D1*
X252814Y-217967D1*
X248799Y-220427D1*
X244450Y-222228D1*
X239873Y-223327D1*
X235180Y-223696D1*
X230487Y-223327D1*
X225909Y-222228D1*
X221560Y-220427D1*
X217546Y-217967D1*
X213967Y-214909D1*
X210909Y-211329D1*
X208450Y-207316D1*
X206648Y-202967D1*
X205516Y-198106D1*
X190249Y-182735D1*
X188026Y-179676D1*
X186310Y-176307D1*
X185142Y-172711D1*
X184550Y-168976D1*
X184476Y-137559D1*
Y-133291D1*
X75230Y-242547D1*
X72563Y-245820D1*
X46627Y-271667D1*
X44000Y-273575D1*
X41108Y-275049D1*
X38020Y-276051D1*
X34814Y-276559D1*
X-8148Y-276623D1*
X-88235Y-276559D1*
X-91441Y-276051D1*
X-94529Y-275049D1*
X-97421Y-273575D1*
X-100049Y-271667D1*
X-113100Y-258705D1*
X-118530Y-258339D1*
X-123108Y-257240D1*
X-127458Y-255438D1*
X-131471Y-252979D1*
X-135051Y-249921D1*
X-138108Y-246341D1*
X-140568Y-242328D1*
X-141466Y-240381D1*
X-161594Y-260394D1*
X-164654Y-262617D1*
X-168022Y-264333D1*
X-171618Y-265501D1*
X-175353Y-266093D1*
X-206770Y-266167D1*
X-450673D1*
X-524786Y-340294D1*
X-525945Y-345180D1*
X-527747Y-349529D1*
X-530206Y-353543D1*
X-533264Y-357122D1*
X-536843Y-360180D1*
X-539580Y-361925D1*
X-507440Y-394060D1*
X-428377Y-394052D1*
X-415734Y-381400D1*
X-414018Y-378165D1*
X-411252Y-374357D1*
X-407923Y-371028D1*
X-404114Y-368261D1*
X-399920Y-366123D1*
X-395444Y-364669D1*
X-390794Y-363932D1*
X-386085D1*
X-381436Y-364669D1*
X-379921Y-365096D1*
X-351164Y-365097D1*
X-347112Y-362201D1*
X-342366Y-359782D1*
X-337302Y-358138D1*
X-332042Y-357304D1*
X-326717D1*
X-321457Y-358138D1*
X-316392Y-359782D1*
X-314681Y-360572D1*
X-21808Y-360570D1*
X-18241Y-359484D1*
X-13286Y-358699D1*
X6938Y-358601D1*
X20156D1*
X81307Y-297437D1*
X84770Y-293512D1*
X88350Y-290455D1*
X92364Y-287995D1*
X96713Y-286194D1*
X101291Y-285094D1*
X105984Y-284726D1*
X110677Y-285094D1*
X115255Y-286194D1*
X119604Y-287995D1*
X120783Y-288656D1*
X944072D1*
X966297Y-266570D1*
X970105Y-263803D1*
X974299Y-261665D1*
X978776Y-260211D1*
X983425Y-259474D1*
X1003496Y-259382D1*
X1073093D1*
X1073075Y-182610D1*
X1078980D1*
X-563550Y241958D2*
X-567172Y240819D1*
X-571822Y240081D1*
X-576530D1*
X-581180Y240819D1*
X-585656Y242273D1*
X-589850Y244411D1*
X-593659Y247177D1*
X-596988Y250507D1*
X-599755Y254315D1*
X-601892Y258509D1*
X-603346Y262986D1*
X-604084Y267635D1*
Y272344D1*
X-603346Y276993D1*
X-601892Y281470D1*
X-599755Y285664D1*
X-596988Y289472D1*
X-593659Y292802D1*
X-589850Y295568D1*
X-585656Y297706D1*
X-581180Y299160D1*
X-576530Y299898D1*
X-571822D1*
X-567172Y299160D1*
X-563550Y298021D1*
X-54295Y297934D1*
X-49951Y297247D1*
X-45768Y295887D1*
X-41848Y293890D1*
X-38290Y291304D1*
X-19970Y273108D1*
X42814Y210323D1*
X46232Y208516D1*
X50041Y205749D1*
X53370Y202420D1*
X56136Y198612D1*
X58274Y194417D1*
X59728Y189941D1*
X60466Y185291D1*
Y180583D1*
X59728Y175933D1*
X58274Y171457D1*
X56136Y167262D1*
X53370Y163454D1*
X50041Y160125D1*
X46232Y157358D1*
X42038Y155220D1*
X37562Y153766D1*
X32912Y153029D1*
X28203D1*
X23554Y153766D1*
X19077Y155220D1*
X14883Y157358D1*
X11075Y160125D1*
X7745Y163454D1*
X4979Y167262D1*
X3223Y170629D1*
X-68306Y241958D1*
X-563469D1*
X1329045Y-31207D2*
X1327829Y-28659D1*
X1326375Y-24182D1*
X1325638Y-19533D1*
Y-14824D1*
X1326157Y-11268D1*
X1295542Y-11269D1*
X1267539Y-39276D1*
X1271665Y-39346D1*
X1275094Y-39890D1*
X1278403Y-40965D1*
X1279745Y-40988D1*
Y-34531D1*
X1324457D1*
X1326613Y-32690D1*
X1327806Y-31894D1*
X-573520Y-87841D2*
X-577189Y-90071D1*
X-581538Y-91873D1*
X-586115Y-92972D1*
X-590808Y-93341D1*
X-595501Y-92972D1*
X-597803Y-92514D1*
X-597660Y-303840D1*
X-580517Y-320984D1*
X-577289Y-316427D1*
X-573959Y-313097D1*
X-570151Y-310331D1*
X-565957Y-308193D1*
X-561480Y-306739D1*
X-558886Y-306245D1*
X-476287Y-223751D1*
X-473228Y-221529D1*
X-469860Y-219812D1*
X-466264Y-218643D1*
X-462530Y-218052D1*
X-437686Y-217978D1*
X-471577Y-184102D1*
X-475484Y-184059D1*
X-480134Y-183322D1*
X-484610Y-181867D1*
X-488804Y-179730D1*
X-492613Y-176963D1*
X-495942Y-173634D1*
X-498709Y-169825D1*
X-500846Y-165631D1*
X-502301Y-161155D1*
X-502794Y-158560D1*
X-573504Y-87852D1*
X794566Y-506657D2*
X775240Y-510978D1*
X772572Y-511167D1*
X747577Y-511071D1*
X744860Y-510650D1*
X726010Y-506285D1*
X723340Y-505277D1*
X720860Y-503865D1*
X704266Y-490587D1*
X702344Y-488476D1*
X700299Y-485163D1*
X691789Y-467283D1*
X690972Y-464549D1*
X690567Y-460677D1*
X690657Y-440875D1*
X691108Y-438056D1*
X692423Y-434394D1*
X701093Y-416592D1*
X702723Y-414249D1*
X705497Y-411517D1*
X721035Y-399241D1*
X723520Y-397837D1*
X727203Y-396580D1*
X746529Y-392261D1*
X755079Y-392081D1*
X774222Y-392171D1*
X782597Y-393898D1*
X796150Y-397072D1*
X798797Y-398139D1*
X801248Y-399610D1*
X817503Y-412652D1*
X819425Y-414762D1*
X820996Y-417152D1*
X829980Y-435955D1*
X830797Y-438690D1*
X831176Y-441525D1*
X831112Y-462364D1*
X830661Y-465182D1*
X829772Y-467900D1*
X820676Y-486646D1*
X819046Y-488990D1*
X817066Y-491052D1*
X800734Y-503997D1*
X798249Y-505402D1*
X795570Y-506402D1*
X1203427Y536083D2*
D10*
Y496264D1*
X1241277D1*
X1129807Y535894D2*
Y496075D1*
X1091957D2*
X1129807D1*
X1156937Y173033D2*
Y133214D1*
X1119087D2*
X1156937D1*
X1178177Y-500432D2*
Y-544189D1*
X1130484Y-500432D2*
X1225871D1*
X444860Y580945D2*
Y542110D1*
Y580945D2*
X483694D1*
X1308623Y20699D2*
Y-11247D1*
X1311714Y-34555D2*
Y-59610D1*
D27*
X1203427Y496264D3*
Y429335D3*
X1129807Y496075D3*
Y429146D3*
X1156937Y133214D3*
Y66285D3*
D31*
X1178177Y-500432D3*
Y-425629D3*
D27*
X1170159Y-222404D3*
Y-289333D3*
X1110949Y-222453D3*
Y-289382D3*
D28*
X1106112Y-362010D3*
X1173041D3*
D101*
X760885Y-451619D3*
X762585Y564126D3*
D38*
X344860Y580945D3*
X394860D3*
X294860D3*
X444860D3*
X295349Y580752D3*
X345349D3*
X245349D3*
X395349D3*
D39*
X-944882Y505906D3*
X-771654D3*
D51*
X1334214Y97471D3*
X1359804D3*
Y20699D3*
X1334214D3*
X1308623Y97471D3*
X1385395D3*
Y20699D3*
X1308623D3*
D107*
X1351084Y-78902D3*
D52*
X1390454Y-59217D3*
Y-98587D3*
X1311714Y-59610D3*
Y-98587D3*
M02*
