G04 DipTrace 3.2.0.1*
G04 BottomMask.gbr*
%MOIN*%
G04 #@! TF.FileFunction,Soldermask,Bot*
G04 #@! TF.Part,Single*
%AMOUTLINE1*
4,1,16,
-0.012179,0.045296,
-0.031431,0.040935,
-0.047241,0.028371,
-0.056033,0.010191,
-0.056067,-0.010003,
-0.047336,-0.028213,
-0.031568,-0.040831,
-0.012331,-0.045255,
0.012179,-0.045296,
0.031431,-0.040935,
0.047241,-0.028371,
0.056033,-0.010191,
0.056067,0.010003,
0.047336,0.028213,
0.031568,0.040831,
0.012331,0.045255,
-0.012179,0.045296,
0*%
%AMOUTLINE7*
4,1,5,
-0.017717,0.035433,
-0.017717,-0.035433,
0.017717,-0.035433,
0.017717,0.025253,
0.007536,0.035433,
-0.017717,0.035433,
0*%
%ADD17C,0.03937*%
%ADD53C,0.059055*%
%ADD56R,0.035433X0.021654*%
%ADD58R,0.021654X0.035433*%
%ADD75R,0.051181X0.047244*%
%ADD76R,0.055118X0.055118*%
%ADD78C,0.049213*%
%ADD90R,0.066929X0.059055*%
%ADD97R,0.047244X0.051181*%
%ADD102OUTLINE1*%
%ADD108OUTLINE7*%
%FSLAX26Y26*%
G04*
G70*
G90*
G75*
G01*
G04 BotMask*
%LPD*%
D97*
X1203427Y496264D3*
Y429335D3*
X1129807Y496075D3*
Y429146D3*
X1156937Y133214D3*
Y66285D3*
D90*
X1178177Y-500432D3*
Y-425629D3*
D53*
X-1354094Y414291D3*
X1354094D3*
X-1354094Y-414291D3*
X1354094D3*
D97*
X1170159Y-222404D3*
Y-289333D3*
X1110949Y-222453D3*
Y-289382D3*
D75*
X1106112Y-362010D3*
X1173041D3*
D102*
X760885Y-451619D3*
X762585Y564126D3*
D78*
X344860Y580945D3*
X394860D3*
X294860D3*
X444860D3*
X295349Y580752D3*
X345349D3*
X245349D3*
X395349D3*
D76*
X-944882Y505906D3*
X-771654D3*
D17*
X53112Y-549186D3*
X171222D3*
D58*
X1334214Y97471D3*
X1359804D3*
Y20699D3*
X1334214D3*
X1308623Y97471D3*
X1385395D3*
Y20699D3*
X1308623D3*
D108*
X1351084Y-78902D3*
D56*
X1390454Y-59217D3*
Y-98587D3*
X1311714Y-59610D3*
Y-98587D3*
M02*
