G04 DipTrace 3.2.0.1*
G04 BottomSilk.gbr*
%MOIN*%
G04 #@! TF.FileFunction,Legend,Bot*
G04 #@! TF.Part,Single*
%ADD10C,0.009843*%
%ADD12C,0.003*%
%ADD13C,0.001969*%
%ADD24C,0.005906*%
%ADD26O,0.015516X0.016017*%
%ADD49O,0.016531X0.017316*%
%ADD50O,0.016531X0.016936*%
%ADD99C,0.004632*%
%ADD100C,0.006176*%
%FSLAX26Y26*%
G04*
G70*
G90*
G75*
G01*
G04 BotSilk*
%LPD*%
X1152606Y-537812D2*
D10*
X1203748D1*
X1287959Y118140D2*
D24*
X1406062D1*
Y35D1*
X1287959D1*
Y118140D1*
D49*
X1294645Y-13753D3*
D50*
X1411972Y59285D3*
X1394390Y-35594D2*
D24*
X1307778D1*
Y-122209D1*
X1394390D1*
Y-35594D1*
X-955709Y466535D2*
X955709D1*
Y-466535D1*
X-955709D1*
Y466535D1*
X-1254921Y574803D2*
X1075787D1*
Y-574803D1*
X-1254921D1*
Y574803D1*
X1140869Y-192320D2*
X1196476D1*
Y-320601D1*
X1140869D1*
Y-192320D1*
X1082457Y-192432D2*
X1138064D1*
Y-320713D1*
X1082457D1*
Y-192432D1*
X1128804Y163181D2*
X1184412D1*
Y34900D1*
X1128804D1*
Y163181D1*
X1176134Y526958D2*
X1231741D1*
Y398677D1*
X1176134D1*
Y526958D1*
X1102024Y526832D2*
X1157631D1*
Y398551D1*
X1102024D1*
Y526832D1*
D26*
X1402272Y-25065D3*
X1076508Y-333421D2*
D24*
X1202570D1*
Y-389686D1*
X1076508D1*
Y-333421D1*
X1192829Y573202D2*
D13*
X1197751D1*
X1211530D2*
X1213499D1*
X1233184D2*
X1239089D1*
X1191665Y572218D2*
X1199033D1*
X1211530D2*
X1213876D1*
X1231749D2*
X1240860D1*
X1190670Y571234D2*
X1200022D1*
X1211530D2*
X1214334D1*
X1230517D2*
X1242386D1*
X1189918Y570249D2*
X1192871D1*
X1197709D2*
X1200765D1*
X1211530D2*
X1214920D1*
X1229519D2*
X1233529D1*
X1238892D2*
X1243570D1*
X1189409Y569265D2*
X1192051D1*
X1198529D2*
X1201367D1*
X1211530D2*
X1215669D1*
X1228741D2*
X1232217D1*
X1240417D2*
X1244444D1*
X1189125Y568281D2*
X1191467D1*
X1199117D2*
X1201878D1*
X1211530D2*
X1216536D1*
X1228110D2*
X1231197D1*
X1241602D2*
X1245116D1*
X1188988Y567297D2*
X1191134D1*
X1199472D2*
X1202306D1*
X1211530D2*
X1217465D1*
X1227532D2*
X1230389D1*
X1242476D2*
X1245682D1*
X1188929Y566312D2*
X1190978D1*
X1199719D2*
X1202672D1*
X1211530D2*
X1218391D1*
X1226934D2*
X1229823D1*
X1243147D2*
X1246169D1*
X1188910Y565328D2*
X1190951D1*
X1211530D2*
X1214483D1*
X1216451D2*
X1219215D1*
X1226294D2*
X1229483D1*
X1243713D2*
X1246548D1*
X1188939Y564344D2*
X1191020D1*
X1211530D2*
X1214483D1*
X1217436D2*
X1219860D1*
X1228262D2*
X1229247D1*
X1244200D2*
X1246807D1*
X1189096Y563360D2*
X1191527D1*
X1211530D2*
X1214483D1*
X1218420D2*
X1220388D1*
X1244575D2*
X1247045D1*
X1189453Y562375D2*
X1192760D1*
X1211530D2*
X1214483D1*
X1244800D2*
X1247331D1*
X1189902Y561391D2*
X1194177D1*
X1211530D2*
X1214483D1*
X1244913D2*
X1247603D1*
X1190289Y560407D2*
X1195386D1*
X1211530D2*
X1214483D1*
X1244963D2*
X1247783D1*
X1190168Y559423D2*
X1196184D1*
X1211530D2*
X1214483D1*
X1244983D2*
X1247877D1*
X1189583Y558438D2*
X1196766D1*
X1211530D2*
X1214483D1*
X1244991D2*
X1247919D1*
X1188953Y557454D2*
X1194239D1*
X1211530D2*
X1214483D1*
X1244993D2*
X1247933D1*
X1188420Y556470D2*
X1192396D1*
X1211530D2*
X1214483D1*
X1244994D2*
X1247905D1*
X1187997Y555486D2*
X1191038D1*
X1211530D2*
X1214483D1*
X1244991D2*
X1247782D1*
X1187614Y554501D2*
X1190472D1*
X1211530D2*
X1214483D1*
X1244956D2*
X1247547D1*
X1187301Y553517D2*
X1190143D1*
X1211530D2*
X1214483D1*
X1227278D2*
X1228262D1*
X1244827D2*
X1247292D1*
X1187138Y552533D2*
X1189986D1*
X1211530D2*
X1214483D1*
X1226861D2*
X1228603D1*
X1244557D2*
X1247085D1*
X1187162Y551549D2*
X1189922D1*
X1211530D2*
X1214483D1*
X1226607D2*
X1228934D1*
X1244175D2*
X1246865D1*
X1187357Y550564D2*
X1189934D1*
X1200703D2*
X1202672D1*
X1211530D2*
X1214483D1*
X1226811D2*
X1229285D1*
X1243729D2*
X1246553D1*
X1187625Y549580D2*
X1190088D1*
X1200326D2*
X1202634D1*
X1211530D2*
X1214483D1*
X1227148D2*
X1229781D1*
X1243218D2*
X1246154D1*
X1187919Y548596D2*
X1190391D1*
X1199853D2*
X1202504D1*
X1211530D2*
X1214483D1*
X1227573D2*
X1230495D1*
X1242547D2*
X1245701D1*
X1188282Y547612D2*
X1191273D1*
X1199278D2*
X1202230D1*
X1211530D2*
X1214483D1*
X1228072D2*
X1231524D1*
X1241680D2*
X1245191D1*
X1188743Y546627D2*
X1192725D1*
X1197801D2*
X1201810D1*
X1211530D2*
X1214483D1*
X1228686D2*
X1233206D1*
X1239468D2*
X1244574D1*
X1189369Y545643D2*
X1194988D1*
X1195563D2*
X1201201D1*
X1211530D2*
X1214483D1*
X1229482D2*
X1235847D1*
X1236178D2*
X1243776D1*
X1190270Y544659D2*
X1200307D1*
X1211530D2*
X1214483D1*
X1230506D2*
X1242752D1*
X1191468Y543675D2*
X1199111D1*
X1211530D2*
X1214483D1*
X1231775D2*
X1241482D1*
X1192829Y542690D2*
X1197751D1*
X1211530D2*
X1214483D1*
X1233184D2*
X1240073D1*
X1099508Y573013D2*
X1101476D1*
X1120177D2*
X1122146D1*
X1141831D2*
X1147736D1*
X1099508Y572029D2*
X1102087D1*
X1120177D2*
X1122523D1*
X1140396D2*
X1149507D1*
X1099508Y571045D2*
X1102648D1*
X1120177D2*
X1122981D1*
X1139164D2*
X1151033D1*
X1099508Y570060D2*
X1103175D1*
X1120177D2*
X1123567D1*
X1138166D2*
X1142176D1*
X1147539D2*
X1152217D1*
X1099508Y569076D2*
X1103685D1*
X1120177D2*
X1124316D1*
X1137388D2*
X1140864D1*
X1149064D2*
X1153091D1*
X1099508Y568092D2*
X1104215D1*
X1120177D2*
X1125183D1*
X1136757D2*
X1139844D1*
X1150249D2*
X1153763D1*
X1099508Y567108D2*
X1104803D1*
X1120177D2*
X1126112D1*
X1136179D2*
X1139036D1*
X1151123D2*
X1154329D1*
X1099508Y566123D2*
X1105438D1*
X1120177D2*
X1127038D1*
X1135581D2*
X1138470D1*
X1151794D2*
X1154816D1*
X1099508Y565139D2*
X1101476D1*
X1103289D2*
X1106041D1*
X1120177D2*
X1123130D1*
X1125098D2*
X1127862D1*
X1134941D2*
X1138130D1*
X1152360D2*
X1155195D1*
X1099508Y564155D2*
X1101476D1*
X1103995D2*
X1106594D1*
X1120177D2*
X1123130D1*
X1126083D2*
X1128507D1*
X1136909D2*
X1137894D1*
X1152847D2*
X1155454D1*
X1099508Y563171D2*
X1101476D1*
X1104595D2*
X1107116D1*
X1120177D2*
X1123130D1*
X1127067D2*
X1129035D1*
X1153222D2*
X1155692D1*
X1099508Y562186D2*
X1101476D1*
X1105136D2*
X1107620D1*
X1120177D2*
X1123130D1*
X1153447D2*
X1155978D1*
X1099508Y561202D2*
X1101476D1*
X1105647D2*
X1108118D1*
X1120177D2*
X1123130D1*
X1153560D2*
X1156250D1*
X1099508Y560218D2*
X1101476D1*
X1106148D2*
X1108611D1*
X1120177D2*
X1123130D1*
X1153610D2*
X1156430D1*
X1099508Y559234D2*
X1101476D1*
X1106646D2*
X1109104D1*
X1120177D2*
X1123130D1*
X1153630D2*
X1156524D1*
X1099508Y558249D2*
X1101476D1*
X1107170D2*
X1109600D1*
X1120177D2*
X1123130D1*
X1153638D2*
X1156566D1*
X1099508Y557265D2*
X1101476D1*
X1107757D2*
X1110124D1*
X1120177D2*
X1123130D1*
X1153640D2*
X1156580D1*
X1099508Y556281D2*
X1101476D1*
X1108394D2*
X1110706D1*
X1120177D2*
X1123130D1*
X1153641D2*
X1156552D1*
X1099508Y555297D2*
X1101476D1*
X1109023D2*
X1111305D1*
X1120177D2*
X1123130D1*
X1153638D2*
X1156429D1*
X1099508Y554312D2*
X1101476D1*
X1109663D2*
X1111778D1*
X1120177D2*
X1123130D1*
X1153603D2*
X1156194D1*
X1099508Y553328D2*
X1101476D1*
X1110335D2*
X1112061D1*
X1120177D2*
X1123130D1*
X1135925D2*
X1136909D1*
X1153474D2*
X1155939D1*
X1095571Y552344D2*
X1112202D1*
X1120177D2*
X1123130D1*
X1135508D2*
X1137250D1*
X1153204D2*
X1155732D1*
X1095571Y551360D2*
X1112264D1*
X1120177D2*
X1123130D1*
X1135254D2*
X1137581D1*
X1152822D2*
X1155512D1*
X1095571Y550375D2*
X1112289D1*
X1120177D2*
X1123130D1*
X1135458D2*
X1137932D1*
X1152376D2*
X1155200D1*
X1099508Y549391D2*
X1101476D1*
X1120177D2*
X1123130D1*
X1135795D2*
X1138428D1*
X1151865D2*
X1154801D1*
X1099508Y548407D2*
X1101476D1*
X1120177D2*
X1123130D1*
X1136220D2*
X1139142D1*
X1151194D2*
X1154348D1*
X1099508Y547423D2*
X1101476D1*
X1120177D2*
X1123130D1*
X1136719D2*
X1140171D1*
X1150327D2*
X1153838D1*
X1099508Y546438D2*
X1101476D1*
X1120177D2*
X1123130D1*
X1137333D2*
X1141853D1*
X1148115D2*
X1153221D1*
X1099508Y545454D2*
X1101476D1*
X1120177D2*
X1123130D1*
X1138129D2*
X1144494D1*
X1144825D2*
X1152422D1*
X1099508Y544470D2*
X1101476D1*
X1120177D2*
X1123130D1*
X1139153D2*
X1151398D1*
X1099508Y543486D2*
X1101476D1*
X1120177D2*
X1123130D1*
X1140422D2*
X1150129D1*
X1099508Y542501D2*
X1101476D1*
X1120177D2*
X1123130D1*
X1141831D2*
X1148720D1*
X1153654Y232394D2*
X1163496D1*
X1151424Y231409D2*
X1165878D1*
X1149582Y230425D2*
X1167960D1*
X1148128Y229441D2*
X1169637D1*
X1146956Y228457D2*
X1151730D1*
X1166255D2*
X1170888D1*
X1146006Y227472D2*
X1149961D1*
X1167811D2*
X1171788D1*
X1145258Y226488D2*
X1148521D1*
X1169087D2*
X1172470D1*
X1144677Y225504D2*
X1147479D1*
X1170071D2*
X1173040D1*
X1144259Y224520D2*
X1146751D1*
X1170759D2*
X1173528D1*
X1144016Y223535D2*
X1146268D1*
X1171241D2*
X1173903D1*
X1143897Y222551D2*
X1146000D1*
X1171613D2*
X1174124D1*
X1143844Y221567D2*
X1145874D1*
X1171901D2*
X1174203D1*
X1143827Y220583D2*
X1145853D1*
X1171796D2*
X1174127D1*
X1143854Y219598D2*
X1145964D1*
X1171590D2*
X1173908D1*
X1143980Y218614D2*
X1146268D1*
X1171292D2*
X1173624D1*
X1144253Y217630D2*
X1146727D1*
X1170885D2*
X1173292D1*
X1144669Y216646D2*
X1147785D1*
X1169889D2*
X1172802D1*
X1145244Y215661D2*
X1149201D1*
X1168456D2*
X1172104D1*
X1146025Y214677D2*
X1150882D1*
X1166733D2*
X1171226D1*
X1147042Y213693D2*
X1152669D1*
X1165233D2*
X1170153D1*
X1148309Y212709D2*
X1152146D1*
X1164231D2*
X1168858D1*
X1149717Y211724D2*
X1151685D1*
X1163496D2*
X1167433D1*
X1151685Y204835D2*
X1153654D1*
X1150815Y203850D2*
X1153161D1*
X1149945Y202866D2*
X1152586D1*
X1148945Y201882D2*
X1151981D1*
X1147759Y200898D2*
X1151315D1*
X1146497Y199913D2*
X1150544D1*
X1145360Y198929D2*
X1174323D1*
X1144500Y197945D2*
X1174323D1*
X1143811Y196961D2*
X1174323D1*
X1155622Y187118D2*
X1158575D1*
X1166449D2*
X1169402D1*
X1149717Y186134D2*
X1158496D1*
X1166810D2*
X1170799D1*
X1143811Y185150D2*
X1158321D1*
X1167805D2*
X1171905D1*
X1143811Y184165D2*
X1157640D1*
X1168960D2*
X1172667D1*
X1143811Y183181D2*
X1150490D1*
X1154831D2*
X1156878D1*
X1170010D2*
X1173188D1*
X1143811Y182197D2*
X1147829D1*
X1154256D2*
X1156277D1*
X1170866D2*
X1173610D1*
X1143811Y181213D2*
X1146603D1*
X1153926D2*
X1155926D1*
X1171616D2*
X1173938D1*
X1143811Y180228D2*
X1146163D1*
X1153766D2*
X1155789D1*
X1172354D2*
X1174106D1*
X1143811Y179244D2*
X1145937D1*
X1153701D2*
X1155786D1*
X1171703D2*
X1174080D1*
X1143811Y178260D2*
X1145839D1*
X1153712D2*
X1156160D1*
X1170946D2*
X1173851D1*
X1143811Y177276D2*
X1145801D1*
X1153865D2*
X1157058D1*
X1170010D2*
X1173450D1*
X1143811Y176291D2*
X1145787D1*
X1154265D2*
X1159581D1*
X1167446D2*
X1172847D1*
X1143811Y175307D2*
X1145782D1*
X1154953D2*
X1163537D1*
X1163468D2*
X1171943D1*
X1143811Y174323D2*
X1145780D1*
X1155928D2*
X1170683D1*
X1143811Y173339D2*
X1145780D1*
X1157177D2*
X1169123D1*
X1158575Y172354D2*
X1167433D1*
X1156451Y-554693D2*
X1169247D1*
X1175152D2*
X1192869D1*
X1210585D2*
X1212554D1*
X1155017Y-555677D2*
X1169247D1*
X1175152D2*
X1192869D1*
X1210585D2*
X1212554D1*
X1153784Y-556661D2*
X1169247D1*
X1175152D2*
X1192869D1*
X1210585D2*
X1212554D1*
X1152786Y-557646D2*
X1156455D1*
X1167278D2*
X1169247D1*
X1190900D2*
X1192869D1*
X1210585D2*
X1212554D1*
X1152009Y-558630D2*
X1155506D1*
X1167278D2*
X1169247D1*
X1190900D2*
X1192869D1*
X1210585D2*
X1212554D1*
X1151381Y-559614D2*
X1154651D1*
X1167278D2*
X1169247D1*
X1190900D2*
X1192869D1*
X1210585D2*
X1212554D1*
X1150833Y-560598D2*
X1153941D1*
X1167278D2*
X1169247D1*
X1190900D2*
X1192869D1*
X1210585D2*
X1212554D1*
X1150352Y-561583D2*
X1153369D1*
X1167278D2*
X1169247D1*
X1190900D2*
X1192869D1*
X1210585D2*
X1212554D1*
X1149980Y-562567D2*
X1152921D1*
X1167278D2*
X1169247D1*
X1190900D2*
X1192869D1*
X1210585D2*
X1212554D1*
X1149756Y-563551D2*
X1152555D1*
X1167278D2*
X1169247D1*
X1190900D2*
X1192869D1*
X1210585D2*
X1212554D1*
X1149643Y-564535D2*
X1152200D1*
X1167278D2*
X1169247D1*
X1190900D2*
X1192869D1*
X1210585D2*
X1212554D1*
X1149594Y-565520D2*
X1151896D1*
X1167278D2*
X1169247D1*
X1190900D2*
X1192869D1*
X1210585D2*
X1212554D1*
X1149573Y-566504D2*
X1151703D1*
X1167278D2*
X1169247D1*
X1190900D2*
X1192869D1*
X1210585D2*
X1212554D1*
X1149566Y-567488D2*
X1151604D1*
X1167278D2*
X1169247D1*
X1190900D2*
X1192869D1*
X1210585D2*
X1212554D1*
X1149563Y-568472D2*
X1151559D1*
X1167278D2*
X1169247D1*
X1176136D2*
X1192869D1*
X1210585D2*
X1212554D1*
X1149562Y-569457D2*
X1151541D1*
X1167278D2*
X1169247D1*
X1176136D2*
X1192869D1*
X1210585D2*
X1212554D1*
X1149562Y-570441D2*
X1151538D1*
X1167278D2*
X1169247D1*
X1176136D2*
X1192869D1*
X1210585D2*
X1212554D1*
X1149562Y-571425D2*
X1151570D1*
X1167278D2*
X1169247D1*
X1190900D2*
X1192869D1*
X1210585D2*
X1212554D1*
X1149562Y-572409D2*
X1151695D1*
X1167278D2*
X1169247D1*
X1190900D2*
X1192869D1*
X1210585D2*
X1212554D1*
X1149566Y-573394D2*
X1151930D1*
X1167278D2*
X1169247D1*
X1190900D2*
X1192869D1*
X1210585D2*
X1212554D1*
X1149600Y-574378D2*
X1152186D1*
X1167278D2*
X1169247D1*
X1190900D2*
X1192869D1*
X1210585D2*
X1212554D1*
X1149726Y-575362D2*
X1152392D1*
X1167278D2*
X1169247D1*
X1190900D2*
X1192869D1*
X1210585D2*
X1212554D1*
X1149965Y-576346D2*
X1152613D1*
X1167278D2*
X1169247D1*
X1190900D2*
X1192869D1*
X1210585D2*
X1212554D1*
X1150252Y-577331D2*
X1152929D1*
X1167278D2*
X1169247D1*
X1190900D2*
X1192869D1*
X1210585D2*
X1212554D1*
X1150553Y-578315D2*
X1153366D1*
X1167278D2*
X1169247D1*
X1190900D2*
X1192869D1*
X1210585D2*
X1212554D1*
X1150918Y-579299D2*
X1154017D1*
X1167278D2*
X1169247D1*
X1190900D2*
X1192869D1*
X1210585D2*
X1212554D1*
X1151376Y-580283D2*
X1154912D1*
X1167278D2*
X1169247D1*
X1190900D2*
X1192869D1*
X1210585D2*
X1212554D1*
X1151969Y-581268D2*
X1157807D1*
X1167278D2*
X1169247D1*
X1190900D2*
X1192869D1*
X1210585D2*
X1212554D1*
X1152756Y-582252D2*
X1162461D1*
X1167278D2*
X1169247D1*
X1190900D2*
X1192869D1*
X1210585D2*
X1212554D1*
X1153776Y-583236D2*
X1169247D1*
X1175152D2*
X1192869D1*
X1197790D2*
X1212554D1*
X1155043Y-584220D2*
X1169247D1*
X1175152D2*
X1192869D1*
X1197790D2*
X1212554D1*
X1156451Y-585205D2*
X1169247D1*
X1175152D2*
X1192869D1*
X1197790D2*
X1212554D1*
X1144945Y-139675D2*
X1175457D1*
X1144945Y-140659D2*
X1175457D1*
X1144945Y-141643D2*
X1175457D1*
X1144945Y-142627D2*
X1146913D1*
X1159709D2*
X1161677D1*
X1144945Y-143612D2*
X1146913D1*
X1159709D2*
X1161677D1*
X1144945Y-144596D2*
X1146913D1*
X1159709D2*
X1161677D1*
X1144945Y-145580D2*
X1146913D1*
X1159709D2*
X1161681D1*
X1144945Y-146564D2*
X1146913D1*
X1159709D2*
X1161719D1*
X1144945Y-147549D2*
X1146913D1*
X1159705D2*
X1161883D1*
X1144945Y-148533D2*
X1146913D1*
X1159670D2*
X1162287D1*
X1144945Y-149517D2*
X1146917D1*
X1159545D2*
X1162977D1*
X1144945Y-150501D2*
X1146952D1*
X1159305D2*
X1163965D1*
X1144945Y-151486D2*
X1147085D1*
X1159011D2*
X1165275D1*
X1144949Y-152470D2*
X1147323D1*
X1158617D2*
X1166849D1*
X1144987Y-153454D2*
X1147937D1*
X1158049D2*
X1160499D1*
X1162817D2*
X1168522D1*
X1145155Y-154438D2*
X1149847D1*
X1155994D2*
X1160091D1*
X1164084D2*
X1170174D1*
X1145474Y-155423D2*
X1152931D1*
X1152798D2*
X1159436D1*
X1165487D2*
X1171784D1*
X1146365Y-156407D2*
X1158612D1*
X1167043D2*
X1173242D1*
X1147540Y-157391D2*
X1157699D1*
X1168771D2*
X1174481D1*
X1148882Y-158375D2*
X1156756D1*
X1170620D2*
X1174981D1*
X1172535Y-159360D2*
X1175269D1*
X1174472Y-160344D2*
X1175457D1*
X1164630Y-162312D2*
X1167583D1*
X1163116Y-163297D2*
X1167583D1*
X1161430Y-164281D2*
X1167583D1*
X1159608Y-165265D2*
X1167583D1*
X1157738Y-166249D2*
X1162468D1*
X1165614D2*
X1167583D1*
X1155920Y-167234D2*
X1161075D1*
X1165614D2*
X1167583D1*
X1154197Y-168218D2*
X1159436D1*
X1165614D2*
X1167583D1*
X1152485Y-169202D2*
X1157631D1*
X1165610D2*
X1167583D1*
X1150697Y-170186D2*
X1155771D1*
X1165572D2*
X1167583D1*
X1148897Y-171171D2*
X1153993D1*
X1165408D2*
X1167583D1*
X1147298Y-172155D2*
X1152431D1*
X1165012D2*
X1167583D1*
X1145966Y-173139D2*
X1151096D1*
X1164383D2*
X1167583D1*
X1145441Y-174123D2*
X1175457D1*
X1145141Y-175108D2*
X1175457D1*
X1144945Y-176092D2*
X1175457D1*
X1165614Y-177076D2*
X1167583D1*
X1165614Y-178060D2*
X1167583D1*
X1165614Y-179045D2*
X1167583D1*
X1081915Y-138294D2*
X1112427D1*
X1081915Y-139278D2*
X1112427D1*
X1081915Y-140262D2*
X1112427D1*
X1081915Y-141247D2*
X1083883D1*
X1096678D2*
X1098647D1*
X1081915Y-142231D2*
X1083883D1*
X1096678D2*
X1098647D1*
X1081915Y-143215D2*
X1083883D1*
X1096678D2*
X1098647D1*
X1081915Y-144199D2*
X1083883D1*
X1096678D2*
X1098651D1*
X1081915Y-145184D2*
X1083883D1*
X1096678D2*
X1098689D1*
X1081915Y-146168D2*
X1083883D1*
X1096675D2*
X1098853D1*
X1081915Y-147152D2*
X1083883D1*
X1096640D2*
X1099257D1*
X1081915Y-148136D2*
X1083887D1*
X1096515D2*
X1099947D1*
X1081915Y-149121D2*
X1083922D1*
X1096275D2*
X1100935D1*
X1081915Y-150105D2*
X1084055D1*
X1095980D2*
X1102245D1*
X1081919Y-151089D2*
X1084293D1*
X1095587D2*
X1103819D1*
X1081957Y-152073D2*
X1084906D1*
X1095019D2*
X1097469D1*
X1099787D2*
X1105491D1*
X1082125Y-153058D2*
X1086817D1*
X1092964D2*
X1097061D1*
X1101054D2*
X1107143D1*
X1082443Y-154042D2*
X1089901D1*
X1089767D2*
X1096406D1*
X1102457D2*
X1108754D1*
X1083335Y-155026D2*
X1095582D1*
X1104013D2*
X1110212D1*
X1084510Y-156010D2*
X1094669D1*
X1105741D2*
X1111450D1*
X1085852Y-156995D2*
X1093726D1*
X1107590D2*
X1111951D1*
X1109505Y-157979D2*
X1112238D1*
X1111442Y-158963D2*
X1112427D1*
X1093726Y-162900D2*
X1096678D1*
X1104552D2*
X1107505D1*
X1087820Y-163885D2*
X1096600D1*
X1104914D2*
X1108903D1*
X1081915Y-164869D2*
X1096425D1*
X1105909D2*
X1110009D1*
X1081915Y-165853D2*
X1095743D1*
X1107064D2*
X1110771D1*
X1081915Y-166837D2*
X1088594D1*
X1092935D2*
X1094982D1*
X1108114D2*
X1111292D1*
X1081915Y-167822D2*
X1085932D1*
X1092359D2*
X1094381D1*
X1108970D2*
X1111714D1*
X1081915Y-168806D2*
X1084707D1*
X1092030D2*
X1094029D1*
X1109720D2*
X1112042D1*
X1081915Y-169790D2*
X1084267D1*
X1091870D2*
X1093893D1*
X1110458D2*
X1112210D1*
X1081915Y-170774D2*
X1084040D1*
X1091805D2*
X1093890D1*
X1109806D2*
X1112183D1*
X1081915Y-171759D2*
X1083943D1*
X1091815D2*
X1094264D1*
X1109050D2*
X1111955D1*
X1081915Y-172743D2*
X1083904D1*
X1091969D2*
X1095161D1*
X1108113D2*
X1111553D1*
X1081915Y-173727D2*
X1083891D1*
X1092369D2*
X1097684D1*
X1105549D2*
X1110951D1*
X1081915Y-174711D2*
X1083886D1*
X1093057D2*
X1101641D1*
X1101572D2*
X1110047D1*
X1081915Y-175696D2*
X1083884D1*
X1094032D2*
X1108786D1*
X1081915Y-176680D2*
X1083883D1*
X1095281D2*
X1107227D1*
X1096678Y-177664D2*
X1105537D1*
X1222339Y-348787D2*
X1227260D1*
X1243008D2*
X1257772D1*
X1221392Y-349772D2*
X1228661D1*
X1241725D2*
X1257772D1*
X1220538Y-350756D2*
X1229798D1*
X1240737D2*
X1257772D1*
X1219828Y-351740D2*
X1223706D1*
X1227256D2*
X1230651D1*
X1239994D2*
X1244342D1*
X1255803D2*
X1257772D1*
X1219260Y-352724D2*
X1222517D1*
X1228202D2*
X1231286D1*
X1239393D2*
X1243064D1*
X1255803D2*
X1257772D1*
X1218844Y-353709D2*
X1221704D1*
X1229022D2*
X1231759D1*
X1238890D2*
X1242169D1*
X1255803D2*
X1257772D1*
X1218585Y-354693D2*
X1221032D1*
X1229611D2*
X1232136D1*
X1238509D2*
X1241498D1*
X1255803D2*
X1257772D1*
X1218402Y-355677D2*
X1220370D1*
X1229978D2*
X1232494D1*
X1238286D2*
X1241262D1*
X1255803D2*
X1257772D1*
X1230264Y-356661D2*
X1232799D1*
X1238207D2*
X1241138D1*
X1255803D2*
X1257772D1*
X1230569Y-357646D2*
X1232992D1*
X1238283D2*
X1241119D1*
X1255803D2*
X1257772D1*
X1230849Y-358630D2*
X1233092D1*
X1238502D2*
X1241259D1*
X1255803D2*
X1257772D1*
X1231027Y-359614D2*
X1233136D1*
X1238785D2*
X1241555D1*
X1255803D2*
X1257772D1*
X1222339Y-360598D2*
X1227260D1*
X1231084D2*
X1233155D1*
X1239118D2*
X1242400D1*
X1255803D2*
X1257772D1*
X1221358Y-361583D2*
X1228425D1*
X1230975D2*
X1233162D1*
X1239615D2*
X1245160D1*
X1255803D2*
X1257772D1*
X1220412Y-362567D2*
X1229755D1*
X1230657D2*
X1233164D1*
X1240384D2*
X1249840D1*
X1255803D2*
X1257772D1*
X1219588Y-363551D2*
X1223672D1*
X1227025D2*
X1233165D1*
X1241529D2*
X1257772D1*
X1218969Y-364535D2*
X1222395D1*
X1228420D2*
X1233165D1*
X1243121D2*
X1257772D1*
X1218511Y-365520D2*
X1221500D1*
X1229493D2*
X1233165D1*
X1244976D2*
X1257772D1*
X1218115Y-366504D2*
X1220829D1*
X1229904D2*
X1233165D1*
X1244030D2*
X1247933D1*
X1255803D2*
X1257772D1*
X1217793Y-367488D2*
X1220593D1*
X1230226D2*
X1233165D1*
X1243175D2*
X1246983D1*
X1255803D2*
X1257772D1*
X1217598Y-368472D2*
X1220465D1*
X1230517D2*
X1233165D1*
X1242462D2*
X1246128D1*
X1255803D2*
X1257772D1*
X1217531Y-369457D2*
X1220407D1*
X1230680D2*
X1233162D1*
X1241859D2*
X1245414D1*
X1255803D2*
X1257772D1*
X1217611Y-370441D2*
X1220388D1*
X1230625D2*
X1233127D1*
X1241317D2*
X1244808D1*
X1255803D2*
X1257772D1*
X1217832Y-371425D2*
X1220413D1*
X1230431D2*
X1232998D1*
X1240802D2*
X1244235D1*
X1255803D2*
X1257772D1*
X1218112Y-372409D2*
X1220543D1*
X1230139D2*
X1232727D1*
X1240270D2*
X1243629D1*
X1255803D2*
X1257772D1*
X1218410Y-373394D2*
X1220866D1*
X1229654D2*
X1232346D1*
X1239682D2*
X1242987D1*
X1255803D2*
X1257772D1*
X1218775Y-374378D2*
X1221363D1*
X1228855D2*
X1231900D1*
X1239047D2*
X1242382D1*
X1255803D2*
X1257772D1*
X1219236Y-375362D2*
X1222930D1*
X1227560D2*
X1231388D1*
X1238444D2*
X1241828D1*
X1255803D2*
X1257772D1*
X1219862Y-376346D2*
X1225331D1*
X1225632D2*
X1230738D1*
X1237887D2*
X1241308D1*
X1255803D2*
X1257772D1*
X1220763Y-377331D2*
X1229826D1*
X1237339D2*
X1240830D1*
X1255803D2*
X1257772D1*
X1221962Y-378315D2*
X1228623D1*
X1236752D2*
X1240415D1*
X1255803D2*
X1257772D1*
X1223323Y-379299D2*
X1227260D1*
X1236118D2*
X1240055D1*
X1255803D2*
X1257772D1*
X1199188Y13314D2*
X1216904D1*
X1222810D2*
X1226747D1*
X1242495D2*
X1246432D1*
X1258243D2*
X1270054D1*
X1199188Y12329D2*
X1216904D1*
X1222810D2*
X1227087D1*
X1242037D2*
X1246432D1*
X1256842D2*
X1270054D1*
X1199188Y11345D2*
X1216904D1*
X1222810D2*
X1227415D1*
X1241719D2*
X1246432D1*
X1255705D2*
X1270054D1*
X1214936Y10361D2*
X1216904D1*
X1222810D2*
X1227727D1*
X1241451D2*
X1246432D1*
X1254852D2*
X1258592D1*
X1268085D2*
X1270054D1*
X1214936Y9377D2*
X1216904D1*
X1222810D2*
X1228059D1*
X1241148D2*
X1246432D1*
X1254220D2*
X1257315D1*
X1268085D2*
X1270054D1*
X1214936Y8392D2*
X1216904D1*
X1222810D2*
X1228358D1*
X1240835D2*
X1246432D1*
X1253782D2*
X1256420D1*
X1268085D2*
X1270054D1*
X1214936Y7408D2*
X1216904D1*
X1222810D2*
X1228582D1*
X1240528D2*
X1246432D1*
X1253531D2*
X1255749D1*
X1268085D2*
X1270054D1*
X1214936Y6424D2*
X1216904D1*
X1222810D2*
X1228806D1*
X1240198D2*
X1242457D1*
X1244463D2*
X1246432D1*
X1253409D2*
X1255517D1*
X1268085D2*
X1270054D1*
X1214936Y5440D2*
X1216904D1*
X1222810D2*
X1225762D1*
X1227735D2*
X1229090D1*
X1239899D2*
X1242331D1*
X1244463D2*
X1246432D1*
X1253359D2*
X1255423D1*
X1268085D2*
X1270054D1*
X1214936Y4455D2*
X1216904D1*
X1222810D2*
X1225762D1*
X1227769D2*
X1229395D1*
X1239675D2*
X1242095D1*
X1244463D2*
X1246432D1*
X1253372D2*
X1255499D1*
X1268085D2*
X1270054D1*
X1214936Y3471D2*
X1216904D1*
X1222810D2*
X1225762D1*
X1227895D2*
X1229699D1*
X1239451D2*
X1241839D1*
X1244463D2*
X1246432D1*
X1253494D2*
X1255707D1*
X1268085D2*
X1270054D1*
X1214936Y2487D2*
X1216904D1*
X1222810D2*
X1225762D1*
X1228131D2*
X1230028D1*
X1239171D2*
X1241633D1*
X1244463D2*
X1246432D1*
X1253765D2*
X1256377D1*
X1268085D2*
X1270054D1*
X1214936Y1503D2*
X1216904D1*
X1222810D2*
X1225762D1*
X1228387D2*
X1230327D1*
X1238897D2*
X1241416D1*
X1244463D2*
X1246432D1*
X1254180D2*
X1258973D1*
X1268085D2*
X1270054D1*
X1214936Y518D2*
X1216904D1*
X1222810D2*
X1225762D1*
X1228593D2*
X1230551D1*
X1238684D2*
X1241135D1*
X1244463D2*
X1246432D1*
X1254748D2*
X1263421D1*
X1268085D2*
X1270054D1*
X1200172Y-466D2*
X1216904D1*
X1222810D2*
X1225762D1*
X1228810D2*
X1230775D1*
X1238465D2*
X1240830D1*
X1244463D2*
X1246432D1*
X1255474D2*
X1270054D1*
X1200172Y-1450D2*
X1216904D1*
X1222810D2*
X1225762D1*
X1229091D2*
X1231054D1*
X1238186D2*
X1240527D1*
X1244463D2*
X1246432D1*
X1256274D2*
X1270054D1*
X1200172Y-2434D2*
X1216904D1*
X1222810D2*
X1225762D1*
X1229395D2*
X1231329D1*
X1237912D2*
X1240197D1*
X1244463D2*
X1246432D1*
X1254992D2*
X1270054D1*
X1214936Y-3419D2*
X1216904D1*
X1222810D2*
X1225762D1*
X1229699D2*
X1231542D1*
X1237699D2*
X1239898D1*
X1244463D2*
X1246432D1*
X1254007D2*
X1257296D1*
X1268085D2*
X1270054D1*
X1214936Y-4403D2*
X1216904D1*
X1222810D2*
X1225762D1*
X1230028D2*
X1231761D1*
X1237480D2*
X1239675D1*
X1244463D2*
X1246432D1*
X1253295D2*
X1256442D1*
X1268085D2*
X1270054D1*
X1214936Y-5387D2*
X1216904D1*
X1222810D2*
X1225762D1*
X1230327D2*
X1232043D1*
X1237198D2*
X1239451D1*
X1244463D2*
X1246432D1*
X1252784D2*
X1255732D1*
X1268085D2*
X1270054D1*
X1214936Y-6371D2*
X1216904D1*
X1222810D2*
X1225762D1*
X1230551D2*
X1232348D1*
X1236894D2*
X1239171D1*
X1244463D2*
X1246432D1*
X1252396D2*
X1255164D1*
X1268085D2*
X1270054D1*
X1214936Y-7356D2*
X1216904D1*
X1222810D2*
X1225762D1*
X1230775D2*
X1232652D1*
X1236590D2*
X1238897D1*
X1244463D2*
X1246432D1*
X1252067D2*
X1254755D1*
X1268085D2*
X1270054D1*
X1214936Y-8340D2*
X1216904D1*
X1222810D2*
X1225762D1*
X1231058D2*
X1232985D1*
X1236256D2*
X1238684D1*
X1244463D2*
X1246432D1*
X1251800D2*
X1254548D1*
X1268085D2*
X1270054D1*
X1214936Y-9324D2*
X1216904D1*
X1222810D2*
X1225762D1*
X1231363D2*
X1233318D1*
X1235924D2*
X1238465D1*
X1244463D2*
X1246432D1*
X1251905D2*
X1254559D1*
X1268085D2*
X1270054D1*
X1214936Y-10308D2*
X1216904D1*
X1222810D2*
X1225762D1*
X1231667D2*
X1233660D1*
X1235582D2*
X1238182D1*
X1244463D2*
X1246432D1*
X1252077D2*
X1254781D1*
X1268085D2*
X1270054D1*
X1214936Y-11293D2*
X1216904D1*
X1222810D2*
X1225762D1*
X1231997D2*
X1234099D1*
X1235142D2*
X1237878D1*
X1244463D2*
X1246432D1*
X1252247D2*
X1255215D1*
X1268085D2*
X1270054D1*
X1214936Y-12277D2*
X1216904D1*
X1222810D2*
X1225762D1*
X1232296D2*
X1237574D1*
X1244463D2*
X1246432D1*
X1252485D2*
X1255829D1*
X1268085D2*
X1270054D1*
X1214936Y-13261D2*
X1216904D1*
X1222810D2*
X1225762D1*
X1232520D2*
X1237245D1*
X1244463D2*
X1246432D1*
X1252923D2*
X1258332D1*
X1268085D2*
X1270054D1*
X1214936Y-14245D2*
X1216904D1*
X1222810D2*
X1225762D1*
X1232744D2*
X1236950D1*
X1244463D2*
X1246432D1*
X1253627D2*
X1262616D1*
X1268085D2*
X1270054D1*
X1199188Y-15230D2*
X1216904D1*
X1222810D2*
X1225762D1*
X1233032D2*
X1236760D1*
X1244463D2*
X1246432D1*
X1254609D2*
X1270054D1*
X1199188Y-16214D2*
X1216904D1*
X1222810D2*
X1225762D1*
X1233344D2*
X1236656D1*
X1244463D2*
X1246432D1*
X1255860D2*
X1270054D1*
X1199188Y-17198D2*
X1216904D1*
X1222810D2*
X1225762D1*
X1233636D2*
X1236589D1*
X1244463D2*
X1246432D1*
X1257259D2*
X1270054D1*
X1203194Y59483D2*
X1216974D1*
X1222879D2*
X1226816D1*
X1242564D2*
X1246501D1*
X1258312D2*
X1270123D1*
X1201912Y58499D2*
X1216974D1*
X1222879D2*
X1227157D1*
X1242106D2*
X1246501D1*
X1256911D2*
X1270123D1*
X1200923Y57514D2*
X1216974D1*
X1222879D2*
X1227484D1*
X1241789D2*
X1246501D1*
X1255774D2*
X1270123D1*
X1200180Y56530D2*
X1204528D1*
X1215005D2*
X1216974D1*
X1222879D2*
X1227796D1*
X1241520D2*
X1246501D1*
X1254921D2*
X1258662D1*
X1268155D2*
X1270123D1*
X1199579Y55546D2*
X1203250D1*
X1215005D2*
X1216974D1*
X1222879D2*
X1228128D1*
X1241217D2*
X1246501D1*
X1254290D2*
X1257384D1*
X1268155D2*
X1270123D1*
X1199077Y54562D2*
X1202355D1*
X1215005D2*
X1216974D1*
X1222879D2*
X1228428D1*
X1240905D2*
X1246501D1*
X1253851D2*
X1256489D1*
X1268155D2*
X1270123D1*
X1198696Y53577D2*
X1201684D1*
X1215005D2*
X1216974D1*
X1222879D2*
X1228652D1*
X1240598D2*
X1246501D1*
X1253601D2*
X1255818D1*
X1268155D2*
X1270123D1*
X1198469Y52593D2*
X1201449D1*
X1215005D2*
X1216974D1*
X1222879D2*
X1228876D1*
X1240267D2*
X1242527D1*
X1244533D2*
X1246501D1*
X1253478D2*
X1255586D1*
X1268155D2*
X1270123D1*
X1198359Y51609D2*
X1201325D1*
X1215005D2*
X1216974D1*
X1222879D2*
X1225832D1*
X1227804D2*
X1229159D1*
X1239968D2*
X1242401D1*
X1244533D2*
X1246501D1*
X1253429D2*
X1255493D1*
X1268155D2*
X1270123D1*
X1198344Y50625D2*
X1201301D1*
X1215005D2*
X1216974D1*
X1222879D2*
X1225832D1*
X1227839D2*
X1229464D1*
X1239744D2*
X1242165D1*
X1244533D2*
X1246501D1*
X1253442D2*
X1255568D1*
X1268155D2*
X1270123D1*
X1198453Y49640D2*
X1201411D1*
X1215005D2*
X1216974D1*
X1222879D2*
X1225832D1*
X1227964D2*
X1229768D1*
X1239521D2*
X1241909D1*
X1244533D2*
X1246501D1*
X1253563D2*
X1255777D1*
X1268155D2*
X1270123D1*
X1198715Y48656D2*
X1201638D1*
X1215005D2*
X1216974D1*
X1222879D2*
X1225832D1*
X1228200D2*
X1230098D1*
X1239241D2*
X1241702D1*
X1244533D2*
X1246501D1*
X1253834D2*
X1256447D1*
X1268155D2*
X1270123D1*
X1199098Y47672D2*
X1202327D1*
X1215005D2*
X1216974D1*
X1222879D2*
X1225832D1*
X1228456D2*
X1230397D1*
X1238967D2*
X1241486D1*
X1244533D2*
X1246501D1*
X1254250D2*
X1259042D1*
X1268155D2*
X1270123D1*
X1199581Y46688D2*
X1205095D1*
X1215005D2*
X1216974D1*
X1222879D2*
X1225832D1*
X1228663D2*
X1230621D1*
X1238753D2*
X1241204D1*
X1244533D2*
X1246501D1*
X1254818D2*
X1263491D1*
X1268155D2*
X1270123D1*
X1200287Y45703D2*
X1209885D1*
X1215005D2*
X1216974D1*
X1222879D2*
X1225832D1*
X1228879D2*
X1230844D1*
X1238534D2*
X1240900D1*
X1244533D2*
X1246501D1*
X1255543D2*
X1270123D1*
X1201259Y44719D2*
X1216974D1*
X1222879D2*
X1225832D1*
X1229161D2*
X1231124D1*
X1238256D2*
X1240596D1*
X1244533D2*
X1246501D1*
X1256344D2*
X1270123D1*
X1204322Y43735D2*
X1216974D1*
X1222879D2*
X1225832D1*
X1229465D2*
X1231398D1*
X1237982D2*
X1240267D1*
X1244533D2*
X1246501D1*
X1255061D2*
X1270123D1*
X1209103Y42751D2*
X1216974D1*
X1222879D2*
X1225832D1*
X1229769D2*
X1231612D1*
X1237769D2*
X1239968D1*
X1244533D2*
X1246501D1*
X1254077D2*
X1257366D1*
X1268155D2*
X1270123D1*
X1215005Y41766D2*
X1216974D1*
X1222879D2*
X1225832D1*
X1230098D2*
X1231831D1*
X1237550D2*
X1239744D1*
X1244533D2*
X1246501D1*
X1253364D2*
X1256511D1*
X1268155D2*
X1270123D1*
X1215005Y40782D2*
X1216974D1*
X1222879D2*
X1225832D1*
X1230397D2*
X1232113D1*
X1237268D2*
X1239521D1*
X1244533D2*
X1246501D1*
X1252854D2*
X1255801D1*
X1268155D2*
X1270123D1*
X1215005Y39798D2*
X1216974D1*
X1222879D2*
X1225832D1*
X1230621D2*
X1232417D1*
X1236963D2*
X1239241D1*
X1244533D2*
X1246501D1*
X1252466D2*
X1255233D1*
X1268155D2*
X1270123D1*
X1215005Y38814D2*
X1216974D1*
X1222879D2*
X1225832D1*
X1230844D2*
X1232721D1*
X1236659D2*
X1238967D1*
X1244533D2*
X1246501D1*
X1252136D2*
X1254824D1*
X1268155D2*
X1270123D1*
X1215005Y37829D2*
X1216974D1*
X1222879D2*
X1225832D1*
X1231128D2*
X1233055D1*
X1236326D2*
X1238753D1*
X1244533D2*
X1246501D1*
X1251870D2*
X1254618D1*
X1268155D2*
X1270123D1*
X1215005Y36845D2*
X1216974D1*
X1222879D2*
X1225832D1*
X1231433D2*
X1233387D1*
X1235993D2*
X1238534D1*
X1244533D2*
X1246501D1*
X1251975D2*
X1254628D1*
X1268155D2*
X1270123D1*
X1215005Y35861D2*
X1216974D1*
X1222879D2*
X1225832D1*
X1231737D2*
X1233729D1*
X1235651D2*
X1238252D1*
X1244533D2*
X1246501D1*
X1252147D2*
X1254850D1*
X1268155D2*
X1270123D1*
X1215005Y34877D2*
X1216974D1*
X1222879D2*
X1225832D1*
X1232066D2*
X1234169D1*
X1235212D2*
X1237947D1*
X1244533D2*
X1246501D1*
X1252316D2*
X1255284D1*
X1268155D2*
X1270123D1*
X1215005Y33892D2*
X1216974D1*
X1222879D2*
X1225832D1*
X1232365D2*
X1237644D1*
X1244533D2*
X1246501D1*
X1252554D2*
X1255899D1*
X1268155D2*
X1270123D1*
X1215005Y32908D2*
X1216974D1*
X1222879D2*
X1225832D1*
X1232589D2*
X1237314D1*
X1244533D2*
X1246501D1*
X1252993D2*
X1258402D1*
X1268155D2*
X1270123D1*
X1215005Y31924D2*
X1216974D1*
X1222879D2*
X1225832D1*
X1232813D2*
X1237019D1*
X1244533D2*
X1246501D1*
X1253697D2*
X1262686D1*
X1268155D2*
X1270123D1*
X1215005Y30940D2*
X1216974D1*
X1222879D2*
X1225832D1*
X1233102D2*
X1236829D1*
X1244533D2*
X1246501D1*
X1254678D2*
X1270123D1*
X1215005Y29955D2*
X1216974D1*
X1222879D2*
X1225832D1*
X1233413D2*
X1236726D1*
X1244533D2*
X1246501D1*
X1255929D2*
X1270123D1*
X1215005Y28971D2*
X1216974D1*
X1222879D2*
X1225832D1*
X1233706D2*
X1236659D1*
X1244533D2*
X1246501D1*
X1257328D2*
X1270123D1*
X1166890Y-32085D2*
X1171811D1*
X1187559D2*
X1193465D1*
X1206260D2*
X1224961D1*
X1229882D2*
X1231850D1*
X1246614D2*
X1248583D1*
X1261378D2*
X1267283D1*
X1165725Y-33070D2*
X1173094D1*
X1186124D2*
X1195236D1*
X1206260D2*
X1224961D1*
X1229882D2*
X1231850D1*
X1246614D2*
X1248583D1*
X1259755D2*
X1268685D1*
X1164730Y-34054D2*
X1174082D1*
X1184892D2*
X1196761D1*
X1206260D2*
X1224961D1*
X1229882D2*
X1231850D1*
X1246614D2*
X1248583D1*
X1258443D2*
X1269821D1*
X1163978Y-35038D2*
X1166931D1*
X1171770D2*
X1174825D1*
X1183894D2*
X1187905D1*
X1193267D2*
X1197946D1*
X1214134D2*
X1216102D1*
X1229882D2*
X1231850D1*
X1246614D2*
X1248583D1*
X1257422D2*
X1260431D1*
X1267280D2*
X1270674D1*
X1163469Y-36022D2*
X1166111D1*
X1172590D2*
X1175427D1*
X1183117D2*
X1186593D1*
X1194793D2*
X1198819D1*
X1214134D2*
X1216102D1*
X1229882D2*
X1231850D1*
X1246614D2*
X1248583D1*
X1256615D2*
X1259577D1*
X1268225D2*
X1271306D1*
X1163185Y-37007D2*
X1165527D1*
X1173178D2*
X1175938D1*
X1182485D2*
X1185572D1*
X1195977D2*
X1199491D1*
X1214134D2*
X1216102D1*
X1229882D2*
X1231850D1*
X1246614D2*
X1248583D1*
X1256052D2*
X1258867D1*
X1269046D2*
X1271745D1*
X1163049Y-37991D2*
X1165195D1*
X1173532D2*
X1176366D1*
X1181908D2*
X1184764D1*
X1196851D2*
X1200057D1*
X1214134D2*
X1216102D1*
X1229882D2*
X1231850D1*
X1246614D2*
X1248583D1*
X1255734D2*
X1258299D1*
X1269627D2*
X1271995D1*
X1162990Y-38975D2*
X1165038D1*
X1173780D2*
X1176732D1*
X1181309D2*
X1184198D1*
X1197523D2*
X1200544D1*
X1214134D2*
X1216102D1*
X1229882D2*
X1231850D1*
X1246614D2*
X1248583D1*
X1255580D2*
X1257883D1*
X1270015D2*
X1272118D1*
X1162970Y-39959D2*
X1165011D1*
X1180669D2*
X1183859D1*
X1198089D2*
X1200923D1*
X1214134D2*
X1216102D1*
X1229882D2*
X1231850D1*
X1246614D2*
X1248583D1*
X1255511D2*
X1257625D1*
X1270026D2*
X1272167D1*
X1163000Y-40944D2*
X1165080D1*
X1182638D2*
X1183622D1*
X1198576D2*
X1201183D1*
X1214134D2*
X1216102D1*
X1229882D2*
X1231850D1*
X1246614D2*
X1248583D1*
X1255472D2*
X1257441D1*
X1269681D2*
X1272154D1*
X1163157Y-41928D2*
X1165587D1*
X1198951D2*
X1201421D1*
X1214134D2*
X1216102D1*
X1229882D2*
X1231850D1*
X1246614D2*
X1248583D1*
X1268753D2*
X1272033D1*
X1163513Y-42912D2*
X1166820D1*
X1199176D2*
X1201706D1*
X1214134D2*
X1216102D1*
X1229882D2*
X1231850D1*
X1246614D2*
X1248583D1*
X1267388D2*
X1271757D1*
X1163962Y-43896D2*
X1168238D1*
X1199288D2*
X1201979D1*
X1214134D2*
X1216102D1*
X1229882D2*
X1231850D1*
X1246614D2*
X1248583D1*
X1265583D2*
X1271304D1*
X1164349Y-44881D2*
X1169446D1*
X1199338D2*
X1202158D1*
X1214134D2*
X1216102D1*
X1229882D2*
X1231850D1*
X1246614D2*
X1248583D1*
X1263554D2*
X1270569D1*
X1164228Y-45865D2*
X1170244D1*
X1199358D2*
X1202252D1*
X1214134D2*
X1216102D1*
X1229882D2*
X1248583D1*
X1261532D2*
X1269422D1*
X1163644Y-46849D2*
X1170827D1*
X1199366D2*
X1202295D1*
X1214134D2*
X1216102D1*
X1229882D2*
X1248583D1*
X1259667D2*
X1267870D1*
X1163013Y-47833D2*
X1168299D1*
X1199369D2*
X1202308D1*
X1214134D2*
X1216102D1*
X1229882D2*
X1248583D1*
X1258072D2*
X1265989D1*
X1162480Y-48818D2*
X1166456D1*
X1199370D2*
X1202281D1*
X1214134D2*
X1216102D1*
X1229882D2*
X1231850D1*
X1246614D2*
X1248583D1*
X1256781D2*
X1263883D1*
X1162058Y-49802D2*
X1165099D1*
X1199366D2*
X1202158D1*
X1214134D2*
X1216102D1*
X1229882D2*
X1231850D1*
X1246614D2*
X1248583D1*
X1255794D2*
X1261771D1*
X1161675Y-50786D2*
X1164532D1*
X1199332D2*
X1201923D1*
X1214134D2*
X1216102D1*
X1229882D2*
X1231850D1*
X1246614D2*
X1248583D1*
X1255028D2*
X1259937D1*
X1161361Y-51770D2*
X1164204D1*
X1181654D2*
X1182638D1*
X1199202D2*
X1201667D1*
X1214134D2*
X1216102D1*
X1229882D2*
X1231850D1*
X1246614D2*
X1248583D1*
X1254750D2*
X1258556D1*
X1161198Y-52755D2*
X1164046D1*
X1181237D2*
X1182978D1*
X1198932D2*
X1201461D1*
X1214134D2*
X1216102D1*
X1229882D2*
X1231850D1*
X1246614D2*
X1248583D1*
X1254600D2*
X1257615D1*
X1271220D2*
X1273189D1*
X1161223Y-53739D2*
X1163983D1*
X1180982D2*
X1183310D1*
X1198550D2*
X1201240D1*
X1214134D2*
X1216102D1*
X1229882D2*
X1231850D1*
X1246614D2*
X1248583D1*
X1254532D2*
X1256921D1*
X1270880D2*
X1273151D1*
X1161417Y-54723D2*
X1163994D1*
X1174764D2*
X1176732D1*
X1181186D2*
X1183660D1*
X1198105D2*
X1200928D1*
X1214134D2*
X1216102D1*
X1229882D2*
X1231850D1*
X1246614D2*
X1248583D1*
X1254508D2*
X1256723D1*
X1270549D2*
X1273021D1*
X1161686Y-55707D2*
X1164148D1*
X1174386D2*
X1176695D1*
X1181523D2*
X1184156D1*
X1197593D2*
X1200529D1*
X1214134D2*
X1216102D1*
X1229882D2*
X1231850D1*
X1246614D2*
X1248583D1*
X1254532D2*
X1256659D1*
X1270194D2*
X1272751D1*
X1161979Y-56692D2*
X1164451D1*
X1173913D2*
X1176565D1*
X1181948D2*
X1184871D1*
X1196922D2*
X1200077D1*
X1214134D2*
X1216102D1*
X1229882D2*
X1231850D1*
X1246614D2*
X1248583D1*
X1254658D2*
X1256993D1*
X1269758D2*
X1272369D1*
X1162342Y-57676D2*
X1165333D1*
X1173339D2*
X1176290D1*
X1182447D2*
X1185900D1*
X1196055D2*
X1199567D1*
X1214134D2*
X1216102D1*
X1229882D2*
X1231850D1*
X1246614D2*
X1248583D1*
X1254935D2*
X1257747D1*
X1268837D2*
X1271920D1*
X1162803Y-58660D2*
X1166785D1*
X1171861D2*
X1175870D1*
X1183061D2*
X1187582D1*
X1193844D2*
X1198949D1*
X1214134D2*
X1216102D1*
X1229882D2*
X1231850D1*
X1246614D2*
X1248583D1*
X1255389D2*
X1259646D1*
X1266474D2*
X1271374D1*
X1163429Y-59644D2*
X1169049D1*
X1169624D2*
X1175262D1*
X1183858D2*
X1190222D1*
X1190553D2*
X1198151D1*
X1214134D2*
X1216102D1*
X1229882D2*
X1231850D1*
X1246614D2*
X1248583D1*
X1256124D2*
X1262617D1*
X1262853D2*
X1270597D1*
X1164330Y-60629D2*
X1174367D1*
X1184881D2*
X1197127D1*
X1214134D2*
X1216102D1*
X1229882D2*
X1231850D1*
X1246614D2*
X1248583D1*
X1257262D2*
X1269441D1*
X1165528Y-61613D2*
X1173171D1*
X1186150D2*
X1195858D1*
X1214134D2*
X1216102D1*
X1229882D2*
X1231850D1*
X1246614D2*
X1248583D1*
X1258751D2*
X1267945D1*
X1166890Y-62597D2*
X1171811D1*
X1187559D2*
X1194449D1*
X1214134D2*
X1216102D1*
X1229882D2*
X1231850D1*
X1246614D2*
X1248583D1*
X1260394D2*
X1266299D1*
X703490Y-27350D2*
D12*
X721490D1*
X691643Y-30350D2*
X731951D1*
X681241Y-33350D2*
X741491D1*
X672675Y-36350D2*
X749622D1*
X665512Y-39350D2*
X756591D1*
X659340Y-42350D2*
X688615D1*
X736249D2*
X762673D1*
X653860Y-45350D2*
X680117D1*
X744363D2*
X768030D1*
X648757Y-48350D2*
X672347D1*
X751414D2*
X772834D1*
X644026Y-51350D2*
X665440D1*
X757540D2*
X777119D1*
X639848Y-54350D2*
X659345D1*
X763018D2*
X780863D1*
X636022Y-57350D2*
X653969D1*
X767839D2*
X784228D1*
X632431Y-60350D2*
X649154D1*
X772179D2*
X787388D1*
X629283Y-63350D2*
X644863D1*
X776272D2*
X790440D1*
X626497Y-66350D2*
X641118D1*
X779955D2*
X793359D1*
X623838Y-69350D2*
X637751D1*
X783118D2*
X795974D1*
X621374Y-72350D2*
X634603D1*
X706490D2*
X709490D1*
X785981D2*
X798153D1*
X619264Y-75350D2*
X631644D1*
X701874D2*
X714667D1*
X788541D2*
X799991D1*
X617348Y-78350D2*
X629002D1*
X696736D2*
X719966D1*
X790691D2*
X801644D1*
X615331Y-81350D2*
X626712D1*
X691172D2*
X725416D1*
X792610D2*
X803214D1*
X613065Y-84350D2*
X624490D1*
X685365D2*
X731268D1*
X794540D2*
X804833D1*
X610871Y-87350D2*
X622129D1*
X679444D2*
X699448D1*
X715490D2*
X737379D1*
X796530D2*
X806616D1*
X609126Y-90350D2*
X619895D1*
X673473D2*
X694564D1*
X721490D2*
X743327D1*
X798389D2*
X808458D1*
X607777Y-93350D2*
X618123D1*
X667496D2*
X689163D1*
X727490D2*
X749038D1*
X800084D2*
X810007D1*
X606486Y-96350D2*
X616675D1*
X661593D2*
X683749D1*
X733478D2*
X754777D1*
X801667D2*
X811252D1*
X605131Y-99350D2*
X615105D1*
X655883D2*
X678174D1*
X739384D2*
X760620D1*
X803109D2*
X812411D1*
X603796Y-102350D2*
X613401D1*
X650313D2*
X672317D1*
X745095D2*
X766543D1*
X804338D2*
X813474D1*
X602613Y-105350D2*
X611922D1*
X644641D2*
X666523D1*
X750666D2*
X772510D1*
X805411D2*
X814455D1*
X601569Y-108350D2*
X610672D1*
X638731D2*
X660876D1*
X756338D2*
X778497D1*
X806576D2*
X815492D1*
X600516Y-111350D2*
X609194D1*
X632537D2*
X655076D1*
X762236D2*
X784469D1*
X807879D2*
X816504D1*
X599590Y-114350D2*
X607300D1*
X626152D2*
X648958D1*
X768337D2*
X790233D1*
X809182D2*
X817466D1*
X598959Y-117350D2*
X603235D1*
X619926D2*
X642609D1*
X774445D2*
X795233D1*
X810253D2*
X818484D1*
X598490Y-120350D2*
D3*
X614031D2*
X636305D1*
X780316D2*
X799361D1*
X810911D2*
X819400D1*
X608385Y-123350D2*
X630135D1*
X786003D2*
X800970D1*
X811257D2*
X820119D1*
X602781Y-126350D2*
X624069D1*
X791393D2*
X801890D1*
X811511D2*
X820836D1*
X597227Y-129350D2*
X618260D1*
X796490D2*
X802490D1*
X811953D2*
X822772D1*
X591652Y-132350D2*
X613147D1*
X812695D2*
X827192D1*
X585746Y-135350D2*
X609294D1*
X679490D2*
X700490D1*
X715490D2*
X736490D1*
X813472D2*
X832499D1*
X579613Y-138350D2*
X606397D1*
X679490D2*
X700490D1*
X715490D2*
X736490D1*
X813998D2*
X838069D1*
X573657Y-141350D2*
X605408D1*
X679490D2*
X700490D1*
X715490D2*
X736490D1*
X814278D2*
X843620D1*
X567966Y-144350D2*
X589490D1*
X595490D2*
X604878D1*
X679490D2*
X683041D1*
X697490D2*
X700490D1*
X715490D2*
X721490D1*
X732938D2*
X736490D1*
X814405D2*
X820490D1*
X830079D2*
X849178D1*
X562460Y-147350D2*
X583501D1*
X595490D2*
X604641D1*
X679490D2*
X684094D1*
X697490D2*
X700490D1*
X715490D2*
X721490D1*
X731885D2*
X736490D1*
X814446D2*
X820490D1*
X834325D2*
X854481D1*
X557615Y-150350D2*
X577615D1*
X595490D2*
X604545D1*
X679490D2*
X685490D1*
X697490D2*
X700490D1*
X715490D2*
X721490D1*
X730490D2*
X736490D1*
X814361D2*
X820490D1*
X839320D2*
X858965D1*
X553577Y-153350D2*
X572079D1*
X595490D2*
X604509D1*
X679490D2*
X700490D1*
X715490D2*
X736490D1*
X813986D2*
X820490D1*
X844832D2*
X862665D1*
X551845Y-156350D2*
X567105D1*
X595501D2*
X604496D1*
X679490D2*
X700490D1*
X715490D2*
X736490D1*
X813270D2*
X820490D1*
X850613D2*
X864248D1*
X550490Y-159350D2*
X562490D1*
X595607D2*
X604503D1*
X679490D2*
X700490D1*
X715490D2*
X736490D1*
X812502D2*
X820490D1*
X856490D2*
X865490D1*
X595989Y-162350D2*
X604607D1*
X811979D2*
X820478D1*
X596708Y-165350D2*
X604989D1*
X811689D2*
X820372D1*
X597477Y-168350D2*
X605708D1*
X811456D2*
X819990D1*
X598012Y-171350D2*
X606488D1*
X811010D2*
X819260D1*
X598395Y-174350D2*
X607117D1*
X679490D2*
X700490D1*
X715490D2*
X736490D1*
X810166D2*
X818385D1*
X598917Y-177350D2*
X607778D1*
X679490D2*
X700490D1*
X715490D2*
X736490D1*
X809007D2*
X817480D1*
X599793Y-180350D2*
X608635D1*
X679490D2*
X686201D1*
X693778D2*
X700490D1*
X715490D2*
X721490D1*
X729778D2*
X736490D1*
X807751D2*
X816471D1*
X600965Y-183350D2*
X609562D1*
X679490D2*
X684447D1*
X695532D2*
X700490D1*
X715490D2*
X721490D1*
X731532D2*
X736490D1*
X806597D2*
X815469D1*
X602226Y-186350D2*
X610500D1*
X679490D2*
X684741D1*
X695238D2*
X700490D1*
X715490D2*
X721490D1*
X731238D2*
X736490D1*
X805552D2*
X814511D1*
X603381Y-189350D2*
X611609D1*
X679490D2*
X685490D1*
X694490D2*
X700490D1*
X715490D2*
X721490D1*
X730490D2*
X736490D1*
X804397D2*
X813482D1*
X604415Y-192350D2*
X612903D1*
X679490D2*
X700490D1*
X715490D2*
X736490D1*
X803086D2*
X812473D1*
X605476Y-195350D2*
X614303D1*
X679490D2*
X700490D1*
X715490D2*
X736490D1*
X801679D2*
X811501D1*
X606498Y-198350D2*
X615777D1*
X679490D2*
X700490D1*
X715490D2*
X736490D1*
X800215D2*
X810377D1*
X607476Y-201350D2*
X617364D1*
X798721D2*
X809079D1*
X608612Y-204350D2*
X619243D1*
X797118D2*
X807665D1*
X610017Y-207350D2*
X621469D1*
X795228D2*
X806109D1*
X611802Y-210350D2*
X623845D1*
X792903D2*
X804338D1*
X613983Y-213350D2*
X626260D1*
X790254D2*
X802400D1*
X616246Y-216350D2*
X628865D1*
X787498D2*
X800459D1*
X618371Y-219350D2*
X631653D1*
X784836D2*
X798380D1*
X620539Y-222350D2*
X634555D1*
X782195D2*
X795964D1*
X622992Y-225350D2*
X637514D1*
X779254D2*
X793265D1*
X625705Y-228350D2*
X640498D1*
X776011D2*
X790401D1*
X628587Y-231350D2*
X643493D1*
X772779D2*
X787457D1*
X631639Y-234350D2*
X646479D1*
X769734D2*
X784478D1*
X634989Y-237350D2*
X649373D1*
X767053D2*
X781485D1*
X638594Y-240350D2*
X651990D1*
X764857D2*
X778488D1*
X641967Y-243350D2*
X654271D1*
X763112D2*
X775501D1*
X644665Y-246350D2*
X656494D1*
X761840D2*
X772618D1*
X646780Y-249350D2*
X658926D1*
X761051D2*
X770118D1*
X648550Y-252350D2*
X768336D1*
X650084Y-255350D2*
X767320D1*
X651378Y-258350D2*
X766807D1*
X652490Y-261350D2*
X766490D1*
X655490Y-282350D2*
X763490D1*
X656041Y-285350D2*
X762716D1*
X657094Y-288350D2*
X760364D1*
X658490Y-291350D2*
X757490D1*
X673490Y-309350D2*
X742490D1*
X674041Y-312350D2*
X743943D1*
X675094Y-315350D2*
X741977D1*
X676490Y-318350D2*
X739490D1*
X-708643Y-33949D2*
X-636643D1*
X-717053Y-36949D2*
X-628233D1*
X-724808Y-39949D2*
X-620490D1*
X-731801Y-42949D2*
X-613591D1*
X-738171Y-45949D2*
X-607497D1*
X-743894Y-48949D2*
X-602111D1*
X-748865Y-51949D2*
X-597190D1*
X-753292Y-54949D2*
X-592517D1*
X-757511Y-57949D2*
X-588053D1*
X-761496Y-60949D2*
X-583918D1*
X-765104Y-63949D2*
X-580246D1*
X-768414Y-66949D2*
X-577018D1*
X-771553Y-69949D2*
X-574330D1*
X-774610Y-72949D2*
X-724863D1*
X-612643D2*
X-572292D1*
X-777619Y-75949D2*
X-736009D1*
X-579643D2*
X-570643D1*
X-780522Y-78949D2*
X-744523D1*
X-783142Y-81949D2*
X-750767D1*
X-785413Y-84949D2*
X-755412D1*
X-717643D2*
X-612643D1*
X-787539Y-87949D2*
X-759142D1*
X-716028D2*
X-589651D1*
X-789633Y-90949D2*
X-762342D1*
X-713889D2*
X-572299D1*
X-791625Y-93949D2*
X-765066D1*
X-711325D2*
X-561442D1*
X-793623Y-96949D2*
X-767273D1*
X-708519D2*
X-554239D1*
X-795653Y-99949D2*
X-769020D1*
X-705597D2*
X-551356D1*
X-797530Y-102949D2*
X-770272D1*
X-702627D2*
X-548939D1*
X-799233Y-105949D2*
X-770891D1*
X-699638D2*
X-546832D1*
X-800818Y-108949D2*
X-771055D1*
X-696641D2*
X-545181D1*
X-802262Y-111949D2*
X-769885D1*
X-693642D2*
X-543887D1*
X-803492Y-114949D2*
X-768290D1*
X-690643D2*
X-542622D1*
X-804565Y-117949D2*
X-766508D1*
X-687643D2*
X-541278D1*
X-805730Y-120949D2*
X-764494D1*
X-684643D2*
X-539948D1*
X-807033Y-123949D2*
X-762104D1*
X-681643D2*
X-538766D1*
X-808336Y-126949D2*
X-759414D1*
X-678643D2*
X-537723D1*
X-809418Y-129949D2*
X-756553D1*
X-675643D2*
X-536670D1*
X-810182Y-132949D2*
X-753610D1*
X-672655D2*
X-535752D1*
X-810898Y-135949D2*
X-750631D1*
X-669760D2*
X-535168D1*
X-811765Y-138949D2*
X-747639D1*
X-667143D2*
X-534867D1*
X-812595Y-141949D2*
X-744642D1*
X-664861D2*
X-534731D1*
X-813141Y-144949D2*
X-741643D1*
X-662630D2*
X-534676D1*
X-813427Y-147949D2*
X-738643D1*
X-660153D2*
X-534655D1*
X-813557Y-150949D2*
X-735643D1*
X-657432D2*
X-534647D1*
X-813611Y-153949D2*
X-732643D1*
X-654559D2*
X-534644D1*
X-813632Y-156949D2*
X-729643D1*
X-651612D2*
X-534643D1*
X-813639Y-159949D2*
X-726643D1*
X-648632D2*
X-534643D1*
X-813642Y-162949D2*
X-723643D1*
X-645639D2*
X-534643D1*
X-813643Y-165949D2*
X-720643D1*
X-642642D2*
X-534643D1*
X-813643Y-168949D2*
X-717655D1*
X-639643D2*
X-534643D1*
X-813643Y-171949D2*
X-714760D1*
X-636643D2*
X-534643D1*
X-813643Y-174949D2*
X-712143D1*
X-633643D2*
X-534643D1*
X-813643Y-177949D2*
X-709861D1*
X-630643D2*
X-534643D1*
X-813643Y-180949D2*
X-707630D1*
X-627643D2*
X-534643D1*
X-813643Y-183949D2*
X-705153D1*
X-624643D2*
X-534643D1*
X-813643Y-186949D2*
X-702432D1*
X-621643D2*
X-534643D1*
X-813643Y-189949D2*
X-699559D1*
X-618655D2*
X-534643D1*
X-813643Y-192949D2*
X-696612D1*
X-615760D2*
X-534643D1*
X-813643Y-195949D2*
X-693632D1*
X-613143D2*
X-534643D1*
X-813643Y-198949D2*
X-690639D1*
X-610861D2*
X-534643D1*
X-813643Y-201949D2*
X-687642D1*
X-608630D2*
X-534643D1*
X-813631Y-204949D2*
X-684643D1*
X-606153D2*
X-534643D1*
X-813526Y-207949D2*
X-681643D1*
X-603432D2*
X-534643D1*
X-813144Y-210949D2*
X-678643D1*
X-600559D2*
X-534643D1*
X-812425Y-213949D2*
X-675643D1*
X-597612D2*
X-534655D1*
X-811644Y-216949D2*
X-672643D1*
X-594632D2*
X-534760D1*
X-811015Y-219949D2*
X-669643D1*
X-591639D2*
X-535143D1*
X-810355Y-222949D2*
X-666643D1*
X-588642D2*
X-535873D1*
X-809497Y-225949D2*
X-663643D1*
X-585643D2*
X-536747D1*
X-808570Y-228949D2*
X-660643D1*
X-582655D2*
X-537653D1*
X-807633Y-231949D2*
X-657655D1*
X-579772D2*
X-538661D1*
X-806523Y-234949D2*
X-654760D1*
X-577271D2*
X-539663D1*
X-805230Y-237949D2*
X-652143D1*
X-575501D2*
X-540633D1*
X-803829Y-240949D2*
X-649861D1*
X-574318D2*
X-541756D1*
X-802367Y-243949D2*
X-647630D1*
X-574429D2*
X-543053D1*
X-800874Y-246949D2*
X-645153D1*
X-575094D2*
X-544468D1*
X-799213Y-249949D2*
X-642432D1*
X-576186D2*
X-546024D1*
X-797301Y-252949D2*
X-639559D1*
X-577516D2*
X-547795D1*
X-791813Y-255949D2*
X-636612D1*
X-579053D2*
X-549733D1*
X-782078Y-258949D2*
X-633632D1*
X-580929D2*
X-551662D1*
X-767564Y-261949D2*
X-630639D1*
X-583363D2*
X-553636D1*
X-750643Y-264949D2*
X-627643D1*
X-586532D2*
X-555669D1*
X-711643Y-267949D2*
X-636643D1*
X-590786D2*
X-557649D1*
X-596915Y-270949D2*
X-559744D1*
X-780643Y-273949D2*
X-777643D1*
X-606612D2*
X-562166D1*
X-779028Y-276949D2*
X-750643D1*
X-621621D2*
X-564866D1*
X-776889Y-279949D2*
X-711643D1*
X-641529D2*
X-567731D1*
X-774325Y-282949D2*
X-570676D1*
X-771519Y-285949D2*
X-573655D1*
X-768585Y-288949D2*
X-576659D1*
X-765510Y-291949D2*
X-579762D1*
X-762126Y-294949D2*
X-583155D1*
X-758306Y-297949D2*
X-586990D1*
X-754144Y-300949D2*
X-591247D1*
X-749786Y-303949D2*
X-595894D1*
X-745227Y-306949D2*
X-600883D1*
X-740241Y-309949D2*
X-606196D1*
X-734425Y-312949D2*
X-612101D1*
X-727560Y-315949D2*
X-618752D1*
X-719799Y-318949D2*
X-626028D1*
X-711643Y-321949D2*
X-633643D1*
X1192829Y573202D2*
D13*
X1191665Y572218D1*
X1190670Y571234D1*
X1189918Y570249D1*
X1189409Y569265D1*
X1189125Y568281D1*
X1188988Y567297D1*
X1188929Y566312D1*
X1188910Y565328D1*
X1188939Y564344D1*
X1189096Y563360D1*
X1189453Y562375D1*
X1189902Y561391D1*
X1190289Y560407D1*
X1190168Y559423D1*
X1189583Y558438D1*
X1188953Y557454D1*
X1188420Y556470D1*
X1187997Y555486D1*
X1187614Y554501D1*
X1187301Y553517D1*
X1187138Y552533D1*
X1187162Y551549D1*
X1187357Y550564D1*
X1187625Y549580D1*
X1187919Y548596D1*
X1188282Y547612D1*
X1188743Y546627D1*
X1189369Y545643D1*
X1190270Y544659D1*
X1191468Y543675D1*
X1192829Y542690D1*
X1197751Y573202D2*
X1199033Y572218D1*
X1200022Y571234D1*
X1200765Y570249D1*
X1201367Y569265D1*
X1201878Y568281D1*
X1202306Y567297D1*
X1202672Y566312D1*
X1211530Y573202D2*
Y572218D1*
Y571234D1*
Y570249D1*
Y569265D1*
Y568281D1*
Y567297D1*
Y566312D1*
Y565328D1*
Y564344D1*
Y563360D1*
Y562375D1*
Y561391D1*
Y560407D1*
Y559423D1*
Y558438D1*
Y557454D1*
Y556470D1*
Y555486D1*
Y554501D1*
Y553517D1*
Y552533D1*
Y551549D1*
Y550564D1*
Y549580D1*
Y548596D1*
Y547612D1*
Y546627D1*
Y545643D1*
Y544659D1*
Y543675D1*
Y542690D1*
X1213499Y573202D2*
X1213876Y572218D1*
X1214334Y571234D1*
X1214920Y570249D1*
X1215669Y569265D1*
X1216536Y568281D1*
X1217465Y567297D1*
X1218391Y566312D1*
X1219215Y565328D1*
X1219860Y564344D1*
X1220388Y563360D1*
X1233184Y573202D2*
X1231749Y572218D1*
X1230517Y571234D1*
X1229519Y570249D1*
X1228741Y569265D1*
X1228110Y568281D1*
X1227532Y567297D1*
X1226934Y566312D1*
X1226294Y565328D1*
X1228262Y564344D1*
X1239089Y573202D2*
X1240860Y572218D1*
X1242386Y571234D1*
X1243570Y570249D1*
X1244444Y569265D1*
X1245116Y568281D1*
X1245682Y567297D1*
X1246169Y566312D1*
X1246548Y565328D1*
X1246807Y564344D1*
X1247045Y563360D1*
X1247331Y562375D1*
X1247603Y561391D1*
X1247783Y560407D1*
X1247877Y559423D1*
X1247919Y558438D1*
X1247933Y557454D1*
X1247905Y556470D1*
X1247782Y555486D1*
X1247547Y554501D1*
X1247292Y553517D1*
X1247085Y552533D1*
X1246865Y551549D1*
X1246553Y550564D1*
X1246154Y549580D1*
X1245701Y548596D1*
X1245191Y547612D1*
X1244574Y546627D1*
X1243776Y545643D1*
X1242752Y544659D1*
X1241482Y543675D1*
X1240073Y542690D1*
X1193814Y571234D2*
X1192871Y570249D1*
X1192051Y569265D1*
X1191467Y568281D1*
X1191134Y567297D1*
X1190978Y566312D1*
X1190951Y565328D1*
X1191020Y564344D1*
X1191527Y563360D1*
X1192760Y562375D1*
X1194177Y561391D1*
X1195386Y560407D1*
X1196184Y559423D1*
X1196766Y558438D1*
X1194239Y557454D1*
X1192396Y556470D1*
X1191038Y555486D1*
X1190472Y554501D1*
X1190143Y553517D1*
X1189986Y552533D1*
X1189922Y551549D1*
X1189934Y550564D1*
X1190088Y549580D1*
X1190391Y548596D1*
X1191273Y547612D1*
X1192725Y546627D1*
X1194988Y545643D1*
X1197751Y544659D1*
X1196766Y571234D2*
X1197709Y570249D1*
X1198529Y569265D1*
X1199117Y568281D1*
X1199472Y567297D1*
X1199719Y566312D1*
X1235152Y571234D2*
X1233529Y570249D1*
X1232217Y569265D1*
X1231197Y568281D1*
X1230389Y567297D1*
X1229823Y566312D1*
X1229483Y565328D1*
X1229247Y564344D1*
X1237121Y571234D2*
X1238892Y570249D1*
X1240417Y569265D1*
X1241602Y568281D1*
X1242476Y567297D1*
X1243147Y566312D1*
X1243713Y565328D1*
X1244200Y564344D1*
X1244575Y563360D1*
X1244800Y562375D1*
X1244913Y561391D1*
X1244963Y560407D1*
X1244983Y559423D1*
X1244991Y558438D1*
X1244993Y557454D1*
X1244994Y556470D1*
X1244991Y555486D1*
X1244956Y554501D1*
X1244827Y553517D1*
X1244557Y552533D1*
X1244175Y551549D1*
X1243729Y550564D1*
X1243218Y549580D1*
X1242547Y548596D1*
X1241680Y547612D1*
X1239468Y546627D1*
X1236178Y545643D1*
X1232199Y544659D1*
X1214483Y566312D2*
Y565328D1*
Y564344D1*
Y563360D1*
Y562375D1*
Y561391D1*
Y560407D1*
Y559423D1*
Y558438D1*
Y557454D1*
Y556470D1*
Y555486D1*
Y554501D1*
Y553517D1*
Y552533D1*
Y551549D1*
Y550564D1*
Y549580D1*
Y548596D1*
Y547612D1*
Y546627D1*
Y545643D1*
Y544659D1*
Y543675D1*
Y542690D1*
X1215467Y566312D2*
X1216451Y565328D1*
X1217436Y564344D1*
X1218420Y563360D1*
X1227278Y553517D2*
X1226861Y552533D1*
X1226607Y551549D1*
X1226811Y550564D1*
X1227148Y549580D1*
X1227573Y548596D1*
X1228072Y547612D1*
X1228686Y546627D1*
X1229482Y545643D1*
X1230506Y544659D1*
X1231775Y543675D1*
X1233184Y542690D1*
X1228262Y553517D2*
X1228603Y552533D1*
X1228934Y551549D1*
X1229285Y550564D1*
X1229781Y549580D1*
X1230495Y548596D1*
X1231524Y547612D1*
X1233206Y546627D1*
X1235847Y545643D1*
X1239089Y544659D1*
X1200703Y550564D2*
X1200326Y549580D1*
X1199853Y548596D1*
X1199278Y547612D1*
X1197801Y546627D1*
X1195563Y545643D1*
X1192829Y544659D1*
X1202672Y550564D2*
X1202634Y549580D1*
X1202504Y548596D1*
X1202230Y547612D1*
X1201810Y546627D1*
X1201201Y545643D1*
X1200307Y544659D1*
X1199111Y543675D1*
X1197751Y542690D1*
X1099508Y573013D2*
Y572029D1*
Y571045D1*
Y570060D1*
Y569076D1*
Y568092D1*
Y567108D1*
Y566123D1*
Y565139D1*
Y564155D1*
Y563171D1*
Y562186D1*
Y561202D1*
Y560218D1*
Y559234D1*
Y558249D1*
Y557265D1*
Y556281D1*
Y555297D1*
Y554312D1*
Y553328D1*
Y552344D1*
X1095571D1*
Y551360D1*
Y550375D1*
Y549391D1*
X1099508D1*
Y548407D1*
Y547423D1*
Y546438D1*
Y545454D1*
Y544470D1*
Y543486D1*
Y542501D1*
X1101476Y573013D2*
X1102087Y572029D1*
X1102648Y571045D1*
X1103175Y570060D1*
X1103685Y569076D1*
X1104215Y568092D1*
X1104803Y567108D1*
X1105438Y566123D1*
X1106041Y565139D1*
X1106594Y564155D1*
X1107116Y563171D1*
X1107620Y562186D1*
X1108118Y561202D1*
X1108611Y560218D1*
X1109104Y559234D1*
X1109600Y558249D1*
X1110124Y557265D1*
X1110706Y556281D1*
X1111305Y555297D1*
X1111778Y554312D1*
X1112061Y553328D1*
X1112202Y552344D1*
X1112264Y551360D1*
X1112289Y550375D1*
X1112303Y549391D1*
X1101476D1*
Y548407D1*
Y547423D1*
Y546438D1*
Y545454D1*
Y544470D1*
Y543486D1*
Y542501D1*
X1120177Y573013D2*
Y572029D1*
Y571045D1*
Y570060D1*
Y569076D1*
Y568092D1*
Y567108D1*
Y566123D1*
Y565139D1*
Y564155D1*
Y563171D1*
Y562186D1*
Y561202D1*
Y560218D1*
Y559234D1*
Y558249D1*
Y557265D1*
Y556281D1*
Y555297D1*
Y554312D1*
Y553328D1*
Y552344D1*
Y551360D1*
Y550375D1*
Y549391D1*
Y548407D1*
Y547423D1*
Y546438D1*
Y545454D1*
Y544470D1*
Y543486D1*
Y542501D1*
X1122146Y573013D2*
X1122523Y572029D1*
X1122981Y571045D1*
X1123567Y570060D1*
X1124316Y569076D1*
X1125183Y568092D1*
X1126112Y567108D1*
X1127038Y566123D1*
X1127862Y565139D1*
X1128507Y564155D1*
X1129035Y563171D1*
X1141831Y573013D2*
X1140396Y572029D1*
X1139164Y571045D1*
X1138166Y570060D1*
X1137388Y569076D1*
X1136757Y568092D1*
X1136179Y567108D1*
X1135581Y566123D1*
X1134941Y565139D1*
X1136909Y564155D1*
X1147736Y573013D2*
X1149507Y572029D1*
X1151033Y571045D1*
X1152217Y570060D1*
X1153091Y569076D1*
X1153763Y568092D1*
X1154329Y567108D1*
X1154816Y566123D1*
X1155195Y565139D1*
X1155454Y564155D1*
X1155692Y563171D1*
X1155978Y562186D1*
X1156250Y561202D1*
X1156430Y560218D1*
X1156524Y559234D1*
X1156566Y558249D1*
X1156580Y557265D1*
X1156552Y556281D1*
X1156429Y555297D1*
X1156194Y554312D1*
X1155939Y553328D1*
X1155732Y552344D1*
X1155512Y551360D1*
X1155200Y550375D1*
X1154801Y549391D1*
X1154348Y548407D1*
X1153838Y547423D1*
X1153221Y546438D1*
X1152422Y545454D1*
X1151398Y544470D1*
X1150129Y543486D1*
X1148720Y542501D1*
X1143799Y571045D2*
X1142176Y570060D1*
X1140864Y569076D1*
X1139844Y568092D1*
X1139036Y567108D1*
X1138470Y566123D1*
X1138130Y565139D1*
X1137894Y564155D1*
X1145768Y571045D2*
X1147539Y570060D1*
X1149064Y569076D1*
X1150249Y568092D1*
X1151123Y567108D1*
X1151794Y566123D1*
X1152360Y565139D1*
X1152847Y564155D1*
X1153222Y563171D1*
X1153447Y562186D1*
X1153560Y561202D1*
X1153610Y560218D1*
X1153630Y559234D1*
X1153638Y558249D1*
X1153640Y557265D1*
X1153641Y556281D1*
X1153638Y555297D1*
X1153603Y554312D1*
X1153474Y553328D1*
X1153204Y552344D1*
X1152822Y551360D1*
X1152376Y550375D1*
X1151865Y549391D1*
X1151194Y548407D1*
X1150327Y547423D1*
X1148115Y546438D1*
X1144825Y545454D1*
X1140846Y544470D1*
X1101476Y566123D2*
Y565139D1*
Y564155D1*
Y563171D1*
Y562186D1*
Y561202D1*
Y560218D1*
Y559234D1*
Y558249D1*
Y557265D1*
Y556281D1*
Y555297D1*
Y554312D1*
Y553328D1*
X1109350Y552344D1*
X1102461Y566123D2*
X1103289Y565139D1*
X1103995Y564155D1*
X1104595Y563171D1*
X1105136Y562186D1*
X1105647Y561202D1*
X1106148Y560218D1*
X1106646Y559234D1*
X1107170Y558249D1*
X1107757Y557265D1*
X1108394Y556281D1*
X1109023Y555297D1*
X1109663Y554312D1*
X1110335Y553328D1*
X1103445Y552344D1*
X1123130Y566123D2*
Y565139D1*
Y564155D1*
Y563171D1*
Y562186D1*
Y561202D1*
Y560218D1*
Y559234D1*
Y558249D1*
Y557265D1*
Y556281D1*
Y555297D1*
Y554312D1*
Y553328D1*
Y552344D1*
Y551360D1*
Y550375D1*
Y549391D1*
Y548407D1*
Y547423D1*
Y546438D1*
Y545454D1*
Y544470D1*
Y543486D1*
Y542501D1*
X1124114Y566123D2*
X1125098Y565139D1*
X1126083Y564155D1*
X1127067Y563171D1*
X1135925Y553328D2*
X1135508Y552344D1*
X1135254Y551360D1*
X1135458Y550375D1*
X1135795Y549391D1*
X1136220Y548407D1*
X1136719Y547423D1*
X1137333Y546438D1*
X1138129Y545454D1*
X1139153Y544470D1*
X1140422Y543486D1*
X1141831Y542501D1*
X1136909Y553328D2*
X1137250Y552344D1*
X1137581Y551360D1*
X1137932Y550375D1*
X1138428Y549391D1*
X1139142Y548407D1*
X1140171Y547423D1*
X1141853Y546438D1*
X1144494Y545454D1*
X1147736Y544470D1*
X1153654Y232394D2*
X1151424Y231409D1*
X1149582Y230425D1*
X1148128Y229441D1*
X1146956Y228457D1*
X1146006Y227472D1*
X1145258Y226488D1*
X1144677Y225504D1*
X1144259Y224520D1*
X1144016Y223535D1*
X1143897Y222551D1*
X1143844Y221567D1*
X1143827Y220583D1*
X1143854Y219598D1*
X1143980Y218614D1*
X1144253Y217630D1*
X1144669Y216646D1*
X1145244Y215661D1*
X1146025Y214677D1*
X1147042Y213693D1*
X1148309Y212709D1*
X1149717Y211724D1*
X1163496Y232394D2*
X1165878Y231409D1*
X1167960Y230425D1*
X1169637Y229441D1*
X1170888Y228457D1*
X1171788Y227472D1*
X1172470Y226488D1*
X1173040Y225504D1*
X1173528Y224520D1*
X1173903Y223535D1*
X1174124Y222551D1*
X1174203Y221567D1*
X1174127Y220583D1*
X1173908Y219598D1*
X1173624Y218614D1*
X1173292Y217630D1*
X1172802Y216646D1*
X1172104Y215661D1*
X1171226Y214677D1*
X1170153Y213693D1*
X1168858Y212709D1*
X1167433Y211724D1*
X1153654Y229441D2*
X1151730Y228457D1*
X1149961Y227472D1*
X1148521Y226488D1*
X1147479Y225504D1*
X1146751Y224520D1*
X1146268Y223535D1*
X1146000Y222551D1*
X1145874Y221567D1*
X1145853Y220583D1*
X1145964Y219598D1*
X1146268Y218614D1*
X1146727Y217630D1*
X1147785Y216646D1*
X1149201Y215661D1*
X1150882Y214677D1*
X1152669Y213693D1*
X1152146Y212709D1*
X1151685Y211724D1*
X1164480Y229441D2*
X1166255Y228457D1*
X1167811Y227472D1*
X1169087Y226488D1*
X1170071Y225504D1*
X1170759Y224520D1*
X1171241Y223535D1*
X1171613Y222551D1*
X1171901Y221567D1*
X1171796Y220583D1*
X1171590Y219598D1*
X1171292Y218614D1*
X1170885Y217630D1*
X1169889Y216646D1*
X1168456Y215661D1*
X1166733Y214677D1*
X1165233Y213693D1*
X1164231Y212709D1*
X1163496Y211724D1*
X1151685Y204835D2*
X1150815Y203850D1*
X1149945Y202866D1*
X1148945Y201882D1*
X1147759Y200898D1*
X1146497Y199913D1*
X1145360Y198929D1*
X1144500Y197945D1*
X1143811Y196961D1*
X1153654Y204835D2*
X1153161Y203850D1*
X1152586Y202866D1*
X1151981Y201882D1*
X1151315Y200898D1*
X1150544Y199913D1*
X1149717Y198929D1*
X1174323D2*
Y197945D1*
Y196961D1*
X1155622Y187118D2*
X1149717Y186134D1*
X1143811Y185150D1*
Y184165D1*
Y183181D1*
Y182197D1*
Y181213D1*
Y180228D1*
Y179244D1*
Y178260D1*
Y177276D1*
Y176291D1*
Y175307D1*
Y174323D1*
Y173339D1*
X1158575Y187118D2*
X1158496Y186134D1*
X1158321Y185150D1*
X1157640Y184165D1*
X1156878Y183181D1*
X1156277Y182197D1*
X1155926Y181213D1*
X1155789Y180228D1*
X1155786Y179244D1*
X1156160Y178260D1*
X1157058Y177276D1*
X1159581Y176291D1*
X1163537Y175307D1*
X1168417Y174323D1*
X1166449Y187118D2*
X1166810Y186134D1*
X1167805Y185150D1*
X1168960Y184165D1*
X1170010Y183181D1*
X1170866Y182197D1*
X1171616Y181213D1*
X1172354Y180228D1*
X1171703Y179244D1*
X1170946Y178260D1*
X1170010Y177276D1*
X1167446Y176291D1*
X1163468Y175307D1*
X1158575Y174323D1*
X1169402Y187118D2*
X1170799Y186134D1*
X1171905Y185150D1*
X1172667Y184165D1*
X1173188Y183181D1*
X1173610Y182197D1*
X1173938Y181213D1*
X1174106Y180228D1*
X1174080Y179244D1*
X1173851Y178260D1*
X1173450Y177276D1*
X1172847Y176291D1*
X1171943Y175307D1*
X1170683Y174323D1*
X1169123Y173339D1*
X1167433Y172354D1*
X1153654Y184165D2*
X1150490Y183181D1*
X1147829Y182197D1*
X1146603Y181213D1*
X1146163Y180228D1*
X1145937Y179244D1*
X1145839Y178260D1*
X1145801Y177276D1*
X1145787Y176291D1*
X1145782Y175307D1*
X1145780Y174323D1*
Y173339D1*
X1155622Y184165D2*
X1154831Y183181D1*
X1154256Y182197D1*
X1153926Y181213D1*
X1153766Y180228D1*
X1153701Y179244D1*
X1153712Y178260D1*
X1153865Y177276D1*
X1154265Y176291D1*
X1154953Y175307D1*
X1155928Y174323D1*
X1157177Y173339D1*
X1158575Y172354D1*
X1156451Y-554693D2*
X1155017Y-555677D1*
X1153784Y-556661D1*
X1152786Y-557646D1*
X1152009Y-558630D1*
X1151381Y-559614D1*
X1150833Y-560598D1*
X1150352Y-561583D1*
X1149980Y-562567D1*
X1149756Y-563551D1*
X1149643Y-564535D1*
X1149594Y-565520D1*
X1149573Y-566504D1*
X1149566Y-567488D1*
X1149563Y-568472D1*
X1149562Y-569457D1*
Y-570441D1*
Y-571425D1*
Y-572409D1*
X1149566Y-573394D1*
X1149600Y-574378D1*
X1149726Y-575362D1*
X1149965Y-576346D1*
X1150252Y-577331D1*
X1150553Y-578315D1*
X1150918Y-579299D1*
X1151376Y-580283D1*
X1151969Y-581268D1*
X1152756Y-582252D1*
X1153776Y-583236D1*
X1155043Y-584220D1*
X1156451Y-585205D1*
X1169247Y-554693D2*
Y-555677D1*
Y-556661D1*
Y-557646D1*
Y-558630D1*
Y-559614D1*
Y-560598D1*
Y-561583D1*
Y-562567D1*
Y-563551D1*
Y-564535D1*
Y-565520D1*
Y-566504D1*
Y-567488D1*
Y-568472D1*
Y-569457D1*
Y-570441D1*
Y-571425D1*
Y-572409D1*
Y-573394D1*
Y-574378D1*
Y-575362D1*
Y-576346D1*
Y-577331D1*
Y-578315D1*
Y-579299D1*
Y-580283D1*
Y-581268D1*
Y-582252D1*
Y-583236D1*
Y-584220D1*
Y-585205D1*
X1175152Y-554693D2*
Y-555677D1*
Y-556661D1*
X1192869Y-554693D2*
Y-555677D1*
Y-556661D1*
Y-557646D1*
Y-558630D1*
Y-559614D1*
Y-560598D1*
Y-561583D1*
Y-562567D1*
Y-563551D1*
Y-564535D1*
Y-565520D1*
Y-566504D1*
Y-567488D1*
Y-568472D1*
Y-569457D1*
Y-570441D1*
Y-571425D1*
Y-572409D1*
Y-573394D1*
Y-574378D1*
Y-575362D1*
Y-576346D1*
Y-577331D1*
Y-578315D1*
Y-579299D1*
Y-580283D1*
Y-581268D1*
Y-582252D1*
Y-583236D1*
Y-584220D1*
Y-585205D1*
X1210585Y-554693D2*
Y-555677D1*
Y-556661D1*
Y-557646D1*
Y-558630D1*
Y-559614D1*
Y-560598D1*
Y-561583D1*
Y-562567D1*
Y-563551D1*
Y-564535D1*
Y-565520D1*
Y-566504D1*
Y-567488D1*
Y-568472D1*
Y-569457D1*
Y-570441D1*
Y-571425D1*
Y-572409D1*
Y-573394D1*
Y-574378D1*
Y-575362D1*
Y-576346D1*
Y-577331D1*
Y-578315D1*
Y-579299D1*
Y-580283D1*
Y-581268D1*
Y-582252D1*
Y-583236D1*
X1212554Y-554693D2*
Y-555677D1*
Y-556661D1*
Y-557646D1*
Y-558630D1*
Y-559614D1*
Y-560598D1*
Y-561583D1*
Y-562567D1*
Y-563551D1*
Y-564535D1*
Y-565520D1*
Y-566504D1*
Y-567488D1*
Y-568472D1*
Y-569457D1*
Y-570441D1*
Y-571425D1*
Y-572409D1*
Y-573394D1*
Y-574378D1*
Y-575362D1*
Y-576346D1*
Y-577331D1*
Y-578315D1*
Y-579299D1*
Y-580283D1*
Y-581268D1*
Y-582252D1*
Y-583236D1*
Y-584220D1*
Y-585205D1*
X1157436Y-556661D2*
X1156455Y-557646D1*
X1155506Y-558630D1*
X1154651Y-559614D1*
X1153941Y-560598D1*
X1153369Y-561583D1*
X1152921Y-562567D1*
X1152555Y-563551D1*
X1152200Y-564535D1*
X1151896Y-565520D1*
X1151703Y-566504D1*
X1151604Y-567488D1*
X1151559Y-568472D1*
X1151541Y-569457D1*
X1151538Y-570441D1*
X1151570Y-571425D1*
X1151695Y-572409D1*
X1151930Y-573394D1*
X1152186Y-574378D1*
X1152392Y-575362D1*
X1152613Y-576346D1*
X1152929Y-577331D1*
X1153366Y-578315D1*
X1154017Y-579299D1*
X1154912Y-580283D1*
X1157807Y-581268D1*
X1162461Y-582252D1*
X1168262Y-583236D1*
X1167278Y-556661D2*
Y-557646D1*
Y-558630D1*
Y-559614D1*
Y-560598D1*
Y-561583D1*
Y-562567D1*
Y-563551D1*
Y-564535D1*
Y-565520D1*
Y-566504D1*
Y-567488D1*
Y-568472D1*
Y-569457D1*
Y-570441D1*
Y-571425D1*
Y-572409D1*
Y-573394D1*
Y-574378D1*
Y-575362D1*
Y-576346D1*
Y-577331D1*
Y-578315D1*
Y-579299D1*
Y-580283D1*
Y-581268D1*
Y-582252D1*
X1158420Y-583236D1*
X1190900Y-556661D2*
Y-557646D1*
Y-558630D1*
Y-559614D1*
Y-560598D1*
Y-561583D1*
Y-562567D1*
Y-563551D1*
Y-564535D1*
Y-565520D1*
Y-566504D1*
Y-567488D1*
Y-568472D1*
X1176136D2*
Y-569457D1*
Y-570441D1*
X1190900D2*
Y-571425D1*
Y-572409D1*
Y-573394D1*
Y-574378D1*
Y-575362D1*
Y-576346D1*
Y-577331D1*
Y-578315D1*
Y-579299D1*
Y-580283D1*
Y-581268D1*
Y-582252D1*
Y-583236D1*
X1175152D2*
Y-584220D1*
Y-585205D1*
X1197790Y-583236D2*
Y-584220D1*
Y-585205D1*
X1144945Y-139675D2*
Y-140659D1*
Y-141643D1*
Y-142627D1*
Y-143612D1*
Y-144596D1*
Y-145580D1*
Y-146564D1*
Y-147549D1*
Y-148533D1*
Y-149517D1*
Y-150501D1*
Y-151486D1*
X1144949Y-152470D1*
X1144987Y-153454D1*
X1145155Y-154438D1*
X1145474Y-155423D1*
X1146365Y-156407D1*
X1147540Y-157391D1*
X1148882Y-158375D1*
X1175457Y-139675D2*
Y-140659D1*
Y-141643D1*
X1146913D2*
Y-142627D1*
Y-143612D1*
Y-144596D1*
Y-145580D1*
Y-146564D1*
Y-147549D1*
Y-148533D1*
X1146917Y-149517D1*
X1146952Y-150501D1*
X1147085Y-151486D1*
X1147323Y-152470D1*
X1147937Y-153454D1*
X1149847Y-154438D1*
X1152931Y-155423D1*
X1156756Y-156407D1*
X1159709Y-141643D2*
Y-142627D1*
Y-143612D1*
Y-144596D1*
Y-145580D1*
Y-146564D1*
X1159705Y-147549D1*
X1159670Y-148533D1*
X1159545Y-149517D1*
X1159305Y-150501D1*
X1159011Y-151486D1*
X1158617Y-152470D1*
X1158049Y-153454D1*
X1155994Y-154438D1*
X1152798Y-155423D1*
X1148882Y-156407D1*
X1161677Y-141643D2*
Y-142627D1*
Y-143612D1*
Y-144596D1*
X1161681Y-145580D1*
X1161719Y-146564D1*
X1161883Y-147549D1*
X1162287Y-148533D1*
X1162977Y-149517D1*
X1163965Y-150501D1*
X1165275Y-151486D1*
X1166849Y-152470D1*
X1168522Y-153454D1*
X1170174Y-154438D1*
X1171784Y-155423D1*
X1173242Y-156407D1*
X1174481Y-157391D1*
X1174981Y-158375D1*
X1175269Y-159360D1*
X1175457Y-160344D1*
X1160693Y-152470D2*
X1160499Y-153454D1*
X1160091Y-154438D1*
X1159436Y-155423D1*
X1158612Y-156407D1*
X1157699Y-157391D1*
X1156756Y-158375D1*
X1161677Y-152470D2*
X1162817Y-153454D1*
X1164084Y-154438D1*
X1165487Y-155423D1*
X1167043Y-156407D1*
X1168771Y-157391D1*
X1170620Y-158375D1*
X1172535Y-159360D1*
X1174472Y-160344D1*
X1164630Y-162312D2*
X1163116Y-163297D1*
X1161430Y-164281D1*
X1159608Y-165265D1*
X1157738Y-166249D1*
X1155920Y-167234D1*
X1154197Y-168218D1*
X1152485Y-169202D1*
X1150697Y-170186D1*
X1148897Y-171171D1*
X1147298Y-172155D1*
X1145966Y-173139D1*
X1145441Y-174123D1*
X1145141Y-175108D1*
X1144945Y-176092D1*
X1167583Y-162312D2*
Y-163297D1*
Y-164281D1*
Y-165265D1*
Y-166249D1*
Y-167234D1*
Y-168218D1*
Y-169202D1*
Y-170186D1*
Y-171171D1*
Y-172155D1*
Y-173139D1*
Y-174123D1*
X1175457D1*
Y-175108D1*
Y-176092D1*
Y-177076D1*
X1167583D1*
Y-178060D1*
Y-179045D1*
X1163646Y-165265D2*
X1162468Y-166249D1*
X1161075Y-167234D1*
X1159436Y-168218D1*
X1157631Y-169202D1*
X1155771Y-170186D1*
X1153993Y-171171D1*
X1152431Y-172155D1*
X1151096Y-173139D1*
X1149866Y-174123D1*
X1165614Y-165265D2*
Y-166249D1*
Y-167234D1*
Y-168218D1*
X1165610Y-169202D1*
X1165572Y-170186D1*
X1165408Y-171171D1*
X1165012Y-172155D1*
X1164383Y-173139D1*
X1163646Y-174123D1*
X1165614Y-176092D2*
Y-177076D1*
Y-178060D1*
Y-179045D1*
X1081915Y-138294D2*
Y-139278D1*
Y-140262D1*
Y-141247D1*
Y-142231D1*
Y-143215D1*
Y-144199D1*
Y-145184D1*
Y-146168D1*
Y-147152D1*
Y-148136D1*
Y-149121D1*
Y-150105D1*
X1081919Y-151089D1*
X1081957Y-152073D1*
X1082125Y-153058D1*
X1082443Y-154042D1*
X1083335Y-155026D1*
X1084510Y-156010D1*
X1085852Y-156995D1*
X1112427Y-138294D2*
Y-139278D1*
Y-140262D1*
X1083883D2*
Y-141247D1*
Y-142231D1*
Y-143215D1*
Y-144199D1*
Y-145184D1*
Y-146168D1*
Y-147152D1*
X1083887Y-148136D1*
X1083922Y-149121D1*
X1084055Y-150105D1*
X1084293Y-151089D1*
X1084906Y-152073D1*
X1086817Y-153058D1*
X1089901Y-154042D1*
X1093726Y-155026D1*
X1096678Y-140262D2*
Y-141247D1*
Y-142231D1*
Y-143215D1*
Y-144199D1*
Y-145184D1*
X1096675Y-146168D1*
X1096640Y-147152D1*
X1096515Y-148136D1*
X1096275Y-149121D1*
X1095980Y-150105D1*
X1095587Y-151089D1*
X1095019Y-152073D1*
X1092964Y-153058D1*
X1089767Y-154042D1*
X1085852Y-155026D1*
X1098647Y-140262D2*
Y-141247D1*
Y-142231D1*
Y-143215D1*
X1098651Y-144199D1*
X1098689Y-145184D1*
X1098853Y-146168D1*
X1099257Y-147152D1*
X1099947Y-148136D1*
X1100935Y-149121D1*
X1102245Y-150105D1*
X1103819Y-151089D1*
X1105491Y-152073D1*
X1107143Y-153058D1*
X1108754Y-154042D1*
X1110212Y-155026D1*
X1111450Y-156010D1*
X1111951Y-156995D1*
X1112238Y-157979D1*
X1112427Y-158963D1*
X1097663Y-151089D2*
X1097469Y-152073D1*
X1097061Y-153058D1*
X1096406Y-154042D1*
X1095582Y-155026D1*
X1094669Y-156010D1*
X1093726Y-156995D1*
X1098647Y-151089D2*
X1099787Y-152073D1*
X1101054Y-153058D1*
X1102457Y-154042D1*
X1104013Y-155026D1*
X1105741Y-156010D1*
X1107590Y-156995D1*
X1109505Y-157979D1*
X1111442Y-158963D1*
X1093726Y-162900D2*
X1087820Y-163885D1*
X1081915Y-164869D1*
Y-165853D1*
Y-166837D1*
Y-167822D1*
Y-168806D1*
Y-169790D1*
Y-170774D1*
Y-171759D1*
Y-172743D1*
Y-173727D1*
Y-174711D1*
Y-175696D1*
Y-176680D1*
X1096678Y-162900D2*
X1096600Y-163885D1*
X1096425Y-164869D1*
X1095743Y-165853D1*
X1094982Y-166837D1*
X1094381Y-167822D1*
X1094029Y-168806D1*
X1093893Y-169790D1*
X1093890Y-170774D1*
X1094264Y-171759D1*
X1095161Y-172743D1*
X1097684Y-173727D1*
X1101641Y-174711D1*
X1106521Y-175696D1*
X1104552Y-162900D2*
X1104914Y-163885D1*
X1105909Y-164869D1*
X1107064Y-165853D1*
X1108114Y-166837D1*
X1108970Y-167822D1*
X1109720Y-168806D1*
X1110458Y-169790D1*
X1109806Y-170774D1*
X1109050Y-171759D1*
X1108113Y-172743D1*
X1105549Y-173727D1*
X1101572Y-174711D1*
X1096678Y-175696D1*
X1107505Y-162900D2*
X1108903Y-163885D1*
X1110009Y-164869D1*
X1110771Y-165853D1*
X1111292Y-166837D1*
X1111714Y-167822D1*
X1112042Y-168806D1*
X1112210Y-169790D1*
X1112183Y-170774D1*
X1111955Y-171759D1*
X1111553Y-172743D1*
X1110951Y-173727D1*
X1110047Y-174711D1*
X1108786Y-175696D1*
X1107227Y-176680D1*
X1105537Y-177664D1*
X1091757Y-165853D2*
X1088594Y-166837D1*
X1085932Y-167822D1*
X1084707Y-168806D1*
X1084267Y-169790D1*
X1084040Y-170774D1*
X1083943Y-171759D1*
X1083904Y-172743D1*
X1083891Y-173727D1*
X1083886Y-174711D1*
X1083884Y-175696D1*
X1083883Y-176680D1*
X1093726Y-165853D2*
X1092935Y-166837D1*
X1092359Y-167822D1*
X1092030Y-168806D1*
X1091870Y-169790D1*
X1091805Y-170774D1*
X1091815Y-171759D1*
X1091969Y-172743D1*
X1092369Y-173727D1*
X1093057Y-174711D1*
X1094032Y-175696D1*
X1095281Y-176680D1*
X1096678Y-177664D1*
X1222339Y-348787D2*
X1221392Y-349772D1*
X1220538Y-350756D1*
X1219828Y-351740D1*
X1219260Y-352724D1*
X1218844Y-353709D1*
X1218585Y-354693D1*
X1218402Y-355677D1*
X1227260Y-348787D2*
X1228661Y-349772D1*
X1229798Y-350756D1*
X1230651Y-351740D1*
X1231286Y-352724D1*
X1231759Y-353709D1*
X1232136Y-354693D1*
X1232494Y-355677D1*
X1232799Y-356661D1*
X1232992Y-357646D1*
X1233092Y-358630D1*
X1233136Y-359614D1*
X1233155Y-360598D1*
X1233162Y-361583D1*
X1233164Y-362567D1*
X1233165Y-363551D1*
Y-364535D1*
Y-365520D1*
Y-366504D1*
Y-367488D1*
Y-368472D1*
X1233162Y-369457D1*
X1233127Y-370441D1*
X1232998Y-371425D1*
X1232727Y-372409D1*
X1232346Y-373394D1*
X1231900Y-374378D1*
X1231388Y-375362D1*
X1230738Y-376346D1*
X1229826Y-377331D1*
X1228623Y-378315D1*
X1227260Y-379299D1*
X1243008Y-348787D2*
X1241725Y-349772D1*
X1240737Y-350756D1*
X1239994Y-351740D1*
X1239393Y-352724D1*
X1238890Y-353709D1*
X1238509Y-354693D1*
X1238286Y-355677D1*
X1238207Y-356661D1*
X1238283Y-357646D1*
X1238502Y-358630D1*
X1238785Y-359614D1*
X1239118Y-360598D1*
X1239615Y-361583D1*
X1240384Y-362567D1*
X1241529Y-363551D1*
X1243121Y-364535D1*
X1244976Y-365520D1*
X1244030Y-366504D1*
X1243175Y-367488D1*
X1242462Y-368472D1*
X1241859Y-369457D1*
X1241317Y-370441D1*
X1240802Y-371425D1*
X1240270Y-372409D1*
X1239682Y-373394D1*
X1239047Y-374378D1*
X1238444Y-375362D1*
X1237887Y-376346D1*
X1237339Y-377331D1*
X1236752Y-378315D1*
X1236118Y-379299D1*
X1257772Y-348787D2*
Y-349772D1*
Y-350756D1*
Y-351740D1*
Y-352724D1*
Y-353709D1*
Y-354693D1*
Y-355677D1*
Y-356661D1*
Y-357646D1*
Y-358630D1*
Y-359614D1*
Y-360598D1*
Y-361583D1*
Y-362567D1*
Y-363551D1*
Y-364535D1*
Y-365520D1*
Y-366504D1*
Y-367488D1*
Y-368472D1*
Y-369457D1*
Y-370441D1*
Y-371425D1*
Y-372409D1*
Y-373394D1*
Y-374378D1*
Y-375362D1*
Y-376346D1*
Y-377331D1*
Y-378315D1*
Y-379299D1*
X1225291Y-350756D2*
X1223706Y-351740D1*
X1222517Y-352724D1*
X1221704Y-353709D1*
X1221032Y-354693D1*
X1220370Y-355677D1*
X1226276Y-350756D2*
X1227256Y-351740D1*
X1228202Y-352724D1*
X1229022Y-353709D1*
X1229611Y-354693D1*
X1229978Y-355677D1*
X1230264Y-356661D1*
X1230569Y-357646D1*
X1230849Y-358630D1*
X1231027Y-359614D1*
X1231084Y-360598D1*
X1230975Y-361583D1*
X1230657Y-362567D1*
X1230213Y-363551D1*
X1245961Y-350756D2*
X1244342Y-351740D1*
X1243064Y-352724D1*
X1242169Y-353709D1*
X1241498Y-354693D1*
X1241262Y-355677D1*
X1241138Y-356661D1*
X1241119Y-357646D1*
X1241259Y-358630D1*
X1241555Y-359614D1*
X1242400Y-360598D1*
X1245160Y-361583D1*
X1249840Y-362567D1*
X1255803Y-363551D1*
Y-350756D2*
Y-351740D1*
Y-352724D1*
Y-353709D1*
Y-354693D1*
Y-355677D1*
Y-356661D1*
Y-357646D1*
Y-358630D1*
Y-359614D1*
Y-360598D1*
Y-361583D1*
Y-362567D1*
X1244976Y-363551D1*
X1222339Y-360598D2*
X1221358Y-361583D1*
X1220412Y-362567D1*
X1219588Y-363551D1*
X1218969Y-364535D1*
X1218511Y-365520D1*
X1218115Y-366504D1*
X1217793Y-367488D1*
X1217598Y-368472D1*
X1217531Y-369457D1*
X1217611Y-370441D1*
X1217832Y-371425D1*
X1218112Y-372409D1*
X1218410Y-373394D1*
X1218775Y-374378D1*
X1219236Y-375362D1*
X1219862Y-376346D1*
X1220763Y-377331D1*
X1221962Y-378315D1*
X1223323Y-379299D1*
X1227260Y-360598D2*
X1228425Y-361583D1*
X1229755Y-362567D1*
X1231197Y-363551D1*
X1225291Y-362567D2*
X1223672Y-363551D1*
X1222395Y-364535D1*
X1221500Y-365520D1*
X1220829Y-366504D1*
X1220593Y-367488D1*
X1220465Y-368472D1*
X1220407Y-369457D1*
X1220388Y-370441D1*
X1220413Y-371425D1*
X1220543Y-372409D1*
X1220866Y-373394D1*
X1221363Y-374378D1*
X1222930Y-375362D1*
X1225331Y-376346D1*
X1228244Y-377331D1*
X1225291Y-362567D2*
X1227025Y-363551D1*
X1228420Y-364535D1*
X1229493Y-365520D1*
X1229904Y-366504D1*
X1230226Y-367488D1*
X1230517Y-368472D1*
X1230680Y-369457D1*
X1230625Y-370441D1*
X1230431Y-371425D1*
X1230139Y-372409D1*
X1229654Y-373394D1*
X1228855Y-374378D1*
X1227560Y-375362D1*
X1225632Y-376346D1*
X1223323Y-377331D1*
X1248913Y-365520D2*
X1247933Y-366504D1*
X1246983Y-367488D1*
X1246128Y-368472D1*
X1245414Y-369457D1*
X1244808Y-370441D1*
X1244235Y-371425D1*
X1243629Y-372409D1*
X1242987Y-373394D1*
X1242382Y-374378D1*
X1241828Y-375362D1*
X1241308Y-376346D1*
X1240830Y-377331D1*
X1240415Y-378315D1*
X1240055Y-379299D1*
X1255803Y-365520D2*
Y-366504D1*
Y-367488D1*
Y-368472D1*
Y-369457D1*
Y-370441D1*
Y-371425D1*
Y-372409D1*
Y-373394D1*
Y-374378D1*
Y-375362D1*
Y-376346D1*
Y-377331D1*
Y-378315D1*
Y-379299D1*
X1199188Y13314D2*
Y12329D1*
Y11345D1*
X1216904Y13314D2*
Y12329D1*
Y11345D1*
Y10361D1*
Y9377D1*
Y8392D1*
Y7408D1*
Y6424D1*
Y5440D1*
Y4455D1*
Y3471D1*
Y2487D1*
Y1503D1*
Y518D1*
Y-466D1*
Y-1450D1*
Y-2434D1*
Y-3419D1*
Y-4403D1*
Y-5387D1*
Y-6371D1*
Y-7356D1*
Y-8340D1*
Y-9324D1*
Y-10308D1*
Y-11293D1*
Y-12277D1*
Y-13261D1*
Y-14245D1*
Y-15230D1*
Y-16214D1*
Y-17198D1*
X1222810Y13314D2*
Y12329D1*
Y11345D1*
Y10361D1*
Y9377D1*
Y8392D1*
Y7408D1*
Y6424D1*
Y5440D1*
Y4455D1*
Y3471D1*
Y2487D1*
Y1503D1*
Y518D1*
Y-466D1*
Y-1450D1*
Y-2434D1*
Y-3419D1*
Y-4403D1*
Y-5387D1*
Y-6371D1*
Y-7356D1*
Y-8340D1*
Y-9324D1*
Y-10308D1*
Y-11293D1*
Y-12277D1*
Y-13261D1*
Y-14245D1*
Y-15230D1*
Y-16214D1*
Y-17198D1*
X1226747Y13314D2*
X1227087Y12329D1*
X1227415Y11345D1*
X1227727Y10361D1*
X1228059Y9377D1*
X1228358Y8392D1*
X1228582Y7408D1*
X1228806Y6424D1*
X1229090Y5440D1*
X1229395Y4455D1*
X1229699Y3471D1*
X1230028Y2487D1*
X1230327Y1503D1*
X1230551Y518D1*
X1230775Y-466D1*
X1231054Y-1450D1*
X1231329Y-2434D1*
X1231542Y-3419D1*
X1231761Y-4403D1*
X1232043Y-5387D1*
X1232348Y-6371D1*
X1232652Y-7356D1*
X1232985Y-8340D1*
X1233318Y-9324D1*
X1233660Y-10308D1*
X1234099Y-11293D1*
X1234621Y-12277D1*
X1242495Y13314D2*
X1242037Y12329D1*
X1241719Y11345D1*
X1241451Y10361D1*
X1241148Y9377D1*
X1240835Y8392D1*
X1240528Y7408D1*
X1240198Y6424D1*
X1239899Y5440D1*
X1239675Y4455D1*
X1239451Y3471D1*
X1239171Y2487D1*
X1238897Y1503D1*
X1238684Y518D1*
X1238465Y-466D1*
X1238186Y-1450D1*
X1237912Y-2434D1*
X1237699Y-3419D1*
X1237480Y-4403D1*
X1237198Y-5387D1*
X1236894Y-6371D1*
X1236590Y-7356D1*
X1236256Y-8340D1*
X1235924Y-9324D1*
X1235582Y-10308D1*
X1235142Y-11293D1*
X1234621Y-12277D1*
X1246432Y13314D2*
Y12329D1*
Y11345D1*
Y10361D1*
Y9377D1*
Y8392D1*
Y7408D1*
Y6424D1*
Y5440D1*
Y4455D1*
Y3471D1*
Y2487D1*
Y1503D1*
Y518D1*
Y-466D1*
Y-1450D1*
Y-2434D1*
Y-3419D1*
Y-4403D1*
Y-5387D1*
Y-6371D1*
Y-7356D1*
Y-8340D1*
Y-9324D1*
Y-10308D1*
Y-11293D1*
Y-12277D1*
Y-13261D1*
Y-14245D1*
Y-15230D1*
Y-16214D1*
Y-17198D1*
X1258243Y13314D2*
X1256842Y12329D1*
X1255705Y11345D1*
X1254852Y10361D1*
X1254220Y9377D1*
X1253782Y8392D1*
X1253531Y7408D1*
X1253409Y6424D1*
X1253359Y5440D1*
X1253372Y4455D1*
X1253494Y3471D1*
X1253765Y2487D1*
X1254180Y1503D1*
X1254748Y518D1*
X1255474Y-466D1*
X1256274Y-1450D1*
X1254992Y-2434D1*
X1254007Y-3419D1*
X1253295Y-4403D1*
X1252784Y-5387D1*
X1252396Y-6371D1*
X1252067Y-7356D1*
X1251800Y-8340D1*
X1251905Y-9324D1*
X1252077Y-10308D1*
X1252247Y-11293D1*
X1252485Y-12277D1*
X1252923Y-13261D1*
X1253627Y-14245D1*
X1254609Y-15230D1*
X1255860Y-16214D1*
X1257259Y-17198D1*
X1270054Y13314D2*
Y12329D1*
Y11345D1*
Y10361D1*
Y9377D1*
Y8392D1*
Y7408D1*
Y6424D1*
Y5440D1*
Y4455D1*
Y3471D1*
Y2487D1*
Y1503D1*
Y518D1*
Y-466D1*
Y-1450D1*
Y-2434D1*
Y-3419D1*
Y-4403D1*
Y-5387D1*
Y-6371D1*
Y-7356D1*
Y-8340D1*
Y-9324D1*
Y-10308D1*
Y-11293D1*
Y-12277D1*
Y-13261D1*
Y-14245D1*
Y-15230D1*
Y-16214D1*
Y-17198D1*
X1214936Y11345D2*
Y10361D1*
Y9377D1*
Y8392D1*
Y7408D1*
Y6424D1*
Y5440D1*
Y4455D1*
Y3471D1*
Y2487D1*
Y1503D1*
Y518D1*
Y-466D1*
X1260211Y11345D2*
X1258592Y10361D1*
X1257315Y9377D1*
X1256420Y8392D1*
X1255749Y7408D1*
X1255517Y6424D1*
X1255423Y5440D1*
X1255499Y4455D1*
X1255707Y3471D1*
X1256377Y2487D1*
X1258973Y1503D1*
X1263421Y518D1*
X1269070Y-466D1*
X1268085Y11345D2*
Y10361D1*
Y9377D1*
Y8392D1*
Y7408D1*
Y6424D1*
Y5440D1*
Y4455D1*
Y3471D1*
Y2487D1*
Y1503D1*
Y518D1*
X1259227Y-466D1*
X1242495Y7408D2*
X1242457Y6424D1*
X1242331Y5440D1*
X1242095Y4455D1*
X1241839Y3471D1*
X1241633Y2487D1*
X1241416Y1503D1*
X1241135Y518D1*
X1240830Y-466D1*
X1240527Y-1450D1*
X1240197Y-2434D1*
X1239898Y-3419D1*
X1239675Y-4403D1*
X1239451Y-5387D1*
X1239171Y-6371D1*
X1238897Y-7356D1*
X1238684Y-8340D1*
X1238465Y-9324D1*
X1238182Y-10308D1*
X1237878Y-11293D1*
X1237574Y-12277D1*
X1237245Y-13261D1*
X1236950Y-14245D1*
X1236760Y-15230D1*
X1236656Y-16214D1*
X1236589Y-17198D1*
X1244463Y7408D2*
Y6424D1*
Y5440D1*
Y4455D1*
Y3471D1*
Y2487D1*
Y1503D1*
Y518D1*
Y-466D1*
Y-1450D1*
Y-2434D1*
Y-3419D1*
Y-4403D1*
Y-5387D1*
Y-6371D1*
Y-7356D1*
Y-8340D1*
Y-9324D1*
Y-10308D1*
Y-11293D1*
Y-12277D1*
Y-13261D1*
Y-14245D1*
Y-15230D1*
Y-16214D1*
Y-17198D1*
X1225762Y6424D2*
Y5440D1*
Y4455D1*
Y3471D1*
Y2487D1*
Y1503D1*
Y518D1*
Y-466D1*
Y-1450D1*
Y-2434D1*
Y-3419D1*
Y-4403D1*
Y-5387D1*
Y-6371D1*
Y-7356D1*
Y-8340D1*
Y-9324D1*
Y-10308D1*
Y-11293D1*
Y-12277D1*
Y-13261D1*
Y-14245D1*
Y-15230D1*
Y-16214D1*
Y-17198D1*
X1227731Y6424D2*
X1227735Y5440D1*
X1227769Y4455D1*
X1227895Y3471D1*
X1228131Y2487D1*
X1228387Y1503D1*
X1228593Y518D1*
X1228810Y-466D1*
X1229091Y-1450D1*
X1229395Y-2434D1*
X1229699Y-3419D1*
X1230028Y-4403D1*
X1230327Y-5387D1*
X1230551Y-6371D1*
X1230775Y-7356D1*
X1231058Y-8340D1*
X1231363Y-9324D1*
X1231667Y-10308D1*
X1231997Y-11293D1*
X1232296Y-12277D1*
X1232520Y-13261D1*
X1232744Y-14245D1*
X1233032Y-15230D1*
X1233344Y-16214D1*
X1233636Y-17198D1*
X1200172Y-466D2*
Y-1450D1*
Y-2434D1*
X1214936D2*
Y-3419D1*
Y-4403D1*
Y-5387D1*
Y-6371D1*
Y-7356D1*
Y-8340D1*
Y-9324D1*
Y-10308D1*
Y-11293D1*
Y-12277D1*
Y-13261D1*
Y-14245D1*
Y-15230D1*
X1258243Y-2434D2*
X1257296Y-3419D1*
X1256442Y-4403D1*
X1255732Y-5387D1*
X1255164Y-6371D1*
X1254755Y-7356D1*
X1254548Y-8340D1*
X1254559Y-9324D1*
X1254781Y-10308D1*
X1255215Y-11293D1*
X1255829Y-12277D1*
X1258332Y-13261D1*
X1262616Y-14245D1*
X1268085Y-15230D1*
Y-2434D2*
Y-3419D1*
Y-4403D1*
Y-5387D1*
Y-6371D1*
Y-7356D1*
Y-8340D1*
Y-9324D1*
Y-10308D1*
Y-11293D1*
Y-12277D1*
Y-13261D1*
Y-14245D1*
X1258243Y-15230D1*
X1199188D2*
Y-16214D1*
Y-17198D1*
X1203194Y59483D2*
X1201912Y58499D1*
X1200923Y57514D1*
X1200180Y56530D1*
X1199579Y55546D1*
X1199077Y54562D1*
X1198696Y53577D1*
X1198469Y52593D1*
X1198359Y51609D1*
X1198344Y50625D1*
X1198453Y49640D1*
X1198715Y48656D1*
X1199098Y47672D1*
X1199581Y46688D1*
X1200287Y45703D1*
X1201259Y44719D1*
X1204322Y43735D1*
X1209103Y42751D1*
X1215005Y41766D1*
Y40782D1*
Y39798D1*
Y38814D1*
Y37829D1*
Y36845D1*
Y35861D1*
Y34877D1*
Y33892D1*
Y32908D1*
Y31924D1*
Y30940D1*
Y29955D1*
Y28971D1*
X1216974Y59483D2*
Y58499D1*
Y57514D1*
Y56530D1*
Y55546D1*
Y54562D1*
Y53577D1*
Y52593D1*
Y51609D1*
Y50625D1*
Y49640D1*
Y48656D1*
Y47672D1*
Y46688D1*
Y45703D1*
Y44719D1*
Y43735D1*
Y42751D1*
Y41766D1*
Y40782D1*
Y39798D1*
Y38814D1*
Y37829D1*
Y36845D1*
Y35861D1*
Y34877D1*
Y33892D1*
Y32908D1*
Y31924D1*
Y30940D1*
Y29955D1*
Y28971D1*
X1222879Y59483D2*
Y58499D1*
Y57514D1*
Y56530D1*
Y55546D1*
Y54562D1*
Y53577D1*
Y52593D1*
Y51609D1*
Y50625D1*
Y49640D1*
Y48656D1*
Y47672D1*
Y46688D1*
Y45703D1*
Y44719D1*
Y43735D1*
Y42751D1*
Y41766D1*
Y40782D1*
Y39798D1*
Y38814D1*
Y37829D1*
Y36845D1*
Y35861D1*
Y34877D1*
Y33892D1*
Y32908D1*
Y31924D1*
Y30940D1*
Y29955D1*
Y28971D1*
X1226816Y59483D2*
X1227157Y58499D1*
X1227484Y57514D1*
X1227796Y56530D1*
X1228128Y55546D1*
X1228428Y54562D1*
X1228652Y53577D1*
X1228876Y52593D1*
X1229159Y51609D1*
X1229464Y50625D1*
X1229768Y49640D1*
X1230098Y48656D1*
X1230397Y47672D1*
X1230621Y46688D1*
X1230844Y45703D1*
X1231124Y44719D1*
X1231398Y43735D1*
X1231612Y42751D1*
X1231831Y41766D1*
X1232113Y40782D1*
X1232417Y39798D1*
X1232721Y38814D1*
X1233055Y37829D1*
X1233387Y36845D1*
X1233729Y35861D1*
X1234169Y34877D1*
X1234690Y33892D1*
X1242564Y59483D2*
X1242106Y58499D1*
X1241789Y57514D1*
X1241520Y56530D1*
X1241217Y55546D1*
X1240905Y54562D1*
X1240598Y53577D1*
X1240267Y52593D1*
X1239968Y51609D1*
X1239744Y50625D1*
X1239521Y49640D1*
X1239241Y48656D1*
X1238967Y47672D1*
X1238753Y46688D1*
X1238534Y45703D1*
X1238256Y44719D1*
X1237982Y43735D1*
X1237769Y42751D1*
X1237550Y41766D1*
X1237268Y40782D1*
X1236963Y39798D1*
X1236659Y38814D1*
X1236326Y37829D1*
X1235993Y36845D1*
X1235651Y35861D1*
X1235212Y34877D1*
X1234690Y33892D1*
X1246501Y59483D2*
Y58499D1*
Y57514D1*
Y56530D1*
Y55546D1*
Y54562D1*
Y53577D1*
Y52593D1*
Y51609D1*
Y50625D1*
Y49640D1*
Y48656D1*
Y47672D1*
Y46688D1*
Y45703D1*
Y44719D1*
Y43735D1*
Y42751D1*
Y41766D1*
Y40782D1*
Y39798D1*
Y38814D1*
Y37829D1*
Y36845D1*
Y35861D1*
Y34877D1*
Y33892D1*
Y32908D1*
Y31924D1*
Y30940D1*
Y29955D1*
Y28971D1*
X1258312Y59483D2*
X1256911Y58499D1*
X1255774Y57514D1*
X1254921Y56530D1*
X1254290Y55546D1*
X1253851Y54562D1*
X1253601Y53577D1*
X1253478Y52593D1*
X1253429Y51609D1*
X1253442Y50625D1*
X1253563Y49640D1*
X1253834Y48656D1*
X1254250Y47672D1*
X1254818Y46688D1*
X1255543Y45703D1*
X1256344Y44719D1*
X1255061Y43735D1*
X1254077Y42751D1*
X1253364Y41766D1*
X1252854Y40782D1*
X1252466Y39798D1*
X1252136Y38814D1*
X1251870Y37829D1*
X1251975Y36845D1*
X1252147Y35861D1*
X1252316Y34877D1*
X1252554Y33892D1*
X1252993Y32908D1*
X1253697Y31924D1*
X1254678Y30940D1*
X1255929Y29955D1*
X1257328Y28971D1*
X1270123Y59483D2*
Y58499D1*
Y57514D1*
Y56530D1*
Y55546D1*
Y54562D1*
Y53577D1*
Y52593D1*
Y51609D1*
Y50625D1*
Y49640D1*
Y48656D1*
Y47672D1*
Y46688D1*
Y45703D1*
Y44719D1*
Y43735D1*
Y42751D1*
Y41766D1*
Y40782D1*
Y39798D1*
Y38814D1*
Y37829D1*
Y36845D1*
Y35861D1*
Y34877D1*
Y33892D1*
Y32908D1*
Y31924D1*
Y30940D1*
Y29955D1*
Y28971D1*
X1206147Y57514D2*
X1204528Y56530D1*
X1203250Y55546D1*
X1202355Y54562D1*
X1201684Y53577D1*
X1201449Y52593D1*
X1201325Y51609D1*
X1201301Y50625D1*
X1201411Y49640D1*
X1201638Y48656D1*
X1202327Y47672D1*
X1205095Y46688D1*
X1209885Y45703D1*
X1215990Y44719D1*
X1215005Y57514D2*
Y56530D1*
Y55546D1*
Y54562D1*
Y53577D1*
Y52593D1*
Y51609D1*
Y50625D1*
Y49640D1*
Y48656D1*
Y47672D1*
Y46688D1*
Y45703D1*
X1205163Y44719D1*
X1260281Y57514D2*
X1258662Y56530D1*
X1257384Y55546D1*
X1256489Y54562D1*
X1255818Y53577D1*
X1255586Y52593D1*
X1255493Y51609D1*
X1255568Y50625D1*
X1255777Y49640D1*
X1256447Y48656D1*
X1259042Y47672D1*
X1263491Y46688D1*
X1269139Y45703D1*
X1268155Y57514D2*
Y56530D1*
Y55546D1*
Y54562D1*
Y53577D1*
Y52593D1*
Y51609D1*
Y50625D1*
Y49640D1*
Y48656D1*
Y47672D1*
Y46688D1*
X1259297Y45703D1*
X1242564Y53577D2*
X1242527Y52593D1*
X1242401Y51609D1*
X1242165Y50625D1*
X1241909Y49640D1*
X1241702Y48656D1*
X1241486Y47672D1*
X1241204Y46688D1*
X1240900Y45703D1*
X1240596Y44719D1*
X1240267Y43735D1*
X1239968Y42751D1*
X1239744Y41766D1*
X1239521Y40782D1*
X1239241Y39798D1*
X1238967Y38814D1*
X1238753Y37829D1*
X1238534Y36845D1*
X1238252Y35861D1*
X1237947Y34877D1*
X1237644Y33892D1*
X1237314Y32908D1*
X1237019Y31924D1*
X1236829Y30940D1*
X1236726Y29955D1*
X1236659Y28971D1*
X1244533Y53577D2*
Y52593D1*
Y51609D1*
Y50625D1*
Y49640D1*
Y48656D1*
Y47672D1*
Y46688D1*
Y45703D1*
Y44719D1*
Y43735D1*
Y42751D1*
Y41766D1*
Y40782D1*
Y39798D1*
Y38814D1*
Y37829D1*
Y36845D1*
Y35861D1*
Y34877D1*
Y33892D1*
Y32908D1*
Y31924D1*
Y30940D1*
Y29955D1*
Y28971D1*
X1225832Y52593D2*
Y51609D1*
Y50625D1*
Y49640D1*
Y48656D1*
Y47672D1*
Y46688D1*
Y45703D1*
Y44719D1*
Y43735D1*
Y42751D1*
Y41766D1*
Y40782D1*
Y39798D1*
Y38814D1*
Y37829D1*
Y36845D1*
Y35861D1*
Y34877D1*
Y33892D1*
Y32908D1*
Y31924D1*
Y30940D1*
Y29955D1*
Y28971D1*
X1227801Y52593D2*
X1227804Y51609D1*
X1227839Y50625D1*
X1227964Y49640D1*
X1228200Y48656D1*
X1228456Y47672D1*
X1228663Y46688D1*
X1228879Y45703D1*
X1229161Y44719D1*
X1229465Y43735D1*
X1229769Y42751D1*
X1230098Y41766D1*
X1230397Y40782D1*
X1230621Y39798D1*
X1230844Y38814D1*
X1231128Y37829D1*
X1231433Y36845D1*
X1231737Y35861D1*
X1232066Y34877D1*
X1232365Y33892D1*
X1232589Y32908D1*
X1232813Y31924D1*
X1233102Y30940D1*
X1233413Y29955D1*
X1233706Y28971D1*
X1258312Y43735D2*
X1257366Y42751D1*
X1256511Y41766D1*
X1255801Y40782D1*
X1255233Y39798D1*
X1254824Y38814D1*
X1254618Y37829D1*
X1254628Y36845D1*
X1254850Y35861D1*
X1255284Y34877D1*
X1255899Y33892D1*
X1258402Y32908D1*
X1262686Y31924D1*
X1268155Y30940D1*
Y43735D2*
Y42751D1*
Y41766D1*
Y40782D1*
Y39798D1*
Y38814D1*
Y37829D1*
Y36845D1*
Y35861D1*
Y34877D1*
Y33892D1*
Y32908D1*
Y31924D1*
X1258312Y30940D1*
X1166890Y-32085D2*
X1165725Y-33070D1*
X1164730Y-34054D1*
X1163978Y-35038D1*
X1163469Y-36022D1*
X1163185Y-37007D1*
X1163049Y-37991D1*
X1162990Y-38975D1*
X1162970Y-39959D1*
X1163000Y-40944D1*
X1163157Y-41928D1*
X1163513Y-42912D1*
X1163962Y-43896D1*
X1164349Y-44881D1*
X1164228Y-45865D1*
X1163644Y-46849D1*
X1163013Y-47833D1*
X1162480Y-48818D1*
X1162058Y-49802D1*
X1161675Y-50786D1*
X1161361Y-51770D1*
X1161198Y-52755D1*
X1161223Y-53739D1*
X1161417Y-54723D1*
X1161686Y-55707D1*
X1161979Y-56692D1*
X1162342Y-57676D1*
X1162803Y-58660D1*
X1163429Y-59644D1*
X1164330Y-60629D1*
X1165528Y-61613D1*
X1166890Y-62597D1*
X1171811Y-32085D2*
X1173094Y-33070D1*
X1174082Y-34054D1*
X1174825Y-35038D1*
X1175427Y-36022D1*
X1175938Y-37007D1*
X1176366Y-37991D1*
X1176732Y-38975D1*
X1187559Y-32085D2*
X1186124Y-33070D1*
X1184892Y-34054D1*
X1183894Y-35038D1*
X1183117Y-36022D1*
X1182485Y-37007D1*
X1181908Y-37991D1*
X1181309Y-38975D1*
X1180669Y-39959D1*
X1182638Y-40944D1*
X1193465Y-32085D2*
X1195236Y-33070D1*
X1196761Y-34054D1*
X1197946Y-35038D1*
X1198819Y-36022D1*
X1199491Y-37007D1*
X1200057Y-37991D1*
X1200544Y-38975D1*
X1200923Y-39959D1*
X1201183Y-40944D1*
X1201421Y-41928D1*
X1201706Y-42912D1*
X1201979Y-43896D1*
X1202158Y-44881D1*
X1202252Y-45865D1*
X1202295Y-46849D1*
X1202308Y-47833D1*
X1202281Y-48818D1*
X1202158Y-49802D1*
X1201923Y-50786D1*
X1201667Y-51770D1*
X1201461Y-52755D1*
X1201240Y-53739D1*
X1200928Y-54723D1*
X1200529Y-55707D1*
X1200077Y-56692D1*
X1199567Y-57676D1*
X1198949Y-58660D1*
X1198151Y-59644D1*
X1197127Y-60629D1*
X1195858Y-61613D1*
X1194449Y-62597D1*
X1206260Y-32085D2*
Y-33070D1*
Y-34054D1*
Y-35038D1*
X1214134D1*
Y-36022D1*
Y-37007D1*
Y-37991D1*
Y-38975D1*
Y-39959D1*
Y-40944D1*
Y-41928D1*
Y-42912D1*
Y-43896D1*
Y-44881D1*
Y-45865D1*
Y-46849D1*
Y-47833D1*
Y-48818D1*
Y-49802D1*
Y-50786D1*
Y-51770D1*
Y-52755D1*
Y-53739D1*
Y-54723D1*
Y-55707D1*
Y-56692D1*
Y-57676D1*
Y-58660D1*
Y-59644D1*
Y-60629D1*
Y-61613D1*
Y-62597D1*
X1224961Y-32085D2*
Y-33070D1*
Y-34054D1*
Y-35038D1*
X1216102D1*
Y-36022D1*
Y-37007D1*
Y-37991D1*
Y-38975D1*
Y-39959D1*
Y-40944D1*
Y-41928D1*
Y-42912D1*
Y-43896D1*
Y-44881D1*
Y-45865D1*
Y-46849D1*
Y-47833D1*
Y-48818D1*
Y-49802D1*
Y-50786D1*
Y-51770D1*
Y-52755D1*
Y-53739D1*
Y-54723D1*
Y-55707D1*
Y-56692D1*
Y-57676D1*
Y-58660D1*
Y-59644D1*
Y-60629D1*
Y-61613D1*
Y-62597D1*
X1229882Y-32085D2*
Y-33070D1*
Y-34054D1*
Y-35038D1*
Y-36022D1*
Y-37007D1*
Y-37991D1*
Y-38975D1*
Y-39959D1*
Y-40944D1*
Y-41928D1*
Y-42912D1*
Y-43896D1*
Y-44881D1*
Y-45865D1*
Y-46849D1*
Y-47833D1*
Y-48818D1*
Y-49802D1*
Y-50786D1*
Y-51770D1*
Y-52755D1*
Y-53739D1*
Y-54723D1*
Y-55707D1*
Y-56692D1*
Y-57676D1*
Y-58660D1*
Y-59644D1*
Y-60629D1*
Y-61613D1*
Y-62597D1*
X1231850Y-32085D2*
Y-33070D1*
Y-34054D1*
Y-35038D1*
Y-36022D1*
Y-37007D1*
Y-37991D1*
Y-38975D1*
Y-39959D1*
Y-40944D1*
Y-41928D1*
Y-42912D1*
Y-43896D1*
Y-44881D1*
Y-45865D1*
X1246614Y-32085D2*
Y-33070D1*
Y-34054D1*
Y-35038D1*
Y-36022D1*
Y-37007D1*
Y-37991D1*
Y-38975D1*
Y-39959D1*
Y-40944D1*
Y-41928D1*
Y-42912D1*
Y-43896D1*
Y-44881D1*
Y-45865D1*
X1248583Y-32085D2*
Y-33070D1*
Y-34054D1*
Y-35038D1*
Y-36022D1*
Y-37007D1*
Y-37991D1*
Y-38975D1*
Y-39959D1*
Y-40944D1*
Y-41928D1*
Y-42912D1*
Y-43896D1*
Y-44881D1*
Y-45865D1*
Y-46849D1*
Y-47833D1*
Y-48818D1*
Y-49802D1*
Y-50786D1*
Y-51770D1*
Y-52755D1*
Y-53739D1*
Y-54723D1*
Y-55707D1*
Y-56692D1*
Y-57676D1*
Y-58660D1*
Y-59644D1*
Y-60629D1*
Y-61613D1*
Y-62597D1*
X1261378Y-32085D2*
X1259755Y-33070D1*
X1258443Y-34054D1*
X1257422Y-35038D1*
X1256615Y-36022D1*
X1256052Y-37007D1*
X1255734Y-37991D1*
X1255580Y-38975D1*
X1255511Y-39959D1*
X1255472Y-40944D1*
X1267283Y-32085D2*
X1268685Y-33070D1*
X1269821Y-34054D1*
X1270674Y-35038D1*
X1271306Y-36022D1*
X1271745Y-37007D1*
X1271995Y-37991D1*
X1272118Y-38975D1*
X1272167Y-39959D1*
X1272154Y-40944D1*
X1272033Y-41928D1*
X1271757Y-42912D1*
X1271304Y-43896D1*
X1270569Y-44881D1*
X1269422Y-45865D1*
X1267870Y-46849D1*
X1265989Y-47833D1*
X1263883Y-48818D1*
X1261771Y-49802D1*
X1259937Y-50786D1*
X1258556Y-51770D1*
X1257615Y-52755D1*
X1256921Y-53739D1*
X1256723Y-54723D1*
X1256659Y-55707D1*
X1256993Y-56692D1*
X1257747Y-57676D1*
X1259646Y-58660D1*
X1262617Y-59644D1*
X1266299Y-60629D1*
X1167874Y-34054D2*
X1166931Y-35038D1*
X1166111Y-36022D1*
X1165527Y-37007D1*
X1165195Y-37991D1*
X1165038Y-38975D1*
X1165011Y-39959D1*
X1165080Y-40944D1*
X1165587Y-41928D1*
X1166820Y-42912D1*
X1168238Y-43896D1*
X1169446Y-44881D1*
X1170244Y-45865D1*
X1170827Y-46849D1*
X1168299Y-47833D1*
X1166456Y-48818D1*
X1165099Y-49802D1*
X1164532Y-50786D1*
X1164204Y-51770D1*
X1164046Y-52755D1*
X1163983Y-53739D1*
X1163994Y-54723D1*
X1164148Y-55707D1*
X1164451Y-56692D1*
X1165333Y-57676D1*
X1166785Y-58660D1*
X1169049Y-59644D1*
X1171811Y-60629D1*
X1170827Y-34054D2*
X1171770Y-35038D1*
X1172590Y-36022D1*
X1173178Y-37007D1*
X1173532Y-37991D1*
X1173780Y-38975D1*
X1189528Y-34054D2*
X1187905Y-35038D1*
X1186593Y-36022D1*
X1185572Y-37007D1*
X1184764Y-37991D1*
X1184198Y-38975D1*
X1183859Y-39959D1*
X1183622Y-40944D1*
X1191496Y-34054D2*
X1193267Y-35038D1*
X1194793Y-36022D1*
X1195977Y-37007D1*
X1196851Y-37991D1*
X1197523Y-38975D1*
X1198089Y-39959D1*
X1198576Y-40944D1*
X1198951Y-41928D1*
X1199176Y-42912D1*
X1199288Y-43896D1*
X1199338Y-44881D1*
X1199358Y-45865D1*
X1199366Y-46849D1*
X1199369Y-47833D1*
X1199370Y-48818D1*
X1199366Y-49802D1*
X1199332Y-50786D1*
X1199202Y-51770D1*
X1198932Y-52755D1*
X1198550Y-53739D1*
X1198105Y-54723D1*
X1197593Y-55707D1*
X1196922Y-56692D1*
X1196055Y-57676D1*
X1193844Y-58660D1*
X1190553Y-59644D1*
X1186575Y-60629D1*
X1261378Y-34054D2*
X1260431Y-35038D1*
X1259577Y-36022D1*
X1258867Y-37007D1*
X1258299Y-37991D1*
X1257883Y-38975D1*
X1257625Y-39959D1*
X1257441Y-40944D1*
X1266299Y-34054D2*
X1267280Y-35038D1*
X1268225Y-36022D1*
X1269046Y-37007D1*
X1269627Y-37991D1*
X1270015Y-38975D1*
X1270026Y-39959D1*
X1269681Y-40944D1*
X1268753Y-41928D1*
X1267388Y-42912D1*
X1265583Y-43896D1*
X1263554Y-44881D1*
X1261532Y-45865D1*
X1259667Y-46849D1*
X1258072Y-47833D1*
X1256781Y-48818D1*
X1255794Y-49802D1*
X1255028Y-50786D1*
X1254750Y-51770D1*
X1254600Y-52755D1*
X1254532Y-53739D1*
X1254508Y-54723D1*
X1254532Y-55707D1*
X1254658Y-56692D1*
X1254935Y-57676D1*
X1255389Y-58660D1*
X1256124Y-59644D1*
X1257262Y-60629D1*
X1258751Y-61613D1*
X1260394Y-62597D1*
X1231850Y-47833D2*
Y-48818D1*
Y-49802D1*
Y-50786D1*
Y-51770D1*
Y-52755D1*
Y-53739D1*
Y-54723D1*
Y-55707D1*
Y-56692D1*
Y-57676D1*
Y-58660D1*
Y-59644D1*
Y-60629D1*
Y-61613D1*
Y-62597D1*
X1246614Y-47833D2*
Y-48818D1*
Y-49802D1*
Y-50786D1*
Y-51770D1*
Y-52755D1*
Y-53739D1*
Y-54723D1*
Y-55707D1*
Y-56692D1*
Y-57676D1*
Y-58660D1*
Y-59644D1*
Y-60629D1*
Y-61613D1*
Y-62597D1*
X1181654Y-51770D2*
X1181237Y-52755D1*
X1180982Y-53739D1*
X1181186Y-54723D1*
X1181523Y-55707D1*
X1181948Y-56692D1*
X1182447Y-57676D1*
X1183061Y-58660D1*
X1183858Y-59644D1*
X1184881Y-60629D1*
X1186150Y-61613D1*
X1187559Y-62597D1*
X1182638Y-51770D2*
X1182978Y-52755D1*
X1183310Y-53739D1*
X1183660Y-54723D1*
X1184156Y-55707D1*
X1184871Y-56692D1*
X1185900Y-57676D1*
X1187582Y-58660D1*
X1190222Y-59644D1*
X1193465Y-60629D1*
X1271220Y-52755D2*
X1270880Y-53739D1*
X1270549Y-54723D1*
X1270194Y-55707D1*
X1269758Y-56692D1*
X1268837Y-57676D1*
X1266474Y-58660D1*
X1262853Y-59644D1*
X1258425Y-60629D1*
X1273189Y-52755D2*
X1273151Y-53739D1*
X1273021Y-54723D1*
X1272751Y-55707D1*
X1272369Y-56692D1*
X1271920Y-57676D1*
X1271374Y-58660D1*
X1270597Y-59644D1*
X1269441Y-60629D1*
X1267945Y-61613D1*
X1266299Y-62597D1*
X1174764Y-54723D2*
X1174386Y-55707D1*
X1173913Y-56692D1*
X1173339Y-57676D1*
X1171861Y-58660D1*
X1169624Y-59644D1*
X1166890Y-60629D1*
X1176732Y-54723D2*
X1176695Y-55707D1*
X1176565Y-56692D1*
X1176290Y-57676D1*
X1175870Y-58660D1*
X1175262Y-59644D1*
X1174367Y-60629D1*
X1173171Y-61613D1*
X1171811Y-62597D1*
X703490Y-27350D2*
D12*
X691643Y-30350D1*
X681241Y-33350D1*
X672675Y-36350D1*
X665512Y-39350D1*
X659340Y-42350D1*
X653860Y-45350D1*
X648757Y-48350D1*
X644026Y-51350D1*
X639848Y-54350D1*
X636022Y-57350D1*
X632431Y-60350D1*
X629283Y-63350D1*
X626497Y-66350D1*
X623838Y-69350D1*
X621374Y-72350D1*
X619264Y-75350D1*
X617348Y-78350D1*
X615331Y-81350D1*
X613065Y-84350D1*
X610871Y-87350D1*
X609126Y-90350D1*
X607777Y-93350D1*
X606486Y-96350D1*
X605131Y-99350D1*
X603796Y-102350D1*
X602613Y-105350D1*
X601569Y-108350D1*
X600516Y-111350D1*
X599590Y-114350D1*
X598959Y-117350D1*
X598490Y-120350D1*
X721490Y-27350D2*
X731951Y-30350D1*
X741491Y-33350D1*
X749622Y-36350D1*
X756591Y-39350D1*
X762673Y-42350D1*
X768030Y-45350D1*
X772834Y-48350D1*
X777119Y-51350D1*
X780863Y-54350D1*
X784228Y-57350D1*
X787388Y-60350D1*
X790440Y-63350D1*
X793359Y-66350D1*
X795974Y-69350D1*
X798153Y-72350D1*
X799991Y-75350D1*
X801644Y-78350D1*
X803214Y-81350D1*
X804833Y-84350D1*
X806616Y-87350D1*
X808458Y-90350D1*
X810007Y-93350D1*
X811252Y-96350D1*
X812411Y-99350D1*
X813474Y-102350D1*
X814455Y-105350D1*
X815492Y-108350D1*
X816504Y-111350D1*
X817466Y-114350D1*
X818484Y-117350D1*
X819400Y-120350D1*
X820119Y-123350D1*
X820836Y-126350D1*
X822772Y-129350D1*
X827192Y-132350D1*
X832499Y-135350D1*
X838069Y-138350D1*
X843620Y-141350D1*
X849178Y-144350D1*
X854481Y-147350D1*
X858965Y-150350D1*
X862665Y-153350D1*
X864248Y-156350D1*
X865490Y-159350D1*
X697490Y-39350D2*
X688615Y-42350D1*
X680117Y-45350D1*
X672347Y-48350D1*
X665440Y-51350D1*
X659345Y-54350D1*
X653969Y-57350D1*
X649154Y-60350D1*
X644863Y-63350D1*
X641118Y-66350D1*
X637751Y-69350D1*
X634603Y-72350D1*
X631644Y-75350D1*
X629002Y-78350D1*
X626712Y-81350D1*
X624490Y-84350D1*
X622129Y-87350D1*
X619895Y-90350D1*
X618123Y-93350D1*
X616675Y-96350D1*
X615105Y-99350D1*
X613401Y-102350D1*
X611922Y-105350D1*
X610672Y-108350D1*
X609194Y-111350D1*
X607300Y-114350D1*
X603235Y-117350D1*
X598490Y-120350D1*
X727490Y-39350D2*
X736249Y-42350D1*
X744363Y-45350D1*
X751414Y-48350D1*
X757540Y-51350D1*
X763018Y-54350D1*
X767839Y-57350D1*
X772179Y-60350D1*
X776272Y-63350D1*
X779955Y-66350D1*
X783118Y-69350D1*
X785981Y-72350D1*
X788541Y-75350D1*
X790691Y-78350D1*
X792610Y-81350D1*
X794540Y-84350D1*
X796530Y-87350D1*
X798389Y-90350D1*
X800084Y-93350D1*
X801667Y-96350D1*
X803109Y-99350D1*
X804338Y-102350D1*
X805411Y-105350D1*
X806576Y-108350D1*
X807879Y-111350D1*
X809182Y-114350D1*
X810253Y-117350D1*
X810911Y-120350D1*
X811257Y-123350D1*
X811511Y-126350D1*
X811953Y-129350D1*
X812695Y-132350D1*
X813472Y-135350D1*
X813998Y-138350D1*
X814278Y-141350D1*
X814405Y-144350D1*
X814446Y-147350D1*
X814361Y-150350D1*
X813986Y-153350D1*
X813270Y-156350D1*
X812502Y-159350D1*
X811979Y-162350D1*
X811689Y-165350D1*
X811456Y-168350D1*
X811010Y-171350D1*
X810166Y-174350D1*
X809007Y-177350D1*
X807751Y-180350D1*
X806597Y-183350D1*
X805552Y-186350D1*
X804397Y-189350D1*
X803086Y-192350D1*
X801679Y-195350D1*
X800215Y-198350D1*
X798721Y-201350D1*
X797118Y-204350D1*
X795228Y-207350D1*
X792903Y-210350D1*
X790254Y-213350D1*
X787498Y-216350D1*
X784836Y-219350D1*
X782195Y-222350D1*
X779254Y-225350D1*
X776011Y-228350D1*
X772779Y-231350D1*
X769734Y-234350D1*
X767053Y-237350D1*
X764857Y-240350D1*
X763112Y-243350D1*
X761840Y-246350D1*
X761051Y-249350D1*
X760490Y-252350D1*
X706490Y-72350D2*
X701874Y-75350D1*
X696736Y-78350D1*
X691172Y-81350D1*
X685365Y-84350D1*
X679444Y-87350D1*
X673473Y-90350D1*
X667496Y-93350D1*
X661593Y-96350D1*
X655883Y-99350D1*
X650313Y-102350D1*
X644641Y-105350D1*
X638731Y-108350D1*
X632537Y-111350D1*
X626152Y-114350D1*
X619926Y-117350D1*
X614031Y-120350D1*
X608385Y-123350D1*
X602781Y-126350D1*
X597227Y-129350D1*
X591652Y-132350D1*
X585746Y-135350D1*
X579613Y-138350D1*
X573657Y-141350D1*
X567966Y-144350D1*
X562460Y-147350D1*
X557615Y-150350D1*
X553577Y-153350D1*
X551845Y-156350D1*
X550490Y-159350D1*
X709490Y-72350D2*
X714667Y-75350D1*
X719966Y-78350D1*
X725416Y-81350D1*
X731268Y-84350D1*
X737379Y-87350D1*
X743327Y-90350D1*
X749038Y-93350D1*
X754777Y-96350D1*
X760620Y-99350D1*
X766543Y-102350D1*
X772510Y-105350D1*
X778497Y-108350D1*
X784469Y-111350D1*
X790233Y-114350D1*
X795233Y-117350D1*
X799361Y-120350D1*
X800970Y-123350D1*
X801890Y-126350D1*
X802490Y-129350D1*
X703490Y-84350D2*
X699448Y-87350D1*
X694564Y-90350D1*
X689163Y-93350D1*
X683749Y-96350D1*
X678174Y-99350D1*
X672317Y-102350D1*
X666523Y-105350D1*
X660876Y-108350D1*
X655076Y-111350D1*
X648958Y-114350D1*
X642609Y-117350D1*
X636305Y-120350D1*
X630135Y-123350D1*
X624069Y-126350D1*
X618260Y-129350D1*
X613147Y-132350D1*
X609294Y-135350D1*
X606397Y-138350D1*
X605408Y-141350D1*
X604878Y-144350D1*
X604641Y-147350D1*
X604545Y-150350D1*
X604509Y-153350D1*
X604496Y-156350D1*
X604503Y-159350D1*
X604607Y-162350D1*
X604989Y-165350D1*
X605708Y-168350D1*
X606488Y-171350D1*
X607117Y-174350D1*
X607778Y-177350D1*
X608635Y-180350D1*
X609562Y-183350D1*
X610500Y-186350D1*
X611609Y-189350D1*
X612903Y-192350D1*
X614303Y-195350D1*
X615777Y-198350D1*
X617364Y-201350D1*
X619243Y-204350D1*
X621469Y-207350D1*
X623845Y-210350D1*
X626260Y-213350D1*
X628865Y-216350D1*
X631653Y-219350D1*
X634555Y-222350D1*
X637514Y-225350D1*
X640498Y-228350D1*
X643493Y-231350D1*
X646479Y-234350D1*
X649373Y-237350D1*
X651990Y-240350D1*
X654271Y-243350D1*
X656494Y-246350D1*
X658926Y-249350D1*
X661490Y-252350D1*
X709490Y-84350D2*
X715490Y-87350D1*
X721490Y-90350D1*
X727490Y-93350D1*
X733478Y-96350D1*
X739384Y-99350D1*
X745095Y-102350D1*
X750666Y-105350D1*
X756338Y-108350D1*
X762236Y-111350D1*
X768337Y-114350D1*
X774445Y-117350D1*
X780316Y-120350D1*
X786003Y-123350D1*
X791393Y-126350D1*
X796490Y-129350D1*
X679490Y-135350D2*
Y-138350D1*
Y-141350D1*
Y-144350D1*
Y-147350D1*
Y-150350D1*
Y-153350D1*
Y-156350D1*
Y-159350D1*
X700490Y-135350D2*
Y-138350D1*
Y-141350D1*
Y-144350D1*
Y-147350D1*
Y-150350D1*
Y-153350D1*
Y-156350D1*
Y-159350D1*
X715490Y-135350D2*
Y-138350D1*
Y-141350D1*
Y-144350D1*
Y-147350D1*
Y-150350D1*
Y-153350D1*
Y-156350D1*
Y-159350D1*
X736490Y-135350D2*
Y-138350D1*
Y-141350D1*
Y-144350D1*
Y-147350D1*
Y-150350D1*
Y-153350D1*
Y-156350D1*
Y-159350D1*
X595490Y-141350D2*
X589490Y-144350D1*
X583501Y-147350D1*
X577615Y-150350D1*
X572079Y-153350D1*
X567105Y-156350D1*
X562490Y-159350D1*
X595490Y-141350D2*
Y-144350D1*
Y-147350D1*
Y-150350D1*
Y-153350D1*
X595501Y-156350D1*
X595607Y-159350D1*
X595989Y-162350D1*
X596708Y-165350D1*
X597477Y-168350D1*
X598012Y-171350D1*
X598395Y-174350D1*
X598917Y-177350D1*
X599793Y-180350D1*
X600965Y-183350D1*
X602226Y-186350D1*
X603381Y-189350D1*
X604415Y-192350D1*
X605476Y-195350D1*
X606498Y-198350D1*
X607476Y-201350D1*
X608612Y-204350D1*
X610017Y-207350D1*
X611802Y-210350D1*
X613983Y-213350D1*
X616246Y-216350D1*
X618371Y-219350D1*
X620539Y-222350D1*
X622992Y-225350D1*
X625705Y-228350D1*
X628587Y-231350D1*
X631639Y-234350D1*
X634989Y-237350D1*
X638594Y-240350D1*
X641967Y-243350D1*
X644665Y-246350D1*
X646780Y-249350D1*
X648550Y-252350D1*
X650084Y-255350D1*
X651378Y-258350D1*
X652490Y-261350D1*
X682490Y-141350D2*
X683041Y-144350D1*
X684094Y-147350D1*
X685490Y-150350D1*
X697490Y-141350D2*
Y-144350D1*
Y-147350D1*
Y-150350D1*
X721490Y-141350D2*
Y-144350D1*
Y-147350D1*
Y-150350D1*
X733490Y-141350D2*
X732938Y-144350D1*
X731885Y-147350D1*
X730490Y-150350D1*
X820490Y-141350D2*
Y-144350D1*
Y-147350D1*
Y-150350D1*
Y-153350D1*
Y-156350D1*
Y-159350D1*
X820478Y-162350D1*
X820372Y-165350D1*
X819990Y-168350D1*
X819260Y-171350D1*
X818385Y-174350D1*
X817480Y-177350D1*
X816471Y-180350D1*
X815469Y-183350D1*
X814511Y-186350D1*
X813482Y-189350D1*
X812473Y-192350D1*
X811501Y-195350D1*
X810377Y-198350D1*
X809079Y-201350D1*
X807665Y-204350D1*
X806109Y-207350D1*
X804338Y-210350D1*
X802400Y-213350D1*
X800459Y-216350D1*
X798380Y-219350D1*
X795964Y-222350D1*
X793265Y-225350D1*
X790401Y-228350D1*
X787457Y-231350D1*
X784478Y-234350D1*
X781485Y-237350D1*
X778488Y-240350D1*
X775501Y-243350D1*
X772618Y-246350D1*
X770118Y-249350D1*
X768336Y-252350D1*
X767320Y-255350D1*
X766807Y-258350D1*
X766490Y-261350D1*
X826490Y-141350D2*
X830079Y-144350D1*
X834325Y-147350D1*
X839320Y-150350D1*
X844832Y-153350D1*
X850613Y-156350D1*
X856490Y-159350D1*
X679490Y-174350D2*
Y-177350D1*
Y-180350D1*
Y-183350D1*
Y-186350D1*
Y-189350D1*
Y-192350D1*
Y-195350D1*
Y-198350D1*
X700490Y-174350D2*
Y-177350D1*
Y-180350D1*
Y-183350D1*
Y-186350D1*
Y-189350D1*
Y-192350D1*
Y-195350D1*
Y-198350D1*
X715490Y-174350D2*
Y-177350D1*
Y-180350D1*
Y-183350D1*
Y-186350D1*
Y-189350D1*
Y-192350D1*
Y-195350D1*
Y-198350D1*
X736490Y-174350D2*
Y-177350D1*
Y-180350D1*
Y-183350D1*
Y-186350D1*
Y-189350D1*
Y-192350D1*
Y-195350D1*
Y-198350D1*
X688490Y-177350D2*
X686201Y-180350D1*
X684447Y-183350D1*
X684741Y-186350D1*
X685490Y-189350D1*
X691490Y-177350D2*
X693778Y-180350D1*
X695532Y-183350D1*
X695238Y-186350D1*
X694490Y-189350D1*
X721490Y-177350D2*
Y-180350D1*
Y-183350D1*
Y-186350D1*
Y-189350D1*
X727490Y-177350D2*
X729778Y-180350D1*
X731532Y-183350D1*
X731238Y-186350D1*
X730490Y-189350D1*
X655490Y-282350D2*
X656041Y-285350D1*
X657094Y-288350D1*
X658490Y-291350D1*
X763490Y-282350D2*
X762716Y-285350D1*
X760364Y-288350D1*
X757490Y-291350D1*
X673490Y-309350D2*
X674041Y-312350D1*
X675094Y-315350D1*
X676490Y-318350D1*
X742490Y-309350D2*
X743943Y-312350D1*
X741977Y-315350D1*
X739490Y-318350D1*
X-708643Y-33949D2*
X-717053Y-36949D1*
X-724808Y-39949D1*
X-731801Y-42949D1*
X-738171Y-45949D1*
X-743894Y-48949D1*
X-748865Y-51949D1*
X-753292Y-54949D1*
X-757511Y-57949D1*
X-761496Y-60949D1*
X-765104Y-63949D1*
X-768414Y-66949D1*
X-771553Y-69949D1*
X-774610Y-72949D1*
X-777619Y-75949D1*
X-780522Y-78949D1*
X-783142Y-81949D1*
X-785413Y-84949D1*
X-787539Y-87949D1*
X-789633Y-90949D1*
X-791625Y-93949D1*
X-793623Y-96949D1*
X-795653Y-99949D1*
X-797530Y-102949D1*
X-799233Y-105949D1*
X-800818Y-108949D1*
X-802262Y-111949D1*
X-803492Y-114949D1*
X-804565Y-117949D1*
X-805730Y-120949D1*
X-807033Y-123949D1*
X-808336Y-126949D1*
X-809418Y-129949D1*
X-810182Y-132949D1*
X-810898Y-135949D1*
X-811765Y-138949D1*
X-812595Y-141949D1*
X-813141Y-144949D1*
X-813427Y-147949D1*
X-813557Y-150949D1*
X-813611Y-153949D1*
X-813632Y-156949D1*
X-813639Y-159949D1*
X-813642Y-162949D1*
X-813643Y-165949D1*
Y-168949D1*
Y-171949D1*
Y-174949D1*
Y-177949D1*
Y-180949D1*
Y-183949D1*
Y-186949D1*
Y-189949D1*
Y-192949D1*
Y-195949D1*
Y-198949D1*
Y-201949D1*
X-813631Y-204949D1*
X-813526Y-207949D1*
X-813144Y-210949D1*
X-812425Y-213949D1*
X-811644Y-216949D1*
X-811015Y-219949D1*
X-810355Y-222949D1*
X-809497Y-225949D1*
X-808570Y-228949D1*
X-807633Y-231949D1*
X-806523Y-234949D1*
X-805230Y-237949D1*
X-803829Y-240949D1*
X-802367Y-243949D1*
X-800874Y-246949D1*
X-799213Y-249949D1*
X-797301Y-252949D1*
X-791813Y-255949D1*
X-782078Y-258949D1*
X-767564Y-261949D1*
X-750643Y-264949D1*
X-636643Y-33949D2*
X-628233Y-36949D1*
X-620490Y-39949D1*
X-613591Y-42949D1*
X-607497Y-45949D1*
X-602111Y-48949D1*
X-597190Y-51949D1*
X-592517Y-54949D1*
X-588053Y-57949D1*
X-583918Y-60949D1*
X-580246Y-63949D1*
X-577018Y-66949D1*
X-574330Y-69949D1*
X-572292Y-72949D1*
X-570643Y-75949D1*
X-711643Y-69949D2*
X-724863Y-72949D1*
X-736009Y-75949D1*
X-744523Y-78949D1*
X-750767Y-81949D1*
X-755412Y-84949D1*
X-759142Y-87949D1*
X-762342Y-90949D1*
X-765066Y-93949D1*
X-767273Y-96949D1*
X-769020Y-99949D1*
X-770272Y-102949D1*
X-770891Y-105949D1*
X-771055Y-108949D1*
X-769885Y-111949D1*
X-768290Y-114949D1*
X-766508Y-117949D1*
X-764494Y-120949D1*
X-762104Y-123949D1*
X-759414Y-126949D1*
X-756553Y-129949D1*
X-753610Y-132949D1*
X-750631Y-135949D1*
X-747639Y-138949D1*
X-744642Y-141949D1*
X-741643Y-144949D1*
X-738643Y-147949D1*
X-735643Y-150949D1*
X-732643Y-153949D1*
X-729643Y-156949D1*
X-726643Y-159949D1*
X-723643Y-162949D1*
X-720643Y-165949D1*
X-717655Y-168949D1*
X-714760Y-171949D1*
X-712143Y-174949D1*
X-709861Y-177949D1*
X-707630Y-180949D1*
X-705153Y-183949D1*
X-702432Y-186949D1*
X-699559Y-189949D1*
X-696612Y-192949D1*
X-693632Y-195949D1*
X-690639Y-198949D1*
X-687642Y-201949D1*
X-684643Y-204949D1*
X-681643Y-207949D1*
X-678643Y-210949D1*
X-675643Y-213949D1*
X-672643Y-216949D1*
X-669643Y-219949D1*
X-666643Y-222949D1*
X-663643Y-225949D1*
X-660643Y-228949D1*
X-657655Y-231949D1*
X-654760Y-234949D1*
X-652143Y-237949D1*
X-649861Y-240949D1*
X-647630Y-243949D1*
X-645153Y-246949D1*
X-642432Y-249949D1*
X-639559Y-252949D1*
X-636612Y-255949D1*
X-633632Y-258949D1*
X-630639Y-261949D1*
X-627643Y-264949D1*
X-636643Y-267949D1*
X-645643Y-69949D2*
X-612643Y-72949D1*
X-579643Y-75949D1*
X-717643Y-84949D2*
X-716028Y-87949D1*
X-713889Y-90949D1*
X-711325Y-93949D1*
X-708519Y-96949D1*
X-705597Y-99949D1*
X-702627Y-102949D1*
X-699638Y-105949D1*
X-696641Y-108949D1*
X-693642Y-111949D1*
X-690643Y-114949D1*
X-687643Y-117949D1*
X-684643Y-120949D1*
X-681643Y-123949D1*
X-678643Y-126949D1*
X-675643Y-129949D1*
X-672655Y-132949D1*
X-669760Y-135949D1*
X-667143Y-138949D1*
X-664861Y-141949D1*
X-662630Y-144949D1*
X-660153Y-147949D1*
X-657432Y-150949D1*
X-654559Y-153949D1*
X-651612Y-156949D1*
X-648632Y-159949D1*
X-645639Y-162949D1*
X-642642Y-165949D1*
X-639643Y-168949D1*
X-636643Y-171949D1*
X-633643Y-174949D1*
X-630643Y-177949D1*
X-627643Y-180949D1*
X-624643Y-183949D1*
X-621643Y-186949D1*
X-618655Y-189949D1*
X-615760Y-192949D1*
X-613143Y-195949D1*
X-610861Y-198949D1*
X-608630Y-201949D1*
X-606153Y-204949D1*
X-603432Y-207949D1*
X-600559Y-210949D1*
X-597612Y-213949D1*
X-594632Y-216949D1*
X-591639Y-219949D1*
X-588642Y-222949D1*
X-585643Y-225949D1*
X-582655Y-228949D1*
X-579772Y-231949D1*
X-577271Y-234949D1*
X-575501Y-237949D1*
X-574318Y-240949D1*
X-574429Y-243949D1*
X-575094Y-246949D1*
X-576186Y-249949D1*
X-577516Y-252949D1*
X-579053Y-255949D1*
X-580929Y-258949D1*
X-583363Y-261949D1*
X-586532Y-264949D1*
X-590786Y-267949D1*
X-596915Y-270949D1*
X-606612Y-273949D1*
X-621621Y-276949D1*
X-641529Y-279949D1*
X-663643Y-282949D1*
X-612643Y-84949D2*
X-589651Y-87949D1*
X-572299Y-90949D1*
X-561442Y-93949D1*
X-554239Y-96949D1*
X-551356Y-99949D1*
X-548939Y-102949D1*
X-546832Y-105949D1*
X-545181Y-108949D1*
X-543887Y-111949D1*
X-542622Y-114949D1*
X-541278Y-117949D1*
X-539948Y-120949D1*
X-538766Y-123949D1*
X-537723Y-126949D1*
X-536670Y-129949D1*
X-535752Y-132949D1*
X-535168Y-135949D1*
X-534867Y-138949D1*
X-534731Y-141949D1*
X-534676Y-144949D1*
X-534655Y-147949D1*
X-534647Y-150949D1*
X-534644Y-153949D1*
X-534643Y-156949D1*
Y-159949D1*
Y-162949D1*
Y-165949D1*
Y-168949D1*
Y-171949D1*
Y-174949D1*
Y-177949D1*
Y-180949D1*
Y-183949D1*
Y-186949D1*
Y-189949D1*
Y-192949D1*
Y-195949D1*
Y-198949D1*
Y-201949D1*
Y-204949D1*
Y-207949D1*
Y-210949D1*
X-534655Y-213949D1*
X-534760Y-216949D1*
X-535143Y-219949D1*
X-535873Y-222949D1*
X-536747Y-225949D1*
X-537653Y-228949D1*
X-538661Y-231949D1*
X-539663Y-234949D1*
X-540633Y-237949D1*
X-541756Y-240949D1*
X-543053Y-243949D1*
X-544468Y-246949D1*
X-546024Y-249949D1*
X-547795Y-252949D1*
X-549733Y-255949D1*
X-551662Y-258949D1*
X-553636Y-261949D1*
X-555669Y-264949D1*
X-557649Y-267949D1*
X-559744Y-270949D1*
X-562166Y-273949D1*
X-564866Y-276949D1*
X-567731Y-279949D1*
X-570676Y-282949D1*
X-573655Y-285949D1*
X-576659Y-288949D1*
X-579762Y-291949D1*
X-583155Y-294949D1*
X-586990Y-297949D1*
X-591247Y-300949D1*
X-595894Y-303949D1*
X-600883Y-306949D1*
X-606196Y-309949D1*
X-612101Y-312949D1*
X-618752Y-315949D1*
X-626028Y-318949D1*
X-633643Y-321949D1*
X-714643Y-264949D2*
X-711643Y-267949D1*
X-780643Y-273949D2*
X-779028Y-276949D1*
X-776889Y-279949D1*
X-774325Y-282949D1*
X-771519Y-285949D1*
X-768585Y-288949D1*
X-765510Y-291949D1*
X-762126Y-294949D1*
X-758306Y-297949D1*
X-754144Y-300949D1*
X-749786Y-303949D1*
X-745227Y-306949D1*
X-740241Y-309949D1*
X-734425Y-312949D1*
X-727560Y-315949D1*
X-719799Y-318949D1*
X-711643Y-321949D1*
X-777643Y-273949D2*
X-750643Y-276949D1*
X-723643Y-279949D1*
X-711643D2*
Y-282949D1*
X-1154523Y244607D2*
D99*
X-1184667D1*
X-1154523Y256081D1*
X-1184667Y267555D1*
X-1154523D1*
X-1184667Y235344D2*
X-1154523Y228147D1*
X-1184667Y220984D1*
X-1154523Y213822D1*
X-1184667Y206625D1*
Y197362D2*
Y177266D1*
X-1154523Y197362D1*
Y177266D1*
X-1180356Y147906D2*
X-1183241Y150758D1*
X-1184667Y155069D1*
Y160806D1*
X-1183241Y165117D1*
X-1180356Y168002D1*
X-1177504D1*
X-1174619Y166543D1*
X-1173193Y165117D1*
X-1171767Y162265D1*
X-1168882Y153643D1*
X-1167456Y150758D1*
X-1165997Y149332D1*
X-1163145Y147906D1*
X-1158834D1*
X-1155982Y150758D1*
X-1154523Y155069D1*
Y160806D1*
X-1155982Y165117D1*
X-1158834Y168002D1*
X-1177471Y137184D2*
X-1178897D1*
X-1181782Y135758D1*
X-1183208Y134332D1*
X-1184634Y131447D1*
Y125710D1*
X-1183208Y122858D1*
X-1181782Y121432D1*
X-1178897Y119973D1*
X-1176045D1*
X-1173160Y121432D1*
X-1168882Y124284D1*
X-1154523Y138643D1*
Y118547D1*
X-1178897Y109283D2*
X-1180356Y106398D1*
X-1184634Y102087D1*
X-1154523D1*
X-1184634Y89939D2*
Y74187D1*
X-1173160Y82776D1*
Y78465D1*
X-1171734Y75613D1*
X-1170308Y74187D1*
X-1165997Y72728D1*
X-1163145D1*
X-1158834Y74187D1*
X-1155949Y77039D1*
X-1154523Y81350D1*
Y85661D1*
X-1155949Y89939D1*
X-1157408Y91365D1*
X-1160260Y92824D1*
X-1149549Y63464D2*
Y36205D1*
X-1184667Y26942D2*
X-1154523Y15468D1*
X-1184667Y3994D1*
X-1154523Y-19629D2*
X-1184634D1*
X-1164571Y-5270D1*
Y-26792D1*
X-1192527Y-65216D2*
X-1146631D1*
X-1184634Y-112262D2*
X-1183208Y-107951D1*
X-1178897Y-105066D1*
X-1171734Y-103640D1*
X-1167423D1*
X-1160260Y-105066D1*
X-1155949Y-107951D1*
X-1154523Y-112262D1*
Y-115114D1*
X-1155949Y-119425D1*
X-1160260Y-122277D1*
X-1167423Y-123736D1*
X-1171734D1*
X-1178897Y-122277D1*
X-1183208Y-119425D1*
X-1184634Y-115114D1*
Y-112262D1*
X-1178897Y-122277D2*
X-1160260Y-105066D1*
X-1178897Y-133000D2*
X-1180356Y-135885D1*
X-1184634Y-140196D1*
X-1154523D1*
X-1157408Y-150885D2*
X-1155949Y-149459D1*
X-1154523Y-150885D1*
X-1155949Y-152344D1*
X-1157408Y-150885D1*
X-1177471Y-163067D2*
X-1178897D1*
X-1181782Y-164493D1*
X-1183208Y-165919D1*
X-1184634Y-168804D1*
Y-174541D1*
X-1183208Y-177393D1*
X-1181782Y-178819D1*
X-1178897Y-180278D1*
X-1176045D1*
X-1173160Y-178819D1*
X-1168882Y-175967D1*
X-1154523Y-161608D1*
Y-181704D1*
X-1184634Y-199589D2*
X-1183208Y-195278D1*
X-1178897Y-192393D1*
X-1171734Y-190967D1*
X-1167423D1*
X-1160260Y-192393D1*
X-1155949Y-195278D1*
X-1154523Y-199589D1*
Y-202441D1*
X-1155949Y-206752D1*
X-1160260Y-209604D1*
X-1167423Y-211063D1*
X-1171734D1*
X-1178897Y-209604D1*
X-1183208Y-206752D1*
X-1184634Y-202441D1*
Y-199589D1*
X-1178897Y-209604D2*
X-1160260Y-192393D1*
X-1177471Y-221786D2*
X-1178897D1*
X-1181782Y-223212D1*
X-1183208Y-224638D1*
X-1184634Y-227523D1*
Y-233260D1*
X-1183208Y-236112D1*
X-1181782Y-237538D1*
X-1178897Y-238997D1*
X-1176045D1*
X-1173160Y-237538D1*
X-1168882Y-234686D1*
X-1154523Y-220327D1*
Y-240423D1*
X-1177471Y-251146D2*
X-1178897D1*
X-1181782Y-252571D1*
X-1183208Y-253997D1*
X-1184634Y-256883D1*
Y-262619D1*
X-1183208Y-265471D1*
X-1181782Y-266897D1*
X-1178897Y-268356D1*
X-1176045D1*
X-1173160Y-266897D1*
X-1168882Y-264045D1*
X-1154523Y-249687D1*
Y-269782D1*
X872291Y423808D2*
D100*
X874193Y427610D1*
X878039Y431457D1*
X881842Y433358D1*
X889491D1*
X893338Y431457D1*
X897141Y427610D1*
X899086Y423808D1*
X900987Y418060D1*
Y408465D1*
X899086Y402761D1*
X897141Y398914D1*
X893338Y395112D1*
X889491Y393166D1*
X881842D1*
X878039Y395112D1*
X874193Y398914D1*
X872291Y402761D1*
X831244Y423808D2*
X833145Y427610D1*
X836992Y431457D1*
X840795Y433358D1*
X848444D1*
X852291Y431457D1*
X856093Y427610D1*
X858039Y423808D1*
X859940Y418060D1*
Y408465D1*
X858039Y402761D1*
X856093Y398914D1*
X852291Y395112D1*
X848444Y393166D1*
X840795D1*
X836992Y395112D1*
X833145Y398914D1*
X831244Y402761D1*
X816947Y423763D2*
Y425665D1*
X815046Y429511D1*
X813145Y431413D1*
X809298Y433314D1*
X801649D1*
X797846Y431413D1*
X795945Y429511D1*
X793999Y425665D1*
Y421862D1*
X795945Y418015D1*
X799747Y412312D1*
X818893Y393166D1*
X792098D1*
X756799Y433314D2*
X775900D1*
X777801Y416114D1*
X775900Y418015D1*
X770152Y419961D1*
X764448D1*
X758700Y418015D1*
X754853Y414213D1*
X752952Y408465D1*
Y404662D1*
X754853Y398914D1*
X758700Y395068D1*
X764448Y393166D1*
X770152D1*
X775900Y395068D1*
X777801Y397013D1*
X779747Y400816D1*
X736754Y433314D2*
X715751D1*
X727203Y418015D1*
X721455D1*
X717653Y416114D1*
X715751Y414213D1*
X713806Y408465D1*
Y404662D1*
X715751Y398914D1*
X719554Y395068D1*
X725302Y393166D1*
X731050D1*
X736754Y395068D1*
X738655Y397013D1*
X740601Y400816D1*
X689958Y433314D2*
X695706Y431413D1*
X699553Y425665D1*
X701454Y416114D1*
Y410366D1*
X699553Y400816D1*
X695706Y395068D1*
X689958Y393166D1*
X686156D1*
X680408Y395068D1*
X676605Y400816D1*
X674660Y410366D1*
Y416114D1*
X676605Y425665D1*
X680408Y431413D1*
X686156Y433314D1*
X689958D1*
X676605Y425665D2*
X699553Y400816D1*
X610030Y443837D2*
X613877Y440035D1*
X617680Y434287D1*
X621526Y426637D1*
X623428Y417043D1*
Y409393D1*
X621526Y399843D1*
X617680Y392193D1*
X613877Y386445D1*
X610030Y382643D1*
X597679Y433358D2*
X570884D1*
X597679Y393166D1*
X570884D1*
X558533Y433358D2*
X556632Y431457D1*
X554686Y433358D1*
X556632Y435304D1*
X558533Y433358D1*
X556632Y419961D2*
Y393166D1*
X519387Y418060D2*
Y387418D1*
X521288Y381714D1*
X523189Y379769D1*
X527036Y377868D1*
X532784D1*
X536587Y379769D1*
X519387Y412312D2*
X523189Y416114D1*
X527036Y418060D1*
X532784D1*
X536587Y416114D1*
X540433Y412312D1*
X542335Y406564D1*
Y402717D1*
X540433Y397013D1*
X536587Y393166D1*
X532784Y391265D1*
X527036D1*
X523189Y393166D1*
X519387Y397013D1*
X507035Y433358D2*
Y393166D1*
Y414213D2*
X503189Y418060D1*
X499386Y419961D1*
X493638D1*
X489835Y418060D1*
X485989Y414213D1*
X484087Y408465D1*
Y404662D1*
X485989Y398914D1*
X489835Y395112D1*
X493638Y393166D1*
X499386D1*
X503189Y395112D1*
X507035Y398914D1*
X471736Y408465D2*
X448788D1*
Y412312D1*
X450689Y416158D1*
X452591Y418060D1*
X456437Y419961D1*
X462185D1*
X465988Y418060D1*
X469835Y414213D1*
X471736Y408465D1*
Y404662D1*
X469835Y398914D1*
X465988Y395112D1*
X462185Y393166D1*
X456437D1*
X452591Y395112D1*
X448788Y398914D1*
X436437Y408465D2*
X413489D1*
Y412312D1*
X415390Y416158D1*
X417291Y418060D1*
X421138Y419961D1*
X426886D1*
X430689Y418060D1*
X434535Y414213D1*
X436437Y408465D1*
Y404662D1*
X434535Y398914D1*
X430689Y395112D1*
X426886Y393166D1*
X421138D1*
X417291Y395112D1*
X413489Y398914D1*
X401137Y443837D2*
X397291Y440035D1*
X393488Y434287D1*
X389641Y426637D1*
X387740Y417043D1*
Y409393D1*
X389641Y399843D1*
X393488Y392193D1*
X397291Y386445D1*
X401137Y382643D1*
X896391Y345637D2*
Y347539D1*
X894489Y351386D1*
X892588Y353287D1*
X888741Y355188D1*
X881092D1*
X877290Y353287D1*
X875388Y351386D1*
X873443Y347539D1*
Y343736D1*
X875388Y339889D1*
X879191Y334186D1*
X898336Y315040D1*
X871542D1*
X857289Y318887D2*
X859190Y316942D1*
X857289Y315040D1*
X855343Y316942D1*
X857289Y318887D1*
X842992Y347539D2*
X839145Y349484D1*
X833397Y355188D1*
Y315040D1*
X817199Y355188D2*
X796197D1*
X807648Y339889D1*
X801900D1*
X798098Y337988D1*
X796197Y336087D1*
X794251Y330339D1*
Y326536D1*
X796197Y320788D1*
X799999Y316942D1*
X805747Y315040D1*
X811495D1*
X817199Y316942D1*
X819100Y318887D1*
X821046Y322690D1*
X781900Y355232D2*
X779998Y353331D1*
X778053Y355232D1*
X779998Y357178D1*
X781900Y355232D1*
X779998Y341835D2*
Y315040D1*
X765702Y341835D2*
Y315040D1*
Y334186D2*
X759954Y339934D1*
X756107Y341835D1*
X750403D1*
X746556Y339934D1*
X744655Y334186D1*
Y315040D1*
X709311Y336087D2*
X713158Y339934D1*
X717005Y341835D1*
X722709D1*
X726555Y339934D1*
X730358Y336087D1*
X732304Y330339D1*
Y326536D1*
X730358Y320788D1*
X726555Y316986D1*
X722709Y315040D1*
X717005D1*
X713158Y316986D1*
X709311Y320788D1*
X696960Y355232D2*
Y315040D1*
Y334186D2*
X691212Y339934D1*
X687365Y341835D1*
X681617D1*
X677815Y339934D1*
X675913Y334186D1*
Y315040D1*
X663562Y308408D2*
X627217D1*
X614865Y330339D2*
X591917D1*
Y334186D1*
X593819Y338032D1*
X595720Y339934D1*
X599567Y341835D1*
X605315D1*
X609117Y339934D1*
X612964Y336087D1*
X614865Y330339D1*
Y326536D1*
X612964Y320788D1*
X609117Y316986D1*
X605315Y315040D1*
X599567D1*
X595720Y316986D1*
X591917Y320788D1*
X579566Y335114D2*
X557458D1*
X545107Y334186D2*
X527863D1*
X522159Y336087D1*
X520213Y338032D1*
X518312Y341835D1*
Y347583D1*
X520213Y351386D1*
X522159Y353331D1*
X527863Y355232D1*
X545107D1*
Y315040D1*
X483013Y341835D2*
Y315040D1*
Y336087D2*
X486815Y339934D1*
X490662Y341835D1*
X496366D1*
X500213Y339934D1*
X504015Y336087D1*
X505961Y330339D1*
Y326536D1*
X504015Y320788D1*
X500213Y316986D1*
X496366Y315040D1*
X490662D1*
X486815Y316986D1*
X483013Y320788D1*
X470661Y341835D2*
Y301643D1*
Y336087D2*
X466815Y339889D1*
X463012Y341835D1*
X457264D1*
X453417Y339889D1*
X449615Y336087D1*
X447669Y330339D1*
Y326492D1*
X449615Y320788D1*
X453417Y316942D1*
X457264Y315040D1*
X463012D1*
X466815Y316942D1*
X470661Y320788D1*
X435318Y330339D2*
X412370D1*
Y334186D1*
X414271Y338032D1*
X416173Y339934D1*
X420019Y341835D1*
X425767D1*
X429570Y339934D1*
X433417Y336087D1*
X435318Y330339D1*
Y326536D1*
X433417Y320788D1*
X429570Y316986D1*
X425767Y315040D1*
X420019D1*
X416173Y316986D1*
X412370Y320788D1*
X400019Y341835D2*
Y315040D1*
Y330339D2*
X398073Y336087D1*
X394271Y339934D1*
X390424Y341835D1*
X384676D1*
X903405Y274702D2*
Y234510D1*
X886161D1*
X880413Y236456D1*
X878512Y238357D1*
X876611Y242159D1*
Y247907D1*
X878512Y251754D1*
X880413Y253655D1*
X886161Y255557D1*
X880413Y257502D1*
X878512Y259403D1*
X876611Y263206D1*
Y267053D1*
X878512Y270855D1*
X880413Y272801D1*
X886161Y274702D1*
X903405D1*
Y255557D2*
X886161D1*
X833662Y234510D2*
Y274702D1*
X848961Y234510D1*
X864259Y274702D1*
Y234510D1*
X821311Y253655D2*
X804067D1*
X798363Y255557D1*
X796417Y257502D1*
X794516Y261305D1*
Y267053D1*
X796417Y270855D1*
X798363Y272801D1*
X804067Y274702D1*
X821311D1*
Y234510D1*
X780219Y265107D2*
Y267009D1*
X778318Y270855D1*
X776417Y272757D1*
X772570Y274658D1*
X764921D1*
X761118Y272757D1*
X759217Y270855D1*
X757271Y267009D1*
Y263206D1*
X759217Y259359D1*
X763019Y253655D1*
X782165Y234510D1*
X755370D1*
X733468Y274658D2*
X739172Y272757D1*
X741117Y268954D1*
Y265107D1*
X739172Y261305D1*
X735369Y259359D1*
X727720Y257458D1*
X721972Y255557D1*
X718169Y251710D1*
X716268Y247907D1*
Y242159D1*
X718169Y238357D1*
X720071Y236411D1*
X725819Y234510D1*
X733468D1*
X739172Y236411D1*
X741117Y238357D1*
X743019Y242159D1*
Y247907D1*
X741117Y251710D1*
X737271Y255557D1*
X731567Y257458D1*
X723918Y259359D1*
X720071Y261305D1*
X718169Y265107D1*
Y268954D1*
X720071Y272757D1*
X725819Y274658D1*
X733468D1*
X692421D2*
X698169Y272757D1*
X702016Y267009D1*
X703917Y257458D1*
Y251710D1*
X702016Y242159D1*
X698169Y236411D1*
X692421Y234510D1*
X688618D1*
X682870Y236411D1*
X679068Y242159D1*
X677122Y251710D1*
Y257458D1*
X679068Y267009D1*
X682870Y272757D1*
X688618Y274658D1*
X692421D1*
X679068Y267009D2*
X702016Y242159D1*
X660924Y236411D2*
X662869Y234510D1*
X664771Y236411D1*
X662869Y238357D1*
X660924Y236411D1*
Y232609D1*
X662869Y228762D1*
X664771Y226861D1*
X609692Y274702D2*
Y234510D1*
X592448D1*
X586700Y236456D1*
X584798Y238357D1*
X582897Y242159D1*
Y247907D1*
X584798Y251754D1*
X586700Y253655D1*
X592448Y255557D1*
X586700Y257502D1*
X584798Y259403D1*
X582897Y263206D1*
Y267053D1*
X584798Y270855D1*
X586700Y272801D1*
X592448Y274702D1*
X609692D1*
Y255557D2*
X592448D1*
X539949Y234510D2*
Y274702D1*
X555247Y234510D1*
X570546Y274702D1*
Y234510D1*
X502748Y274702D2*
X527597D1*
Y234510D1*
X502748D1*
X527597Y255557D2*
X512299D1*
X488451Y265107D2*
Y267009D1*
X486550Y270855D1*
X484649Y272757D1*
X480802Y274658D1*
X473152D1*
X469350Y272757D1*
X467449Y270855D1*
X465503Y267009D1*
Y263206D1*
X467449Y259359D1*
X471251Y253655D1*
X490397Y234510D1*
X463602D1*
X441700Y274658D2*
X447404Y272757D1*
X449349Y268954D1*
Y265107D1*
X447404Y261305D1*
X443601Y259359D1*
X435952Y257458D1*
X430204Y255557D1*
X426401Y251710D1*
X424500Y247907D1*
Y242159D1*
X426401Y238357D1*
X428303Y236411D1*
X434051Y234510D1*
X441700D1*
X447404Y236411D1*
X449349Y238357D1*
X451250Y242159D1*
Y247907D1*
X449349Y251710D1*
X445502Y255557D1*
X439799Y257458D1*
X432149Y259359D1*
X428303Y261305D1*
X426401Y265107D1*
Y268954D1*
X428303Y272757D1*
X434051Y274658D1*
X441700D1*
X400653D2*
X406401Y272757D1*
X410247Y267009D1*
X412149Y257458D1*
Y251710D1*
X410247Y242159D1*
X406401Y236411D1*
X400653Y234510D1*
X396850D1*
X391102Y236411D1*
X387299Y242159D1*
X385354Y251710D1*
Y257458D1*
X387299Y267009D1*
X391102Y272757D1*
X396850Y274658D1*
X400653D1*
X387299Y267009D2*
X410247Y242159D1*
X320724Y285181D2*
X324571Y281379D1*
X328374Y275631D1*
X332221Y267981D1*
X334122Y258387D1*
Y250737D1*
X332221Y241187D1*
X328374Y233537D1*
X324571Y227789D1*
X320724Y223987D1*
X308373Y274702D2*
Y234510D1*
X294976D1*
X289228Y236456D1*
X285381Y240258D1*
X283480Y244105D1*
X281578Y249809D1*
Y259403D1*
X283480Y265152D1*
X285381Y268954D1*
X289228Y272801D1*
X294976Y274702D1*
X308373D1*
X269227D2*
X267326Y272801D1*
X265380Y274702D1*
X267326Y276648D1*
X269227Y274702D1*
X267326Y261305D2*
Y234510D1*
X230081Y259403D2*
Y228762D1*
X231982Y223058D1*
X233883Y221113D1*
X237730Y219211D1*
X243478D1*
X247281Y221113D1*
X230081Y253655D2*
X233883Y257458D1*
X237730Y259403D1*
X243478D1*
X247281Y257458D1*
X251128Y253655D1*
X253029Y247907D1*
Y244061D1*
X251128Y238357D1*
X247281Y234510D1*
X243478Y232609D1*
X237730D1*
X233883Y234510D1*
X230081Y238357D1*
X217730Y274702D2*
X215828Y272801D1*
X213883Y274702D1*
X215828Y276648D1*
X217730Y274702D1*
X215828Y261305D2*
Y234510D1*
X195783Y274702D2*
Y242159D1*
X193882Y236456D1*
X190035Y234510D1*
X186233D1*
X201531Y261305D2*
X188134D1*
X150933D2*
Y234510D1*
Y255557D2*
X154736Y259403D1*
X158583Y261305D1*
X164287D1*
X168133Y259403D1*
X171936Y255557D1*
X173881Y249809D1*
Y246006D1*
X171936Y240258D1*
X168133Y236456D1*
X164287Y234510D1*
X158583D1*
X154736Y236456D1*
X150933Y240258D1*
X138582Y274702D2*
Y234510D1*
X81602Y274702D2*
Y242159D1*
X79701Y236456D1*
X75854Y234510D1*
X72051D1*
X87350Y261305D2*
X73953D1*
X59700Y249809D2*
X36752D1*
Y253655D1*
X38653Y257502D1*
X40555Y259403D1*
X44401Y261305D1*
X50149D1*
X53952Y259403D1*
X57799Y255557D1*
X59700Y249809D1*
Y246006D1*
X57799Y240258D1*
X53952Y236456D1*
X50149Y234510D1*
X44401D1*
X40555Y236456D1*
X36752Y240258D1*
X24401Y261305D2*
Y234510D1*
Y253655D2*
X18653Y259403D1*
X14806Y261305D1*
X9102D1*
X5255Y259403D1*
X3354Y253655D1*
Y234510D1*
Y253655D2*
X-2394Y259403D1*
X-6241Y261305D1*
X-11945D1*
X-15791Y259403D1*
X-17737Y253655D1*
Y234510D1*
X-30088Y261305D2*
Y221113D1*
Y255557D2*
X-33935Y259359D1*
X-37738Y261305D1*
X-43486D1*
X-47332Y259359D1*
X-51135Y255557D1*
X-53080Y249809D1*
Y245962D1*
X-51135Y240258D1*
X-47332Y236411D1*
X-43486Y234510D1*
X-37738D1*
X-33935Y236411D1*
X-30088Y240258D1*
X-65432Y249809D2*
X-88380D1*
Y253655D1*
X-86478Y257502D1*
X-84577Y259403D1*
X-80730Y261305D1*
X-74982D1*
X-71180Y259403D1*
X-67333Y255557D1*
X-65432Y249809D1*
Y246006D1*
X-67333Y240258D1*
X-71180Y236456D1*
X-74982Y234510D1*
X-80730D1*
X-84577Y236456D1*
X-88380Y240258D1*
X-100731Y261305D2*
Y234510D1*
Y249809D2*
X-102677Y255557D1*
X-106479Y259403D1*
X-110326Y261305D1*
X-116074D1*
X-151373D2*
Y234510D1*
Y255557D2*
X-147571Y259403D1*
X-143724Y261305D1*
X-138020D1*
X-134173Y259403D1*
X-130371Y255557D1*
X-128425Y249809D1*
Y246006D1*
X-130371Y240258D1*
X-134173Y236456D1*
X-138020Y234510D1*
X-143724D1*
X-147571Y236456D1*
X-151373Y240258D1*
X-169473Y274702D2*
Y242159D1*
X-171374Y236456D1*
X-175221Y234510D1*
X-179023D1*
X-163725Y261305D2*
X-177122D1*
X-191375D2*
Y242159D1*
X-193276Y236456D1*
X-197123Y234510D1*
X-202871D1*
X-206673Y236456D1*
X-212421Y242159D1*
Y261305D2*
Y234510D1*
X-224773Y261305D2*
Y234510D1*
Y249809D2*
X-226718Y255557D1*
X-230521Y259403D1*
X-234367Y261305D1*
X-240116D1*
X-252467Y249809D2*
X-275415D1*
Y253655D1*
X-273514Y257502D1*
X-271612Y259403D1*
X-267766Y261305D1*
X-262017D1*
X-258215Y259403D1*
X-254368Y255557D1*
X-252467Y249809D1*
Y246006D1*
X-254368Y240258D1*
X-258215Y236456D1*
X-262017Y234510D1*
X-267766D1*
X-271612Y236456D1*
X-275415Y240258D1*
X-291613Y236411D2*
X-289668Y234510D1*
X-287766Y236411D1*
X-289668Y238357D1*
X-291613Y236411D1*
Y232609D1*
X-289668Y228762D1*
X-287766Y226861D1*
X-342845Y261305D2*
Y221113D1*
Y255557D2*
X-346692Y259359D1*
X-350494Y261305D1*
X-356242D1*
X-360089Y259359D1*
X-363892Y255557D1*
X-365837Y249809D1*
Y245962D1*
X-363892Y240258D1*
X-360089Y236411D1*
X-356242Y234510D1*
X-350494D1*
X-346692Y236411D1*
X-342845Y240258D1*
X-378189Y261305D2*
Y234510D1*
Y249809D2*
X-380134Y255557D1*
X-383937Y259403D1*
X-387783Y261305D1*
X-393532D1*
X-405883Y249809D2*
X-428831D1*
Y253655D1*
X-426930Y257502D1*
X-425028Y259403D1*
X-421182Y261305D1*
X-415433D1*
X-411631Y259403D1*
X-407784Y255557D1*
X-405883Y249809D1*
Y246006D1*
X-407784Y240258D1*
X-411631Y236456D1*
X-415433Y234510D1*
X-421182D1*
X-425028Y236456D1*
X-428831Y240258D1*
X-462229Y255557D2*
X-460328Y259403D1*
X-454580Y261305D1*
X-448832D1*
X-443083Y259403D1*
X-441182Y255557D1*
X-443083Y251754D1*
X-446930Y249809D1*
X-456481Y247907D1*
X-460328Y246006D1*
X-462229Y242159D1*
Y240258D1*
X-460328Y236456D1*
X-454580Y234510D1*
X-448832D1*
X-443083Y236456D1*
X-441182Y240258D1*
X-495627Y255557D2*
X-493726Y259403D1*
X-487978Y261305D1*
X-482230D1*
X-476482Y259403D1*
X-474580Y255557D1*
X-476482Y251754D1*
X-480328Y249809D1*
X-489879Y247907D1*
X-493726Y246006D1*
X-495627Y242159D1*
Y240258D1*
X-493726Y236456D1*
X-487978Y234510D1*
X-482230D1*
X-476482Y236456D1*
X-474580Y240258D1*
X-507978Y261305D2*
Y242159D1*
X-509880Y236456D1*
X-513726Y234510D1*
X-519474D1*
X-523277Y236456D1*
X-529025Y242159D1*
Y261305D2*
Y234510D1*
X-541376Y261305D2*
Y234510D1*
Y249809D2*
X-543322Y255557D1*
X-547124Y259403D1*
X-550971Y261305D1*
X-556719D1*
X-569071Y249809D2*
X-592018D1*
Y253655D1*
X-590117Y257502D1*
X-588216Y259403D1*
X-584369Y261305D1*
X-578621D1*
X-574819Y259403D1*
X-570972Y255557D1*
X-569071Y249809D1*
Y246006D1*
X-570972Y240258D1*
X-574819Y236456D1*
X-578621Y234510D1*
X-584369D1*
X-588216Y236456D1*
X-592018Y240258D1*
X877492Y187453D2*
Y160658D1*
Y181705D2*
X881294Y185552D1*
X885141Y187453D1*
X890845D1*
X894692Y185552D1*
X898494Y181705D1*
X900440Y175957D1*
Y172154D1*
X898494Y166406D1*
X894692Y162604D1*
X890845Y160658D1*
X885141D1*
X881294Y162604D1*
X877492Y166406D1*
X865140Y187453D2*
Y160658D1*
Y179804D2*
X859392Y185552D1*
X855546Y187453D1*
X849842D1*
X845995Y185552D1*
X844094Y179804D1*
Y160658D1*
X808794Y200850D2*
Y160658D1*
Y181705D2*
X812597Y185552D1*
X816444Y187453D1*
X822192D1*
X825994Y185552D1*
X829841Y181705D1*
X831742Y175957D1*
Y172154D1*
X829841Y166406D1*
X825994Y162604D1*
X822192Y160658D1*
X816444D1*
X812597Y162604D1*
X808794Y166406D1*
X757562Y200850D2*
Y160658D1*
Y179804D2*
X751814Y185552D1*
X747967Y187453D1*
X742219D1*
X738417Y185552D1*
X736516Y179804D1*
Y160658D1*
X724164Y187453D2*
Y168308D1*
X722263Y162604D1*
X718416Y160658D1*
X712668D1*
X708866Y162604D1*
X703118Y168308D1*
Y187453D2*
Y160658D1*
X690766Y187453D2*
Y160658D1*
Y179804D2*
X685018Y185552D1*
X681171Y187453D1*
X675468D1*
X671621Y185552D1*
X669720Y179804D1*
Y160658D1*
Y179804D2*
X663971Y185552D1*
X660125Y187453D1*
X654421D1*
X650574Y185552D1*
X648629Y179804D1*
Y160658D1*
X636277Y200850D2*
X634376Y198949D1*
X632430Y200850D1*
X634376Y202796D1*
X636277Y200850D1*
X634376Y187453D2*
Y160658D1*
X597131Y200850D2*
Y160658D1*
Y181705D2*
X600934Y185552D1*
X604780Y187453D1*
X610529D1*
X614331Y185552D1*
X618178Y181705D1*
X620079Y175957D1*
Y172154D1*
X618178Y166406D1*
X614331Y162604D1*
X610529Y160658D1*
X604780D1*
X600934Y162604D1*
X597131Y166406D1*
X584780Y200850D2*
X582879Y198949D1*
X580933Y200850D1*
X582879Y202796D1*
X584780Y200850D1*
X582879Y187453D2*
Y160658D1*
X562834Y200850D2*
Y168308D1*
X560932Y162604D1*
X557086Y160658D1*
X553283D1*
X568582Y187453D2*
X555184D1*
X538986D2*
X527534Y160658D1*
X531337Y153009D1*
X535184Y149162D1*
X538986Y147261D1*
X540932D1*
X516038Y187453D2*
X527534Y160658D1*
X443759Y181705D2*
X445661Y185552D1*
X451409Y187453D1*
X457157D1*
X462905Y185552D1*
X464806Y181705D1*
X462905Y177902D1*
X459058Y175957D1*
X449507Y174056D1*
X445661Y172154D1*
X443759Y168308D1*
Y166406D1*
X445661Y162604D1*
X451409Y160658D1*
X457157D1*
X462905Y162604D1*
X464806Y166406D1*
X431408Y175957D2*
X408460D1*
Y179804D1*
X410361Y183650D1*
X412263Y185552D1*
X416109Y187453D1*
X421857D1*
X425660Y185552D1*
X429507Y181705D1*
X431408Y175957D1*
Y172154D1*
X429507Y166406D1*
X425660Y162604D1*
X421857Y160658D1*
X416109D1*
X412263Y162604D1*
X408460Y166406D1*
X396109Y187453D2*
Y160658D1*
Y179804D2*
X390361Y185552D1*
X386514Y187453D1*
X380810D1*
X376963Y185552D1*
X375062Y179804D1*
Y160658D1*
X341664Y181705D2*
X343565Y185552D1*
X349313Y187453D1*
X355061D1*
X360809Y185552D1*
X362711Y181705D1*
X360809Y177902D1*
X356963Y175957D1*
X347412Y174056D1*
X343565Y172154D1*
X341664Y168308D1*
Y166406D1*
X343565Y162604D1*
X349313Y160658D1*
X355061D1*
X360809Y162604D1*
X362711Y166406D1*
X319762Y187453D2*
X323565Y185552D1*
X327411Y181705D1*
X329313Y175957D1*
Y172154D1*
X327411Y166406D1*
X323565Y162604D1*
X319762Y160658D1*
X314014D1*
X310167Y162604D1*
X306365Y166406D1*
X304419Y172154D1*
Y175957D1*
X306365Y181705D1*
X310167Y185552D1*
X314014Y187453D1*
X319762D1*
X292068D2*
Y160658D1*
Y175957D2*
X290122Y181705D1*
X286320Y185552D1*
X282473Y187453D1*
X276725D1*
X264374Y211329D2*
X260527Y207527D1*
X256724Y201779D1*
X252878Y194130D1*
X250976Y184535D1*
Y176886D1*
X252878Y167335D1*
X256724Y159686D1*
X260527Y153938D1*
X264374Y150135D1*
X881826Y109374D2*
X885629Y113221D1*
X891377Y115122D1*
X899026D1*
X904774Y113221D1*
X908621Y109374D1*
Y105571D1*
X906676Y101725D1*
X904774Y99823D1*
X900972Y97922D1*
X889476Y94075D1*
X885629Y92174D1*
X883728Y90229D1*
X881826Y86426D1*
Y80678D1*
X885629Y76876D1*
X891377Y74930D1*
X899026D1*
X904774Y76876D1*
X908621Y80678D1*
X869475Y115122D2*
Y74930D1*
X842680Y115122D2*
Y74930D1*
X869475Y95977D2*
X842680D1*
X816932Y115122D2*
Y74930D1*
X830329Y115122D2*
X803534D1*
X762487Y105571D2*
X764388Y109374D1*
X768235Y113221D1*
X772038Y115122D1*
X779687D1*
X783534Y113221D1*
X787336Y109374D1*
X789282Y105571D1*
X791183Y99823D1*
Y90229D1*
X789282Y84525D1*
X787336Y80678D1*
X783534Y76876D1*
X779687Y74930D1*
X772038D1*
X768235Y76876D1*
X764388Y80678D1*
X762487Y84525D1*
X746289Y115078D2*
X725286D1*
X736738Y99779D1*
X730990D1*
X727188Y97878D1*
X725286Y95977D1*
X723341Y90229D1*
Y86426D1*
X725286Y80678D1*
X729089Y76831D1*
X734837Y74930D1*
X740585D1*
X746289Y76831D1*
X748190Y78777D1*
X750136Y82579D1*
X658711Y125601D2*
X662558Y121799D1*
X666361Y116051D1*
X670207Y108401D1*
X672109Y98806D1*
Y91157D1*
X670207Y81607D1*
X666361Y73957D1*
X662558Y68209D1*
X658711Y64407D1*
X646360Y115122D2*
Y74930D1*
X632963D1*
X627215Y76876D1*
X623368Y80678D1*
X621467Y84525D1*
X619565Y90229D1*
Y99823D1*
X621467Y105571D1*
X623368Y109374D1*
X627215Y113221D1*
X632963Y115122D1*
X646360D1*
X607214D2*
X605313Y113221D1*
X603367Y115122D1*
X605313Y117068D1*
X607214Y115122D1*
X605313Y101725D2*
Y74930D1*
X568068Y99823D2*
Y69182D1*
X569969Y63478D1*
X571870Y61533D1*
X575717Y59631D1*
X581465D1*
X585268Y61533D1*
X568068Y94075D2*
X571870Y97878D1*
X575717Y99823D1*
X581465D1*
X585268Y97878D1*
X589114Y94075D1*
X591016Y88327D1*
Y84481D1*
X589114Y78777D1*
X585268Y74930D1*
X581465Y73029D1*
X575717D1*
X571870Y74930D1*
X568068Y78777D1*
X555716Y115122D2*
X553815Y113221D1*
X551870Y115122D1*
X553815Y117068D1*
X555716Y115122D1*
X553815Y101725D2*
Y74930D1*
X533770Y115122D2*
Y82579D1*
X531869Y76876D1*
X528022Y74930D1*
X524220D1*
X539518Y101725D2*
X526121D1*
X488920D2*
Y74930D1*
Y95977D2*
X492723Y99823D1*
X496570Y101725D1*
X502273D1*
X506120Y99823D1*
X509923Y95977D1*
X511868Y90229D1*
Y86426D1*
X509923Y80678D1*
X506120Y76876D1*
X502273Y74930D1*
X496570D1*
X492723Y76876D1*
X488920Y80678D1*
X476569Y115122D2*
Y74930D1*
X419589Y115122D2*
Y82579D1*
X417688Y76876D1*
X413841Y74930D1*
X410038D1*
X425337Y101725D2*
X411939D1*
X397687Y90229D2*
X374739D1*
Y94075D1*
X376640Y97922D1*
X378541Y99823D1*
X382388Y101725D1*
X388136D1*
X391939Y99823D1*
X395786Y95977D1*
X397687Y90229D1*
Y86426D1*
X395786Y80678D1*
X391939Y76876D1*
X388136Y74930D1*
X382388D1*
X378541Y76876D1*
X374739Y80678D1*
X362387Y101725D2*
Y74930D1*
Y94075D2*
X356639Y99823D1*
X352793Y101725D1*
X347089D1*
X343242Y99823D1*
X341341Y94075D1*
Y74930D1*
Y94075D2*
X335593Y99823D1*
X331746Y101725D1*
X326042D1*
X322195Y99823D1*
X320250Y94075D1*
Y74930D1*
X307899Y101725D2*
Y61533D1*
Y95977D2*
X304052Y99779D1*
X300249Y101725D1*
X294501D1*
X290655Y99779D1*
X286852Y95977D1*
X284906Y90229D1*
Y86382D1*
X286852Y80678D1*
X290655Y76831D1*
X294501Y74930D1*
X300249D1*
X304052Y76831D1*
X307899Y80678D1*
X272555Y90229D2*
X249607D1*
Y94075D1*
X251508Y97922D1*
X253410Y99823D1*
X257256Y101725D1*
X263005D1*
X266807Y99823D1*
X270654Y95977D1*
X272555Y90229D1*
Y86426D1*
X270654Y80678D1*
X266807Y76876D1*
X263005Y74930D1*
X257256D1*
X253410Y76876D1*
X249607Y80678D1*
X237256Y101725D2*
Y74930D1*
Y90229D2*
X235310Y95977D1*
X231508Y99823D1*
X227661Y101725D1*
X221913D1*
X186614D2*
Y74930D1*
Y95977D2*
X190416Y99823D1*
X194263Y101725D1*
X199967D1*
X203814Y99823D1*
X207616Y95977D1*
X209562Y90229D1*
Y86426D1*
X207616Y80678D1*
X203814Y76876D1*
X199967Y74930D1*
X194263D1*
X190416Y76876D1*
X186614Y80678D1*
X168514Y115122D2*
Y82579D1*
X166613Y76876D1*
X162766Y74930D1*
X158964D1*
X174262Y101725D2*
X160865D1*
X146612D2*
Y82579D1*
X144711Y76876D1*
X140864Y74930D1*
X135116D1*
X131314Y76876D1*
X125566Y82579D1*
Y101725D2*
Y74930D1*
X113214Y101725D2*
Y74930D1*
Y90229D2*
X111269Y95977D1*
X107466Y99823D1*
X103619Y101725D1*
X97871D1*
X85520Y90229D2*
X62572D1*
Y94075D1*
X64473Y97922D1*
X66375Y99823D1*
X70221Y101725D1*
X75969D1*
X79772Y99823D1*
X83619Y95977D1*
X85520Y90229D1*
Y86426D1*
X83619Y80678D1*
X79772Y76876D1*
X75969Y74930D1*
X70221D1*
X66375Y76876D1*
X62572Y80678D1*
X-11608Y101725D2*
Y74930D1*
Y95977D2*
X-7805Y99823D1*
X-3959Y101725D1*
X1745D1*
X5592Y99823D1*
X9394Y95977D1*
X11340Y90229D1*
Y86426D1*
X9394Y80678D1*
X5592Y76876D1*
X1745Y74930D1*
X-3959D1*
X-7805Y76876D1*
X-11608Y80678D1*
X-23959Y101725D2*
Y74930D1*
Y94075D2*
X-29707Y99823D1*
X-33554Y101725D1*
X-39258D1*
X-43105Y99823D1*
X-45006Y94075D1*
Y74930D1*
X-80305Y115122D2*
Y74930D1*
Y95977D2*
X-76503Y99823D1*
X-72656Y101725D1*
X-66908D1*
X-63105Y99823D1*
X-59259Y95977D1*
X-57357Y90229D1*
Y86426D1*
X-59259Y80678D1*
X-63105Y76876D1*
X-66908Y74930D1*
X-72656D1*
X-76503Y76876D1*
X-80305Y80678D1*
X-131538Y115122D2*
Y74930D1*
Y94075D2*
X-137286Y99823D1*
X-141132Y101725D1*
X-146880D1*
X-150683Y99823D1*
X-152584Y94075D1*
Y74930D1*
X-164936Y101725D2*
Y82579D1*
X-166837Y76876D1*
X-170684Y74930D1*
X-176432D1*
X-180234Y76876D1*
X-185982Y82579D1*
Y101725D2*
Y74930D1*
X-198334Y101725D2*
Y74930D1*
Y94075D2*
X-204082Y99823D1*
X-207928Y101725D1*
X-213632D1*
X-217479Y99823D1*
X-219380Y94075D1*
Y74930D1*
Y94075D2*
X-225128Y99823D1*
X-228975Y101725D1*
X-234679D1*
X-238526Y99823D1*
X-240471Y94075D1*
Y74930D1*
X-252822Y115122D2*
X-254724Y113221D1*
X-256669Y115122D1*
X-254724Y117068D1*
X-252822Y115122D1*
X-254724Y101725D2*
Y74930D1*
X-291969Y115122D2*
Y74930D1*
Y95977D2*
X-288166Y99823D1*
X-284319Y101725D1*
X-278571D1*
X-274769Y99823D1*
X-270922Y95977D1*
X-269021Y90229D1*
Y86426D1*
X-270922Y80678D1*
X-274769Y76876D1*
X-278571Y74930D1*
X-284319D1*
X-288166Y76876D1*
X-291969Y80678D1*
X-304320Y115122D2*
X-306221Y113221D1*
X-308167Y115122D1*
X-306221Y117068D1*
X-304320Y115122D1*
X-306221Y101725D2*
Y74930D1*
X-326266Y115122D2*
Y82579D1*
X-328167Y76876D1*
X-332014Y74930D1*
X-335817D1*
X-320518Y101725D2*
X-333915D1*
X-350114D2*
X-361565Y74930D1*
X-357763Y67281D1*
X-353916Y63434D1*
X-350114Y61533D1*
X-348168D1*
X-373062Y101725D2*
X-361565Y74930D1*
X-445340Y95977D2*
X-443439Y99823D1*
X-437691Y101725D1*
X-431943D1*
X-426195Y99823D1*
X-424294Y95977D1*
X-426195Y92174D1*
X-430042Y90229D1*
X-439592Y88327D1*
X-443439Y86426D1*
X-445340Y82579D1*
Y80678D1*
X-443439Y76876D1*
X-437691Y74930D1*
X-431943D1*
X-426195Y76876D1*
X-424294Y80678D1*
X-457692Y90229D2*
X-480640D1*
Y94075D1*
X-478738Y97922D1*
X-476837Y99823D1*
X-472990Y101725D1*
X-467242D1*
X-463440Y99823D1*
X-459593Y95977D1*
X-457692Y90229D1*
Y86426D1*
X-459593Y80678D1*
X-463440Y76876D1*
X-467242Y74930D1*
X-472990D1*
X-476837Y76876D1*
X-480640Y80678D1*
X-492991Y101725D2*
Y74930D1*
Y94075D2*
X-498739Y99823D1*
X-502586Y101725D1*
X-508290D1*
X-512136Y99823D1*
X-514038Y94075D1*
Y74930D1*
X-547436Y95977D2*
X-545534Y99823D1*
X-539786Y101725D1*
X-534038D1*
X-528290Y99823D1*
X-526389Y95977D1*
X-528290Y92174D1*
X-532137Y90229D1*
X-541688Y88327D1*
X-545534Y86426D1*
X-547436Y82579D1*
Y80678D1*
X-545534Y76876D1*
X-539786Y74930D1*
X-534038D1*
X-528290Y76876D1*
X-526389Y80678D1*
X-569338Y101725D2*
X-565535Y99823D1*
X-561688Y95977D1*
X-559787Y90229D1*
Y86426D1*
X-561688Y80678D1*
X-565535Y76876D1*
X-569338Y74930D1*
X-575086D1*
X-578932Y76876D1*
X-582735Y80678D1*
X-584680Y86426D1*
Y90229D1*
X-582735Y95977D1*
X-578932Y99823D1*
X-575086Y101725D1*
X-569338D1*
X-597032D2*
Y74930D1*
Y90229D2*
X-598977Y95977D1*
X-602780Y99823D1*
X-606627Y101725D1*
X-612375D1*
X-624726Y125601D2*
X-628573Y121799D1*
X-632375Y116051D1*
X-636222Y108401D1*
X-638123Y98806D1*
Y91157D1*
X-636222Y81607D1*
X-632375Y73957D1*
X-628573Y68209D1*
X-624726Y64407D1*
M02*
