M48
INCH
T01C0.0118
T02C0.0157
T03C0.0197
T04C0.0256
T05C0.0315
T06C0.0394
T07C0.0433
T08C0.0591
%
T01
X+011990Y+005593
X+011645Y+005584
X+011272Y+005584
X+011319Y+003690
X+012217Y+002172
X+013069Y+001375
X+013540Y+001378
X+013850Y+001350
X+013555Y-000172
X+013135Y-000125
X+013010Y-001321
X+011739Y-001152
X+011938Y-000468
X+011936Y+000232
X+011046Y+001378
X+009175Y-000478
X+008681Y-000478
X+008124Y-000500
X+008370Y-001637
X+007705Y-001648
X+007072Y-001648
X+007297Y-002614
X+006793Y-002624
X+006257Y-002646
X+005334Y-001729
X+005744Y-001310
X+006222Y-000832
X+004700Y-000600
X+004700Y-000129
X+004700Y-001100
X+003112Y-001978
X+003379Y-002346
X+002897Y-001515
X+002367Y-001510
X+002352Y-001937
X+002681Y-000991
X+002250Y+000456
X+002277Y+001408
X+002276Y+001849
X+001713Y+002232
X+000306Y+001829
X+000894Y+000958
X-000258Y-000615
X+000486Y-001042
X-000708Y-002285
X-001138Y-002287
X-001333Y-001507
X-002020Y-001664
X-002295Y-001965
X-002335Y-000606
X-002026Y-000252
X-002660Y-000194
X-003756Y-001057
X-004731Y-001542
X-005792Y-002161
X-005790Y-002479
X-005792Y-002805
X-005545Y-003359
X-004977Y-003379
X-004971Y-003663
X-003884Y-003938
X-003320Y-005783
X-004172Y-005883
X-006339Y-003627
X-006946Y-002776
X-006985Y-001394
X-007282Y-001394
X-007591Y-001400
X-007921Y-001394
X-008881Y-001162
X-010115Y-000560
X-010115Y-000169
X-010436Y+001007
X-008867Y+001198
X-008430Y+001585
X-008868Y+001973
X-007386Y+003613
X-005742Y+002700
X-006142Y+002027
X-006131Y+001695
X-006122Y+001342
X-006330Y+000530
X-005283Y-000013
X-005313Y-000372
X-005908Y-000633
X-009099Y-003061
X-008998Y-003285
X-009349Y-004284
X-010021Y-004285
X-010716Y-004278
X-010723Y-005711
X-010001Y-005723
X-009309Y-005707
X-008636Y-005711
X-008628Y-004297
X-010822Y-002283
X-010817Y-001969
X-010466Y-001563
X-012280Y-000495
X-012275Y-000119
X-012260Y+000307
X-012260Y+000695
X-012128Y+005431
X-011769Y+005426
X-011405Y+005429
X-011048Y+005423
X-005276Y+004338
X-005095Y+004129
X-000108Y-003906
X+001060Y-003147
X+005784Y+002479
X+006406Y+002471
X+007106Y+002464
X+008771Y-005685
X+009251Y-005685
X-011535Y-005723
X-012232Y-005724
T02
X-007388Y+000905
X-006851Y-004370
X-003294Y-003911
X-003326Y-005299
X+000480Y-003940
X+007077Y+000006
T03
X-003632Y+001451
T04
X+003449Y+005809
X+003453Y+005808
X+003949Y+005809
X+003953Y+005808
X+004449Y+005809
X+002953Y+005808
X+002949Y+005809
X+002453Y+005808
T05
X-009449Y+005059
X-007717Y+005059
T06
X+000531Y-005492
X+001712Y-005492
T07
X+007491Y-004516G85X+007727Y-004516
X+007508Y+005641G85X+007744Y+005641
T08
X-013541Y+004143
X-013541Y-004143
X+013541Y-004143
X+013541Y+004143
T00
M30
