G04 DipTrace 3.2.0.1*
G04 Top.gbr*
%MOIN*%
G04 #@! TF.FileFunction,Copper,L1,Top*
G04 #@! TF.Part,Single*
%AMOUTLINE0*
4,1,16,
-0.011741,0.041358,
-0.029685,0.037294,
-0.044088,0.025848,
-0.052097,0.009286,
-0.052129,-0.009112,
-0.044175,-0.025701,
-0.02981,-0.037196,
-0.011881,-0.041319,
0.011741,-0.041358,
0.029685,-0.037294,
0.044088,-0.025848,
0.052097,-0.009286,
0.052129,0.009112,
0.044175,0.025701,
0.02981,0.037196,
0.011881,0.041319,
-0.011741,0.041358,
0*%
%AMOUTLINE3*
4,1,4,
-0.029562,-0.013706,
0.029492,-0.013854,
0.029562,0.013706,
-0.029492,0.013854,
-0.029562,-0.013706,
0*%
G04 #@! TA.AperFunction,CopperBalancing*
%ADD10C,0.009843*%
%ADD14C,0.011811*%
G04 #@! TA.AperFunction,Conductor*
%ADD15C,0.027559*%
%ADD16C,0.015748*%
%ADD17C,0.03937*%
G04 #@! TA.AperFunction,ViaPad*
%ADD18C,0.023622*%
G04 #@! TA.AperFunction,Conductor*
%ADD20C,0.019685*%
G04 #@! TA.AperFunction,ViaPad*
%ADD21C,0.031496*%
%ADD22C,0.035433*%
G04 #@! TA.AperFunction,Conductor*
%ADD23C,0.007874*%
%ADD27R,0.03937X0.043307*%
%ADD28R,0.043307X0.03937*%
%ADD29R,0.074803X0.133858*%
%ADD30R,0.051181X0.059055*%
%ADD31R,0.059055X0.051181*%
%ADD32R,0.19685X0.07874*%
%ADD34R,0.041339X0.025591*%
%ADD35R,0.027559X0.059055*%
%ADD36R,0.059055X0.027559*%
%ADD37C,0.748031*%
G04 #@! TA.AperFunction,ComponentPad*
%ADD38C,0.041339*%
%ADD39R,0.047244X0.047244*%
%ADD40R,0.059055X0.055118*%
%ADD41R,0.043307X0.055118*%
%ADD42R,0.049213X0.011811*%
%ADD43R,0.086614X0.070866*%
%ADD44R,0.024488X0.025512*%
%ADD46R,0.048031X0.03622*%
%ADD47R,0.047244X0.031496*%
%ADD48R,0.027559X0.049213*%
G04 #@! TA.AperFunction,ComponentPad*
%ADD101OUTLINE0*%
%ADD104OUTLINE3*%
%FSLAX26Y26*%
G04*
G70*
G90*
G75*
G01*
G04 Top*
%LPD*%
X-951772Y-195276D2*
D14*
X-860314D1*
X-853236Y-202353D1*
Y-181571D1*
X-843975Y-172310D1*
X-665870D1*
X-655614Y-182566D1*
Y-209349D1*
X-654951Y-210012D1*
X-951772Y-214961D2*
X-897572D1*
X-875134Y-237399D1*
X-813886D1*
X-801740Y-225253D1*
Y-202353D1*
X-741182D1*
X-732818Y-210718D1*
Y-277647D2*
X-694618Y-276941D1*
X-654951D1*
X-694618Y-277623D2*
Y-276941D1*
X-951772Y-96850D2*
X-907396D1*
X-888059Y-116188D1*
X-951772Y80315D2*
X-1011564D1*
X-1020215Y71664D1*
Y-18051D1*
Y-56031D1*
Y-96850D1*
X-951772D1*
Y80315D2*
X-803411D1*
X-743129Y140597D1*
X-710144D1*
X-675264Y105717D1*
Y53009D1*
X-678281Y49992D1*
X-694618Y-277623D2*
Y-356911D1*
X-646038Y-405491D1*
X-593748D1*
Y-441950D1*
X-1072888Y-533421D2*
X-1111585D1*
X-1152501D1*
X-1152707Y-533627D1*
X-1072888Y-533421D2*
X-1001005D1*
X-1000828Y-533598D1*
X-933224D1*
X-932310Y-534513D1*
X-864585D1*
X-864114Y-534042D1*
X-1111585Y-533421D2*
Y-411487D1*
X-1127573Y-395499D1*
Y-186189D1*
X-1038235Y-96850D1*
X-1020215D1*
X-416146Y-490853D2*
Y-440033D1*
X-454322Y-401857D1*
X-501211D1*
X-593748D1*
Y-405491D1*
X-1152707Y-533627D2*
X-1222245D1*
X-1222837Y-534219D1*
X-888059Y-116188D2*
Y-118932D1*
X-871928Y-135063D1*
X-792087D1*
X-759052D1*
X-728220D1*
X-698491D1*
X-641682D1*
X-577063Y-199682D1*
Y-261984D1*
X-501175Y-337873D1*
X-497705D1*
X-497105Y-366333D2*
X-477735D1*
X-460022Y-348621D1*
X-497705Y-337873D2*
X-470770D1*
X-460022Y-348621D1*
X-497105Y-366333D2*
X-501211D1*
Y-401857D1*
X-497705Y-337873D2*
Y-366333D1*
X-497105D1*
X-743129Y140597D2*
X-856577Y254046D1*
X-909230D1*
X-937373Y282189D1*
Y335244D1*
X-925000Y347617D1*
Y439173D1*
X-923228Y440945D1*
X-709778Y184636D2*
X-713475Y186301D1*
Y141930D1*
X-710144Y140597D1*
X-633000Y53010D2*
X-675262D1*
X-798354Y345900D2*
X-925000D1*
Y347617D1*
X707654Y625D2*
D16*
Y58802D1*
X764283D1*
X1306854D1*
Y137470D1*
Y58802D2*
Y-3020D1*
X1316383Y-12549D1*
X1313533D1*
X-1223152Y-572412D2*
Y-534219D1*
X-1222837D1*
X-1227972Y-49479D2*
D14*
Y-12336D1*
X-1227487Y-11850D1*
Y29186D1*
X-1226021Y30652D1*
Y69491D1*
X-1011470Y-56031D2*
X-1020215D1*
X-1011470Y-16923D2*
X-1020215Y-18051D1*
X-1153524Y-572252D2*
D16*
Y-533627D1*
X-1152707D1*
X-1072298Y-571125D2*
Y-533421D1*
X-1072888D1*
X-1000098Y-572252D2*
Y-533598D1*
X-1000828D1*
X-930906Y-570748D2*
Y-535917D1*
D14*
X-932310Y-534513D1*
X-863594Y-571125D2*
D16*
Y-534042D1*
X-864114D1*
X-578992Y-247879D2*
D14*
Y-280490D1*
X-579248D1*
X-792087Y-139403D2*
Y-135063D1*
X-759052Y-139954D2*
Y-135063D1*
X-728220Y-139403D2*
Y-135063D1*
X-698491Y-139403D2*
Y-135063D1*
X-614222Y202682D2*
Y170585D1*
X-613135Y169499D1*
Y135109D1*
X-612235Y134209D1*
X-527604Y433755D2*
X-531253Y434657D1*
X-509478Y412882D1*
X707654Y625D2*
X744526Y56253D1*
X764283Y58802D2*
X761735Y56253D1*
X376420Y-477345D2*
D15*
Y-357154D1*
D14*
Y-271517D1*
D17*
X490883Y-157054D1*
X704190Y56253D1*
D14*
X761735D1*
X376420Y-357154D2*
X340734Y-321467D1*
X490883Y-157054D2*
X548428D1*
X761735Y56253D1*
X837026Y-163717D2*
X844322Y-156248D1*
X1127211Y558386D2*
X1164453D1*
X1198147D1*
X1199034Y559273D1*
X578367Y247887D2*
X558773D1*
Y216996D1*
X-633000Y53010D2*
X-634297D1*
X-565021Y122286D1*
X-503760D1*
X-480899Y145147D1*
D18*
X-425304D1*
X-363214Y145080D2*
X-425304Y145147D1*
X444860Y580945D2*
Y373129D1*
X761735Y56253D1*
X710609Y246424D2*
D14*
Y107379D1*
X761735Y56253D1*
X1104618Y137774D2*
X843256D1*
X761735Y56253D1*
X-951772Y-155906D2*
X-1046606Y-156293D1*
X-1071583Y-427772D2*
D16*
Y-465186D1*
D14*
X-1072888Y-466492D1*
X-499500Y-570563D2*
D16*
X-428927D1*
D14*
X-416146Y-557782D1*
X-951772Y198425D2*
X-887946D1*
X-886839Y197318D1*
X-417172Y-588316D2*
D16*
Y-558808D1*
D14*
X-416146Y-557782D1*
X-951772Y-77165D2*
D10*
X-884433D1*
X-854820Y-106778D1*
X-635222D1*
X-551021Y-190979D1*
Y-232138D1*
X-486388Y-296770D1*
X-383083D1*
X-223008Y-136696D1*
D14*
X-147220D1*
X-133253Y-150663D1*
X145562Y-104853D2*
X49236D1*
X48570Y-104186D1*
X-951772Y-57480D2*
D10*
X-873039D1*
X-845664Y-84856D1*
X-626949D1*
X-530430Y-181374D1*
Y-222333D1*
X-476387Y-276377D1*
X-395222D1*
X-232528Y-113682D1*
X-130129D1*
X-39336Y-204474D1*
Y-242738D1*
X-58395Y-261797D1*
Y-301703D1*
X-64675D1*
X-951772Y-37795D2*
X-859907D1*
X-834361Y-63341D1*
X-590808D1*
X89402Y95822D2*
D14*
X144887D1*
X145562Y95147D1*
X35325Y-301703D2*
D10*
Y-247038D1*
X-118622Y-93092D1*
X-240967D1*
X-401294Y-253419D1*
X-462852D1*
X-507417Y-208853D1*
Y-172535D1*
X-563860Y-116093D1*
Y-50739D1*
X-579938Y-34660D1*
X-611539D1*
X-618686Y-41807D1*
X-823076D1*
X-846773Y-18110D1*
X-951772D1*
Y1575D2*
X-833640D1*
X-811736Y-20329D1*
X-625672D1*
X-617059Y-11717D1*
D14*
X-556825D1*
X-531345Y-37197D1*
X-264675Y-301703D2*
Y-262340D1*
X-229470Y-227135D1*
Y-196522D1*
X-951772Y21260D2*
D10*
X-819824D1*
X-800797Y2232D1*
X-635209D1*
X-624556Y12885D1*
X-542441D1*
X-528257Y-1299D1*
X-473130Y-154151D2*
D14*
X-426007D1*
X-425304Y-154853D1*
X-951772Y60630D2*
X-755849D1*
X-745210Y49992D1*
X-951772Y40945D2*
X-754257D1*
X-745210Y49992D1*
X-738764Y90539D2*
D20*
Y56438D1*
D14*
X-745210Y49992D1*
X-329379Y-391136D2*
D15*
X-214062D1*
Y-406294D1*
X-385219Y-348621D2*
D20*
X-367022D1*
D21*
X-335252Y-380391D1*
D20*
X-266108D1*
D14*
X-240205Y-406294D1*
X-214062D1*
X-738643Y361262D2*
X-667073D1*
X-664227Y358416D1*
X1354018Y137751D2*
D16*
Y-15651D1*
X1355546Y-17178D1*
X-425304Y95147D2*
D15*
X-250882D1*
X102913Y-258648D1*
Y-316874D1*
X97783D1*
Y-342188D1*
X47217Y-392755D1*
X23584D1*
Y-467493D1*
X-214062Y-406294D2*
D22*
Y-392755D1*
X14295D1*
X23584D1*
X105984Y-314726D2*
D20*
Y-316874D1*
X102913D1*
X-10778Y-390570D2*
X14295Y-392755D1*
X-388440Y-393840D2*
X-267795D1*
D14*
X-255341Y-406294D1*
X-214062D1*
X1193604Y23239D2*
D16*
X1232778D1*
X1298492Y-42475D1*
X1330249D1*
X1355546Y-17178D1*
X1131930Y368993D2*
D14*
X1162247D1*
X1221696Y309545D1*
Y217245D1*
X47962Y-394030D2*
X47217D1*
X187190Y-321467D2*
D17*
Y-316874D1*
X102913D1*
X-388440Y-393840D2*
D14*
Y-351841D1*
X-385219Y-348621D1*
X245349Y580752D2*
D20*
Y500139D1*
X171314Y426104D1*
Y223164D1*
X-425304Y95147D2*
D14*
X-554424D1*
X-563786Y85785D1*
Y53014D1*
X-568344Y48458D1*
X-951772Y100000D2*
X-1042896D1*
X-1043566Y100669D1*
X-1002088Y-428513D2*
D16*
Y-465409D1*
D14*
X-1000828Y-466669D1*
X-934912Y-428430D2*
D16*
Y-464982D1*
D14*
X-932310Y-467584D1*
X-951772Y139370D2*
X-903608D1*
X-884013Y119776D1*
X-886719D1*
X-862783Y-429668D2*
D16*
Y-467113D1*
D14*
X-864114D1*
X-862783Y-429668D2*
Y-462644D1*
D16*
X-785051Y-540377D1*
D14*
Y-566319D1*
X-951772Y159055D2*
X-843559D1*
X-843021Y158517D1*
X-685087Y-437049D2*
D20*
X-785051Y-437364D1*
X-827488Y-272825D2*
D16*
Y-292429D1*
X-729509Y-390408D1*
Y-437364D1*
X-785051D1*
D20*
X-683699D1*
Y-482055D1*
D14*
X-690243D1*
X-332594Y-529862D2*
D15*
X-314178D1*
X-280266Y-563774D1*
D18*
X-214062D1*
X-332012Y-578273D2*
D20*
X-228560D1*
D14*
X-214062Y-563774D1*
X-690243Y-556858D2*
Y-570906D1*
D16*
X-593748D1*
D14*
Y-529596D1*
D16*
X-505760Y-441608D1*
D14*
X-499500D1*
X224972Y45598D2*
X146013D1*
X145562Y45147D1*
X-633870Y-362731D2*
X-581298D1*
X-554476Y-335909D1*
X-951772Y178740D2*
X-1044051D1*
X-1085505Y137286D1*
D16*
Y-94861D1*
X-1154887Y-164243D1*
Y-464518D1*
D14*
X-1152707Y-466698D1*
X-1222837Y-467290D2*
D16*
Y-186146D1*
X-1119147Y-82455D1*
Y143898D1*
D14*
X-1044934Y218110D1*
X-951772D1*
X1385004Y135004D2*
D23*
Y-30005D1*
X1349677Y-65332D1*
X1291121D1*
X1268471Y-42681D1*
X1197852D1*
X1193752Y-46781D1*
X-113837Y-228709D2*
X-139677D1*
X-202014Y-166370D1*
X-375584Y-105688D2*
D14*
X-424470D1*
X-425304Y-104853D1*
X-472295D1*
X-488016Y-89133D1*
Y7596D1*
X-498495Y18075D1*
Y45538D1*
X-501415Y48458D1*
X760885Y-451619D2*
D15*
X697757Y-514747D1*
X466971D1*
X-425304Y-4853D2*
D14*
X-280551D1*
X-266038Y-19366D1*
X394860Y580945D2*
Y523831D1*
X255663Y384634D1*
Y168781D1*
X227698Y140816D1*
X-574176Y269990D2*
X-531585D1*
X-530432Y268836D1*
X-709566Y269282D2*
X-597298D1*
Y268836D1*
X-530432D1*
X-597298Y358416D2*
Y268836D1*
X-798354Y278971D2*
Y271146D1*
X-711429D1*
X-709566Y269282D1*
X30558Y182937D2*
X66268Y147227D1*
X143482D1*
X145562Y145147D1*
X294860Y580945D2*
Y503165D1*
X200919Y409224D1*
Y159937D1*
X188520Y147538D1*
X147953D1*
X145562Y145147D1*
X-793307Y440945D2*
X-795912Y438340D1*
X-674339D1*
X-649584Y413585D1*
X-564451D1*
X-374856Y223990D1*
X-311297D1*
X-25803Y-61504D1*
X-233538Y-60631D2*
X-419526D1*
X-425304Y-54853D1*
X145562Y-204853D2*
X224024D1*
X235180Y-193696D1*
X1301035Y-132075D2*
D23*
Y-97402D1*
X1264625Y-60991D1*
X1209951D1*
X1173878Y-97064D1*
Y-115226D1*
X145562Y-154853D2*
D14*
X232857D1*
X236709Y-151003D1*
X-425304Y45147D2*
X-272990D1*
X-202597Y-25245D1*
X344860Y580945D2*
Y509950D1*
X228675Y393765D1*
Y186003D1*
X227614Y184942D1*
X376420Y-552148D2*
D18*
X339647D1*
X320105Y-532606D1*
Y-476783D1*
X266017Y-422696D1*
X200749D1*
Y-467493D1*
X267315Y-422696D2*
X144425D1*
X141694Y-425427D1*
Y-467493D1*
X-70844Y-228541D2*
D23*
Y-236207D1*
X-83882Y-249244D1*
X-97896D1*
X-111909Y-263259D1*
Y-298938D1*
X-114675Y-301703D1*
D18*
X1199034Y559273D3*
X1127211Y558386D3*
X1164453D3*
X-1212777Y543068D3*
X-1140545Y542903D3*
X-1176858Y542646D3*
X-1104837Y542298D3*
X-527604Y433755D3*
X-509478Y412882D3*
X1131930Y368993D3*
X-738643Y361262D3*
X-574176Y269990D3*
X171314Y223164D3*
X640576Y247134D3*
X710609Y246424D3*
X1221696Y217245D3*
X578367Y247887D3*
X-614222Y202682D3*
X-886839Y197318D3*
X227614Y184942D3*
X30558Y182937D3*
X-613135Y169499D3*
X-843021Y158517D3*
D22*
X-363214Y145080D3*
D18*
X227698Y140816D3*
X-612235Y134209D3*
X1306854Y137470D3*
X1354018Y137751D3*
X-886719Y119776D3*
X-1043566Y100669D3*
X89402Y95822D3*
D21*
X-738764Y90539D3*
D18*
X-1226021Y69491D3*
X-633000Y53010D3*
X224972Y45598D3*
X-1226021Y30652D3*
X1193604Y23239D3*
D21*
X707654Y625D3*
D18*
X-528257Y-1299D3*
X-1227487Y-11850D3*
X1385004Y135004D3*
X470004Y-12916D3*
X-1011470Y-16923D3*
X1313533Y-12549D3*
X1355546Y-17178D3*
X-266038Y-19366D3*
X-202597Y-25245D3*
X868140Y-47844D3*
X917493D3*
X-531345Y-37197D3*
X-1227972Y-49479D3*
X812350Y-49990D3*
X-1011470Y-56031D3*
X470004Y-60041D3*
X-233538Y-60631D3*
X-25803Y-61504D3*
X-590808Y-63341D3*
X1173878Y-115226D3*
X622155Y-83176D3*
X268062Y-99088D3*
X48570Y-104186D3*
X470004Y-110022D3*
X-888059Y-116188D3*
X574362Y-130969D3*
X1301035Y-132075D3*
X-792087Y-139403D3*
X-728220D3*
X-698491D3*
X236709Y-151003D3*
X-759052Y-139954D3*
D3*
X289728Y-151469D3*
X-1046606Y-156293D3*
X-133253Y-150663D3*
X837026Y-163717D3*
X707206Y-164790D3*
X770507D3*
X533396Y-172909D3*
X-70844Y-228541D3*
X-229470Y-196522D3*
X235180Y-193696D3*
X1193752Y-46781D3*
X-1081743Y-196942D3*
X311219Y-197761D3*
X-579236Y-216133D3*
X-1082198Y-228339D3*
X337921Y-234642D3*
X-578992Y-247879D3*
X729738Y-261350D3*
X679311Y-262424D3*
X625667Y-264570D3*
X-694618Y-277623D3*
X-579248Y-280490D3*
X-909948Y-306102D3*
X105984Y-314726D3*
X-899769Y-328501D3*
X-554476Y-335909D3*
X-497705Y-337873D3*
X-633870Y-362731D3*
X-497105Y-366333D3*
D21*
X-329379Y-391136D3*
X47962Y-394030D3*
D18*
X-10778Y-390570D3*
X-388440Y-393840D3*
X-1071583Y-427772D3*
X-1002088Y-428513D3*
X-934912Y-428430D3*
X-862783Y-429668D3*
D21*
X-685087Y-437049D3*
X-332594Y-529862D3*
D18*
X877114Y-568457D3*
X925079D3*
X-930906Y-570748D3*
X-1072298Y-571125D3*
X-863594D3*
X-1153524Y-572252D3*
X-1000098D3*
X-1223152Y-572412D3*
X-332012Y-578273D3*
X-417172Y-588316D3*
X1104618Y137774D3*
X-473130Y-154151D3*
X-202014Y-166370D3*
X-375584Y-105688D3*
X-113837Y-228709D3*
X-1264455Y570997D2*
D14*
X-1054634D1*
X-660709D2*
X-513034D1*
X1107761D2*
X1264455D1*
X-1269185Y559318D2*
X-1042016D1*
X-673328D2*
X-509966D1*
X1107554D2*
X1269185D1*
X-1273937Y547638D2*
X-1029398D1*
X-685969D2*
X-506898D1*
X1107323D2*
X1273937D1*
X-1278665Y535958D2*
X-1016756D1*
X-698588D2*
X-503831D1*
X420138D2*
X430993D1*
X1105570D2*
X1278665D1*
X-1287201Y524278D2*
X-1004138D1*
X-711228D2*
X-500762D1*
X420138D2*
X705808D1*
X819475D2*
X1287201D1*
X-1296428Y512598D2*
X-991520D1*
X-723848D2*
X-497717D1*
X417346D2*
X720387D1*
X804781D2*
X1296428D1*
X-1306186Y500919D2*
X-987874D1*
X-728669D2*
X-494648D1*
X407197D2*
X1306186D1*
X-1322657Y489239D2*
X-987874D1*
X-728669D2*
X-491581D1*
X395524D2*
X1322657D1*
X-1325310Y477559D2*
X-987874D1*
X-728669D2*
X-487290D1*
X383852D2*
X1325310D1*
X-1307039Y465879D2*
X-987874D1*
X-728669D2*
X-474672D1*
X372156D2*
X1307039D1*
X-1296589Y454199D2*
X-964252D1*
X-654942D2*
X-471626D1*
X360483D2*
X1296589D1*
X-1289923Y442520D2*
X-964252D1*
X-643269D2*
X-465467D1*
X348811D2*
X692567D1*
X830917D2*
X1289923D1*
X-1285886Y430840D2*
X-964252D1*
X-546451D2*
X-458432D1*
X337114D2*
X644331D1*
X879154D2*
X1285886D1*
X-1284063Y419160D2*
X-964252D1*
X-534778D2*
X-451419D1*
X325442D2*
X611804D1*
X911656D2*
X1284063D1*
X-1284224Y407480D2*
X-964252D1*
X-752291D2*
X-678735D1*
X-523083D2*
X-444383D1*
X313769D2*
X586013D1*
X937448D2*
X1284224D1*
X-1286416Y395801D2*
X-964252D1*
X-752291D2*
X-705240D1*
X-511411D2*
X-437346D1*
X302097D2*
X564260D1*
X959223D2*
X1117280D1*
X1146585D2*
X1286416D1*
X-1290823Y384121D2*
X-837399D1*
X-499738D2*
X-430335D1*
X290402D2*
X545322D1*
X978163D2*
X1104845D1*
X1182365D2*
X1290823D1*
X-1298020Y372441D2*
X-837399D1*
X-488042D2*
X-423298D1*
X280944D2*
X528504D1*
X994979D2*
X1100946D1*
X1194060D2*
X1298020D1*
X-1309323Y360761D2*
X-837399D1*
X-556278D2*
X-546875D1*
X-476370D2*
X-416286D1*
X280944D2*
X513371D1*
X1010089D2*
X1101892D1*
X1205732D2*
X1309323D1*
X-1328655Y349081D2*
X-1113850D1*
X-988512D2*
X-837399D1*
X-556278D2*
X-535203D1*
X-464697D2*
X-409249D1*
X280944D2*
X499646D1*
X1023839D2*
X1108306D1*
X1217406D2*
X1330269D1*
X1377915D2*
X1386626D1*
X-1290199Y337402D2*
X-1113850D1*
X-988512D2*
X-837399D1*
X-556278D2*
X-523530D1*
X-453001D2*
X-402236D1*
X280944D2*
X487096D1*
X1036365D2*
X1158571D1*
X1229101D2*
X1386626D1*
X-1281411Y325722D2*
X-1113850D1*
X-988512D2*
X-837399D1*
X-556278D2*
X-511835D1*
X-441328D2*
X-401268D1*
X280944D2*
X475585D1*
X1047899D2*
X1170268D1*
X1240727D2*
X1386626D1*
X-1279335Y314042D2*
X-1113850D1*
X-988512D2*
X-837399D1*
X-572010D2*
X-500163D1*
X-429656D2*
X-401245D1*
X280944D2*
X464974D1*
X1058510D2*
X1181940D1*
X1246541D2*
X1386626D1*
X-1279335Y302362D2*
X-1113850D1*
X-988512D2*
X-837399D1*
X-572010D2*
X-488490D1*
X-417983D2*
X-401222D1*
X280944D2*
X455169D1*
X1068291D2*
X1193613D1*
X1246979D2*
X1386626D1*
X-1279335Y290682D2*
X-1113850D1*
X-988512D2*
X-837399D1*
X-483428D2*
X-476794D1*
X280944D2*
X446127D1*
X1077357D2*
X1196427D1*
X1246979D2*
X1380304D1*
X-1279335Y279003D2*
X-1113850D1*
X-988512D2*
X-837399D1*
X-481513D2*
X-465121D1*
X280944D2*
X437753D1*
X1085731D2*
X1196427D1*
X1246979D2*
X1356937D1*
X-1279335Y267323D2*
X-1113850D1*
X-988512D2*
X-837399D1*
X-481537D2*
X-453449D1*
X280944D2*
X429979D1*
X1093482D2*
X1196427D1*
X1246979D2*
X1333568D1*
X-1279335Y255643D2*
X-1113850D1*
X-988512D2*
X-837399D1*
X-481560D2*
X-441776D1*
X280944D2*
X422804D1*
X1100656D2*
X1196427D1*
X1246979D2*
X1310223D1*
X-1279335Y243963D2*
X-837399D1*
X-664769D2*
X-590268D1*
X-485297D2*
X-430080D1*
X280944D2*
X416184D1*
X1107277D2*
X1196427D1*
X1246979D2*
X1286854D1*
X-1279335Y232283D2*
X-1066007D1*
X-907795D2*
X-418408D1*
X280944D2*
X410071D1*
X1113390D2*
X1194558D1*
X1248824D2*
X1263509D1*
X-1279335Y220604D2*
X-1077703D1*
X-866734D2*
X-406735D1*
X280944D2*
X404442D1*
X1119018D2*
X1190706D1*
X-1279335Y208924D2*
X-1089375D1*
X-857990D2*
X-755345D1*
X-664239D2*
X-575896D1*
X-485436D2*
X-401084D1*
X280944D2*
X399274D1*
X1124185D2*
X1191698D1*
X-1279335Y197244D2*
X-1101049D1*
X-855660D2*
X-758644D1*
X-660848D2*
X-579517D1*
X-481722D2*
X-401060D1*
X280944D2*
X394570D1*
X1128891D2*
X1193428D1*
X-1279335Y185564D2*
X-1112744D1*
X-828854D2*
X-758667D1*
X-660870D2*
X-579541D1*
X-481744D2*
X-401060D1*
X280944D2*
X390278D1*
X1133182D2*
X1189760D1*
X-1279335Y173885D2*
X-1124416D1*
X-816075D2*
X-758713D1*
X-660917D2*
X-579564D1*
X-481768D2*
X-474218D1*
X280944D2*
X386403D1*
X1137058D2*
X1189760D1*
X-1279335Y162205D2*
X-1138881D1*
X-812060D2*
X-756475D1*
X-663062D2*
X-577580D1*
X-483705D2*
X-474210D1*
X280021D2*
X382942D1*
X1140541D2*
X1189760D1*
X-1279335Y150525D2*
X-1145524D1*
X-812915D2*
X-474210D1*
X272661D2*
X379852D1*
X1143633D2*
X1189760D1*
X-1279335Y138845D2*
X-1146400D1*
X-819189D2*
X-474210D1*
X260990D2*
X377152D1*
X1146331D2*
X1189760D1*
X-1279335Y127165D2*
X-1146400D1*
X-856467D2*
X-474210D1*
X255591D2*
X374823D1*
X1148661D2*
X1189760D1*
X-1279335Y115486D2*
X-1146400D1*
X-855845D2*
X-762958D1*
X-714573D2*
X-568514D1*
X194459D2*
X210437D1*
X244957D2*
X372839D1*
X1150622D2*
X1189760D1*
X-1279335Y103806D2*
X-1146400D1*
X-860135D2*
X-771193D1*
X-706339D2*
X-581017D1*
X194459D2*
X371247D1*
X1152236D2*
X1189760D1*
X-1279335Y92126D2*
X-1146400D1*
X-907795D2*
X-899550D1*
X-873907D2*
X-773846D1*
X-703685D2*
X-588214D1*
X194459D2*
X370001D1*
X1153483D2*
X1189760D1*
X-1279335Y80446D2*
X-1146400D1*
X-629382D2*
X-609367D1*
X194459D2*
X369101D1*
X1154382D2*
X1189760D1*
X-1279335Y68766D2*
X-1146400D1*
X-1058270D2*
X-995740D1*
X-629382D2*
X-609367D1*
X245210D2*
X368547D1*
X1154913D2*
X1191629D1*
X-1279335Y57087D2*
X-1146400D1*
X-1058270D2*
X-995740D1*
X-629382D2*
X-609367D1*
X253861D2*
X368340D1*
X1155121D2*
X1199357D1*
X-1279335Y45407D2*
X-1146400D1*
X-1058270D2*
X-995740D1*
X-629382D2*
X-609367D1*
X256144D2*
X368501D1*
X1154982D2*
X1172205D1*
X-1279335Y33727D2*
X-1146400D1*
X-1058270D2*
X-995740D1*
X253699D2*
X368986D1*
X1154475D2*
X1164315D1*
X-1279335Y22047D2*
X-1146400D1*
X-1058270D2*
X-995740D1*
X244726D2*
X369840D1*
X1153621D2*
X1162448D1*
X-1279335Y10367D2*
X-1146400D1*
X-1058270D2*
X-995740D1*
X194459D2*
X371039D1*
X1152421D2*
X1165331D1*
X-1279335Y-1312D2*
X-1146400D1*
X-1058270D2*
X-995740D1*
X194459D2*
X372608D1*
X1150875D2*
X1175181D1*
X-1279335Y-12992D2*
X-1146400D1*
X-1058270D2*
X-995740D1*
X194459D2*
X374500D1*
X1148961D2*
X1185354D1*
X-1279335Y-24672D2*
X-1146400D1*
X-1058270D2*
X-995740D1*
X194459D2*
X376783D1*
X1146677D2*
X1172297D1*
X-1279335Y-36352D2*
X-1146400D1*
X-1058270D2*
X-995740D1*
X194459D2*
X379436D1*
X1144025D2*
X1164454D1*
X-1279335Y-48031D2*
X-1146400D1*
X-1058270D2*
X-995740D1*
X194459D2*
X382458D1*
X1141003D2*
X1162609D1*
X-1279335Y-59711D2*
X-1146400D1*
X-1058270D2*
X-995740D1*
X194459D2*
X385895D1*
X1137588D2*
X1165492D1*
X-1279335Y-71391D2*
X-1146400D1*
X-1058270D2*
X-995740D1*
X194459D2*
X389702D1*
X1133759D2*
X1167084D1*
X-1279335Y-83071D2*
X-1157797D1*
X-1058270D2*
X-995740D1*
X194459D2*
X393923D1*
X1129538D2*
X1155550D1*
X-1279335Y-94751D2*
X-1169492D1*
X-1058270D2*
X-995740D1*
X194459D2*
X398583D1*
X1124878D2*
X1150682D1*
X-1279335Y-106430D2*
X-1181164D1*
X-1060969D2*
X-995740D1*
X-907795D2*
X-889026D1*
X194459D2*
X403681D1*
X1119780D2*
X1144016D1*
X-1279335Y-118110D2*
X-1192837D1*
X-1070703D2*
X-995740D1*
X-907795D2*
X-877354D1*
X194459D2*
X409240D1*
X1114220D2*
X1142839D1*
X-1279335Y-129790D2*
X-1204533D1*
X-1082399D2*
X-1061854D1*
X-1031373D2*
X-995740D1*
X-907795D2*
X-858138D1*
X194459D2*
X214312D1*
X259097D2*
X415285D1*
X1108176D2*
X1146461D1*
X-1279335Y-141470D2*
X-1216206D1*
X-1094072D2*
X-1073874D1*
X-907795D2*
X-634398D1*
X266341D2*
X421836D1*
X1101625D2*
X1158156D1*
X-1279335Y-153150D2*
X-1227878D1*
X-1105745D2*
X-1077634D1*
X-907795D2*
X-859776D1*
X-650075D2*
X-622724D1*
X267818D2*
X428917D1*
X1094543D2*
X1189760D1*
X-1279335Y-164829D2*
X-1239551D1*
X-1117441D2*
X-1076550D1*
X-907795D2*
X-871748D1*
X-638102D2*
X-611029D1*
X264518D2*
X436600D1*
X1086861D2*
X1189760D1*
X-1279335Y-176509D2*
X-1248224D1*
X-1127636D2*
X-1069951D1*
X-615887D2*
X-599357D1*
X260942D2*
X444881D1*
X1078580D2*
X1189760D1*
X-1279335Y-188189D2*
X-1250070D1*
X-1127636D2*
X-995740D1*
X-615887D2*
X-587684D1*
X265857D2*
X453832D1*
X1069629D2*
X1189760D1*
X-1279335Y-199869D2*
X-1250070D1*
X-1127636D2*
X-995740D1*
X-615887D2*
X-575988D1*
X265718D2*
X463521D1*
X1059940D2*
X1198664D1*
X-1279335Y-211549D2*
X-1250070D1*
X-1127636D2*
X-995740D1*
X-615887D2*
X-575319D1*
X260482D2*
X474017D1*
X1049467D2*
X1222033D1*
X-1279335Y-223228D2*
X-1250070D1*
X-1127636D2*
X-995740D1*
X-615887D2*
X-575319D1*
X241635D2*
X485390D1*
X1038071D2*
X1245402D1*
X-1279335Y-234908D2*
X-1250070D1*
X-1127636D2*
X-995740D1*
X-778474D2*
X-771862D1*
X-615887D2*
X-575135D1*
X194459D2*
X497777D1*
X1025684D2*
X1268747D1*
X-1279335Y-246588D2*
X-1250070D1*
X-1127636D2*
X-995740D1*
X-907795D2*
X-901189D1*
X-787816D2*
X-771862D1*
X-615887D2*
X-570244D1*
X243965D2*
X283955D1*
X397508D2*
X511341D1*
X1012143D2*
X1292114D1*
X-1279335Y-258268D2*
X-1250070D1*
X-1127636D2*
X-995740D1*
X-907795D2*
X-888357D1*
X-795867D2*
X-771862D1*
X-615887D2*
X-558756D1*
X243965D2*
X283955D1*
X397508D2*
X526243D1*
X997217D2*
X1315459D1*
X-1279335Y-269948D2*
X-1250070D1*
X-1127636D2*
X-1113850D1*
X-988512D2*
X-859106D1*
X-795867D2*
X-771862D1*
X-615887D2*
X-547084D1*
X243965D2*
X283955D1*
X397508D2*
X542807D1*
X980677D2*
X1338828D1*
X-1279335Y-281627D2*
X-1250070D1*
X-1127636D2*
X-1113850D1*
X-988512D2*
X-859106D1*
X-795867D2*
X-771862D1*
X-615887D2*
X-535387D1*
X243965D2*
X283955D1*
X397508D2*
X561400D1*
X962060D2*
X1362197D1*
X-1279335Y-293307D2*
X-1250070D1*
X-1127636D2*
X-1113850D1*
X-988512D2*
X-859106D1*
X-788577D2*
X-771862D1*
X-615887D2*
X-523715D1*
X243965D2*
X283955D1*
X397508D2*
X582692D1*
X940769D2*
X1385542D1*
X-1279335Y-304987D2*
X-1250070D1*
X-1127636D2*
X-1113850D1*
X-988512D2*
X-851517D1*
X-615887D2*
X-512042D1*
X243965D2*
X283955D1*
X397508D2*
X607814D1*
X915647D2*
X1386602D1*
X-1279335Y-316667D2*
X-1250070D1*
X-1127636D2*
X-1113850D1*
X-988512D2*
X-841298D1*
X-615887D2*
X-578664D1*
X-530281D2*
X-504983D1*
X243965D2*
X283955D1*
X397508D2*
X639094D1*
X884390D2*
X1386602D1*
X-1279335Y-328346D2*
X-1250070D1*
X-1127636D2*
X-1113850D1*
X-988512D2*
X-829602D1*
X-753537D2*
X-584685D1*
X-524260D2*
X-504983D1*
X243965D2*
X283955D1*
X397508D2*
X683685D1*
X839776D2*
X1386602D1*
X-1280165Y-340026D2*
X-1250070D1*
X-1127636D2*
X-1113850D1*
X-988512D2*
X-817929D1*
X-741841D2*
X-654651D1*
X-523591D2*
X-504983D1*
X243965D2*
X283955D1*
X397508D2*
X1386602D1*
X-1284987Y-351706D2*
X-1250070D1*
X-1127636D2*
X-1113850D1*
X-988512D2*
X-806257D1*
X-730168D2*
X-662955D1*
X-527789D2*
X-504983D1*
X243965D2*
X283955D1*
X397508D2*
X1323787D1*
X-1302265Y-363386D2*
X-1250070D1*
X-1127636D2*
X-1113850D1*
X-988512D2*
X-794562D1*
X-718496D2*
X-665055D1*
X-541261D2*
X-504983D1*
X122902D2*
X130412D1*
X243965D2*
X283955D1*
X397508D2*
X1306302D1*
X-1296105Y-375066D2*
X-1250070D1*
X-1127636D2*
X-782888D1*
X-707261D2*
X-662403D1*
X-558378D2*
X-504983D1*
X111298D2*
X130412D1*
X243965D2*
X283955D1*
X397508D2*
X1296105D1*
X-1289623Y-386745D2*
X-1250070D1*
X-1127636D2*
X-771217D1*
X-702531D2*
X-653037D1*
X-578147D2*
X-504983D1*
X99626D2*
X130412D1*
X243965D2*
X283955D1*
X397508D2*
X1289623D1*
X-1285724Y-398425D2*
X-1250070D1*
X-1127636D2*
X-1078995D1*
X-1064176D2*
X-759543D1*
X-702256D2*
X-419261D1*
X87930D2*
X125614D1*
X397508D2*
X721194D1*
X800535D2*
X1285724D1*
X-1284017Y-410105D2*
X-1250070D1*
X-1127636D2*
X-1097010D1*
X-1046159D2*
X-1026953D1*
X-977207D2*
X-959846D1*
X-909987D2*
X-886719D1*
X-838866D2*
X-828425D1*
X-663270D2*
X-637143D1*
X-550373D2*
X-542885D1*
X-456115D2*
X-414832D1*
X79025D2*
X114726D1*
X298337D2*
X414731D1*
X1110714D2*
X1284017D1*
X-1284294Y-421785D2*
X-1250070D1*
X-1127636D2*
X-1102155D1*
X-1041014D2*
X-1032512D1*
X-971671D2*
X-965362D1*
X-904472D2*
X-892902D1*
X-653604D2*
X-637143D1*
X-550373D2*
X-542885D1*
X-456115D2*
X-400530D1*
X68668D2*
X110735D1*
X310009D2*
X413231D1*
X1112374D2*
X1284294D1*
X-1286601Y-433465D2*
X-1261881D1*
X-650167D2*
X-637143D1*
X-550373D2*
X-542885D1*
X-456115D2*
X-331856D1*
X-96272D2*
X-9567D1*
X56741D2*
X108543D1*
X321682D2*
X413115D1*
X1112698D2*
X1286601D1*
X-1291169Y-445144D2*
X-1261881D1*
X-456115D2*
X-331856D1*
X-96272D2*
X-9567D1*
X56741D2*
X108543D1*
X333378D2*
X413000D1*
X1112997D2*
X1291169D1*
X-1298551Y-456824D2*
X-1261881D1*
X-377083D2*
X-331856D1*
X-96272D2*
X-9567D1*
X56741D2*
X108543D1*
X1113298D2*
X1298551D1*
X-1310177Y-468504D2*
X-1261881D1*
X-377083D2*
X-9567D1*
X56741D2*
X108543D1*
X1113621D2*
X1310177D1*
X-1332345Y-480184D2*
X-1261881D1*
X-641354D2*
X-582378D1*
X-506289D2*
X-455202D1*
X-377083D2*
X-78472D1*
X56741D2*
X108543D1*
X1113920D2*
X1332345D1*
X-1318966Y-491864D2*
X-1261881D1*
X-641354D2*
X-594051D1*
X-517984D2*
X-455202D1*
X-377083D2*
X-78472D1*
X56741D2*
X108543D1*
X1111728D2*
X1318966D1*
X-1303602Y-503543D2*
X-1261881D1*
X-641354D2*
X-605747D1*
X-529657D2*
X-455202D1*
X-377083D2*
X-355201D1*
X-294844D2*
X-78472D1*
X56741D2*
X108543D1*
X416470D2*
X426934D1*
X802566D2*
X1303602D1*
X-1294352Y-515223D2*
X-1261881D1*
X-641354D2*
X-616681D1*
X-541331D2*
X-455202D1*
X-377083D2*
X-364382D1*
X-96272D2*
X-78472D1*
X7513D2*
X35163D1*
X71043D2*
X153273D1*
X189154D2*
X216803D1*
X351278D2*
X426934D1*
X743672D2*
X1294352D1*
X-1285101Y-526903D2*
X-1261881D1*
X-641354D2*
X-620856D1*
X-553026D2*
X-455202D1*
X-377083D2*
X-367588D1*
X-96272D2*
X-78472D1*
X7513D2*
X21299D1*
X84908D2*
X139409D1*
X203018D2*
X216803D1*
X416470D2*
X426934D1*
X732000D2*
X1285101D1*
X-1277605Y-538583D2*
X-1261881D1*
X-550373D2*
X-542885D1*
X-377083D2*
X-366573D1*
X-96272D2*
X-78472D1*
X7513D2*
X15579D1*
X90652D2*
X133689D1*
X208762D2*
X216832D1*
X416470D2*
X426934D1*
X720235D2*
X1277605D1*
X-1272852Y-550262D2*
X-1261881D1*
X-550373D2*
X-542885D1*
X-377083D2*
X-360898D1*
X-96272D2*
X14079D1*
X92151D2*
X132189D1*
X210261D2*
X294660D1*
X416470D2*
X1272852D1*
X-1268123Y-561942D2*
X-1261890D1*
X-550373D2*
X-542885D1*
X-377083D2*
X-358361D1*
X-96272D2*
X-78472D1*
X7513D2*
X16291D1*
X89959D2*
X134381D1*
X208070D2*
X216801D1*
X416470D2*
X1268123D1*
X-1183785Y-573622D2*
X-971357D1*
X-550373D2*
X-542885D1*
X-377083D2*
X-362836D1*
X-96272D2*
X-78472D1*
X7513D2*
X22983D1*
X83224D2*
X141093D1*
X201335D2*
X216803D1*
X302789D2*
X317521D1*
X416470D2*
X1263786D1*
X-760480Y247047D2*
Y239129D1*
X-836228D1*
Y385743D1*
X-760480D1*
Y381835D1*
X-758126Y384075D1*
X-754318Y386841D1*
X-750123Y388979D1*
X-745647Y390433D1*
X-740997Y391171D1*
X-736289D1*
X-731639Y390433D1*
X-727163Y388979D1*
X-722969Y386841D1*
X-720786Y385357D1*
X-704070Y385503D1*
Y396290D1*
X-666353D1*
X-684320Y414247D1*
X-753487Y414245D1*
X-753465Y395197D1*
X-963071D1*
Y464093D1*
X-986693Y464094D1*
Y510070D1*
X-988508Y510970D1*
X-1066081Y582671D1*
X-1264034Y582676D1*
X-1265163Y572307D1*
X-1280459Y534478D1*
X-1284776Y528823D1*
X-1306310Y501730D1*
X-1335703Y480827D1*
X-1327678Y478066D1*
X-1322756Y475797D1*
X-1318028Y473148D1*
X-1313520Y470136D1*
X-1309264Y466781D1*
X-1305283Y463102D1*
X-1301605Y459122D1*
X-1298249Y454866D1*
X-1295238Y450358D1*
X-1292589Y445630D1*
X-1290320Y440707D1*
X-1288444Y435622D1*
X-1286972Y430406D1*
X-1285916Y425089D1*
X-1285278Y419707D1*
X-1285066Y414291D1*
X-1285278Y408875D1*
X-1285916Y403493D1*
X-1286972Y398177D1*
X-1288444Y392961D1*
X-1290320Y387875D1*
X-1292589Y382953D1*
X-1295238Y378224D1*
X-1298249Y373717D1*
X-1301605Y369461D1*
X-1305283Y365480D1*
X-1309264Y361802D1*
X-1313520Y358446D1*
X-1318028Y355434D1*
X-1322756Y352786D1*
X-1327678Y350517D1*
X-1330955Y349308D1*
X-1303304Y343650D1*
X-1294879Y340299D1*
X-1291550Y337551D1*
X-1286958Y333361D1*
X-1282260Y324969D1*
X-1281424Y320734D1*
X-1280512Y315043D1*
X-1280585Y-335571D1*
X-1282203Y-344493D1*
X-1284238Y-348301D1*
X-1287437Y-353631D1*
X-1294734Y-359896D1*
X-1298720Y-361554D1*
X-1304117Y-363572D1*
X-1305283Y-365480D1*
X-1301605Y-369461D1*
X-1298249Y-373717D1*
X-1295238Y-378224D1*
X-1292589Y-382953D1*
X-1290320Y-387875D1*
X-1288444Y-392961D1*
X-1286972Y-398177D1*
X-1285916Y-403493D1*
X-1285278Y-408875D1*
X-1285066Y-414291D1*
X-1285278Y-419707D1*
X-1285916Y-425089D1*
X-1286972Y-430406D1*
X-1288444Y-435622D1*
X-1290320Y-440707D1*
X-1292589Y-445630D1*
X-1295238Y-450358D1*
X-1298249Y-454866D1*
X-1301605Y-459122D1*
X-1305283Y-463102D1*
X-1309264Y-466781D1*
X-1313520Y-470136D1*
X-1318028Y-473148D1*
X-1322756Y-475797D1*
X-1327678Y-478066D1*
X-1332764Y-479942D1*
X-1335759Y-480786D1*
X-1306181Y-501852D1*
X-1280836Y-533829D1*
X-1278049Y-540375D1*
X-1265121Y-572478D1*
X-1264043Y-582699D1*
X-827234Y-582677D1*
X-827256Y-573898D1*
X-894434Y-573885D1*
X-894436Y-574356D1*
X-970184D1*
Y-573438D1*
X-1038702Y-573441D1*
Y-573261D1*
X-1110762Y-573264D1*
Y-426650D1*
X-1101558D1*
X-1101214Y-423079D1*
X-1100114Y-418501D1*
X-1098312Y-414152D1*
X-1095853Y-410138D1*
X-1092795Y-406559D1*
X-1089217Y-403501D1*
X-1085202Y-401042D1*
X-1080853Y-399240D1*
X-1076276Y-398140D1*
X-1071583Y-397772D1*
X-1066890Y-398140D1*
X-1062312Y-399240D1*
X-1057963Y-401042D1*
X-1053949Y-403501D1*
X-1050370Y-406559D1*
X-1047312Y-410138D1*
X-1044853Y-414152D1*
X-1043051Y-418501D1*
X-1041951Y-423079D1*
X-1041627Y-426640D1*
X-1035014Y-426650D1*
Y-426811D1*
X-1032035Y-426827D1*
X-1031719Y-423820D1*
X-1030619Y-419243D1*
X-1028818Y-414894D1*
X-1026358Y-410879D1*
X-1023301Y-407301D1*
X-1019722Y-404243D1*
X-1015707Y-401783D1*
X-1011358Y-399982D1*
X-1006781Y-398882D1*
X-1002088Y-398513D1*
X-997395Y-398882D1*
X-992818Y-399982D1*
X-988469Y-401783D1*
X-984454Y-404243D1*
X-980875Y-407301D1*
X-977818Y-410879D1*
X-975358Y-414894D1*
X-973556Y-419243D1*
X-972457Y-423820D1*
X-972154Y-426831D1*
X-964879Y-426827D1*
X-964083Y-421427D1*
X-962629Y-416950D1*
X-960491Y-412756D1*
X-957724Y-408948D1*
X-954395Y-405618D1*
X-950587Y-402852D1*
X-946392Y-400714D1*
X-941916Y-399260D1*
X-937266Y-398522D1*
X-932558D1*
X-927908Y-399260D1*
X-923432Y-400714D1*
X-919238Y-402852D1*
X-915429Y-405618D1*
X-912100Y-408948D1*
X-909333Y-412756D1*
X-907196Y-416950D1*
X-905741Y-421427D1*
X-905004Y-426076D1*
X-904940Y-427741D1*
X-901988Y-427270D1*
X-892692D1*
X-891954Y-422664D1*
X-890500Y-418188D1*
X-888362Y-413993D1*
X-885596Y-410185D1*
X-882266Y-406856D1*
X-878458Y-404089D1*
X-874264Y-401951D1*
X-869787Y-400497D1*
X-865138Y-399760D1*
X-860429D1*
X-855780Y-400497D1*
X-851303Y-401951D1*
X-847109Y-404089D1*
X-843301Y-406856D1*
X-839971Y-410185D1*
X-837205Y-413993D1*
X-835067Y-418188D1*
X-833613Y-422664D1*
X-832882Y-427269D1*
X-827251Y-427270D1*
X-827256Y-401064D1*
X-755720D1*
X-847307Y-309356D1*
X-849710Y-306047D1*
X-850714Y-304255D1*
X-857921Y-303770D1*
Y-261487D1*
X-877025Y-261419D1*
X-880759Y-260828D1*
X-884354Y-259659D1*
X-887723Y-257944D1*
X-890782Y-255720D1*
X-907554Y-239054D1*
X-908976Y-240079D1*
Y-258740D1*
X-994567D1*
Y-180177D1*
X-1028652Y-180314D1*
X-1032987Y-183022D1*
X-1037336Y-184824D1*
X-1041913Y-185924D1*
X-1046606Y-186293D1*
X-1051299Y-185924D1*
X-1055877Y-184824D1*
X-1060226Y-183022D1*
X-1064240Y-180563D1*
X-1067819Y-177505D1*
X-1070877Y-173927D1*
X-1073336Y-169912D1*
X-1075138Y-165563D1*
X-1076238Y-160986D1*
X-1076606Y-156293D1*
X-1076238Y-151600D1*
X-1075138Y-147022D1*
X-1073336Y-142673D1*
X-1070877Y-138659D1*
X-1067819Y-135080D1*
X-1064240Y-132022D1*
X-1060226Y-129563D1*
X-1055877Y-127761D1*
X-1051299Y-126661D1*
X-1046606Y-126293D1*
X-1041913Y-126661D1*
X-1037336Y-127761D1*
X-1032987Y-129563D1*
X-1028836Y-132130D1*
X-994547Y-131986D1*
X-994567Y75913D1*
X-1026629Y75906D1*
X-1029946Y73940D1*
X-1034295Y72138D1*
X-1038873Y71038D1*
X-1043566Y70669D1*
X-1048259Y71038D1*
X-1052836Y72138D1*
X-1057185Y73940D1*
X-1059448Y75228D1*
X-1059522Y-96906D1*
X-1060163Y-100945D1*
X-1061427Y-104835D1*
X-1063283Y-108479D1*
X-1065686Y-111787D1*
X-1083780Y-129993D1*
X-1128816Y-175030D1*
X-1128824Y-426877D1*
X-1114833Y-426856D1*
Y-573470D1*
X-1184963Y-573510D1*
Y-574062D1*
X-1260711D1*
Y-427448D1*
X-1248923D1*
X-1248900Y-186146D1*
X-1248580Y-182068D1*
X-1247625Y-178092D1*
X-1246059Y-174314D1*
X-1243923Y-170827D1*
X-1241266Y-167717D1*
X-1145206Y-71656D1*
X-1145130Y145942D1*
X-1144490Y149982D1*
X-1143226Y153871D1*
X-1141370Y157516D1*
X-1138966Y160824D1*
X-1136073Y163717D1*
X-1132765Y166121D1*
X-1129157Y167961D1*
X-1060583Y236432D1*
X-1057524Y238655D1*
X-1054155Y240371D1*
X-1050559Y241539D1*
X-1046825Y242131D1*
X-1015407Y242205D1*
X-908976D1*
Y222528D1*
X-903121Y222520D1*
X-898319Y225034D1*
X-893843Y226488D1*
X-889193Y227226D1*
X-884484D1*
X-879835Y226488D1*
X-875358Y225034D1*
X-871164Y222896D1*
X-867356Y220130D1*
X-864026Y216801D1*
X-861260Y212992D1*
X-859122Y208798D1*
X-857668Y204322D1*
X-856930Y199672D1*
Y194963D1*
X-857668Y190314D1*
X-859122Y185837D1*
X-860419Y183144D1*
X-854501Y186234D1*
X-850025Y187688D1*
X-845375Y188425D1*
X-840667D1*
X-836017Y187688D1*
X-831541Y186234D1*
X-827346Y184096D1*
X-823538Y181329D1*
X-820209Y178000D1*
X-817442Y174192D1*
X-815304Y169997D1*
X-813850Y165521D1*
X-813113Y160871D1*
Y156163D1*
X-813850Y151513D1*
X-815304Y147037D1*
X-817442Y142843D1*
X-820209Y139034D1*
X-823538Y135705D1*
X-827346Y132938D1*
X-831541Y130801D1*
X-836017Y129346D1*
X-840667Y128609D1*
X-845375D1*
X-850025Y129346D1*
X-854501Y130801D1*
X-858696Y132938D1*
X-860310Y134017D1*
X-858188Y129046D1*
X-857088Y124469D1*
X-856719Y119776D1*
X-857088Y115083D1*
X-858188Y110505D1*
X-859990Y106156D1*
X-862449Y102142D1*
X-865507Y98563D1*
X-869085Y95505D1*
X-873100Y93046D1*
X-877449Y91244D1*
X-882026Y90144D1*
X-886719Y89776D1*
X-891412Y90144D1*
X-895990Y91244D1*
X-900339Y93046D1*
X-904353Y95505D1*
X-907932Y98563D1*
X-908975Y99690D1*
X-908976Y84717D1*
X-777167Y84724D1*
X-777180Y88471D1*
X-772635D1*
X-772596Y93202D1*
X-771762Y98462D1*
X-770118Y103526D1*
X-767699Y108272D1*
X-764570Y112580D1*
X-760804Y116345D1*
X-756496Y119475D1*
X-751751Y121894D1*
X-746686Y123538D1*
X-741427Y124371D1*
X-736101D1*
X-730841Y123538D1*
X-725777Y121894D1*
X-721031Y119475D1*
X-716723Y116345D1*
X-712958Y112580D1*
X-709828Y108272D1*
X-707409Y103526D1*
X-705765Y98462D1*
X-704932Y93202D1*
X-704908Y88470D1*
X-630566Y88471D1*
Y35197D1*
X-626370Y35924D1*
X-608201Y35995D1*
X-608185Y86331D1*
X-587862D1*
X-587584Y89554D1*
X-586702Y93230D1*
X-585255Y96723D1*
X-583280Y99946D1*
X-580818Y102827D1*
X-570072Y113469D1*
X-567013Y115692D1*
X-563644Y117407D1*
X-560049Y118576D1*
X-556314Y119167D1*
X-524896Y119241D1*
X-473014D1*
X-473021Y177115D1*
X-399862D1*
X-399915Y214984D1*
X-557442Y372501D1*
X-557455Y320542D1*
X-573211D1*
X-573203Y299984D1*
X-569483Y299621D1*
X-567507Y299227D1*
X-564126Y300387D1*
X-561306Y300827D1*
X-500824Y300731D1*
X-497979Y300500D1*
X-495206Y299827D1*
X-492572Y298728D1*
X-490142Y297231D1*
X-487976Y295371D1*
X-486129Y293197D1*
X-484643Y290759D1*
X-483558Y288119D1*
X-482898Y285343D1*
X-482681Y282491D1*
X-482810Y253509D1*
X-483264Y250690D1*
X-484152Y247979D1*
X-485455Y245438D1*
X-487138Y243134D1*
X-489161Y241121D1*
X-491475Y239449D1*
X-494021Y238160D1*
X-496738Y237285D1*
X-499558Y236845D1*
X-560039Y236941D1*
X-562885Y237172D1*
X-565657Y237845D1*
X-568291Y238945D1*
X-569541Y239648D1*
X-571822Y240081D1*
X-576530D1*
X-581180Y240819D1*
X-585656Y242273D1*
X-589850Y244411D1*
X-590348Y244743D1*
X-599189Y244816D1*
X-603203Y245188D1*
X-665050D1*
X-667244Y242534D1*
X-669420Y240685D1*
X-671857Y239201D1*
X-674496Y238114D1*
X-677273Y237455D1*
X-680125Y237239D1*
X-740600Y237446D1*
X-743419Y237900D1*
X-746130Y238789D1*
X-748671Y240092D1*
X-750975Y241774D1*
X-752988Y243798D1*
X-754663Y246117D1*
X-758673Y247051D1*
X-760496D1*
X193261Y-236349D2*
X242781D1*
Y-392684D1*
X269669Y-392787D1*
X274319Y-393525D1*
X278795Y-394979D1*
X282990Y-397117D1*
X284955Y-398430D1*
X285143Y-398318D1*
Y-236349D1*
X396324D1*
Y-406585D1*
X293629D1*
X337562Y-450455D1*
Y-446361D1*
X414161Y-446245D1*
X414518Y-415812D1*
X414966Y-412993D1*
X415849Y-410280D1*
X417144Y-407738D1*
X418823Y-405428D1*
X420843Y-403411D1*
X423152Y-401734D1*
X425696Y-400438D1*
X428409Y-399558D1*
X431230Y-399112D1*
X491711Y-399073D1*
X721173Y-399142D1*
X723520Y-397837D1*
X726199Y-396837D1*
X746529Y-392261D1*
X755079Y-392081D1*
X774222Y-392169D1*
X782597Y-393898D1*
X796150Y-397072D1*
X798797Y-398139D1*
X800054Y-398828D1*
X804703Y-399167D1*
X1094324Y-399308D1*
X1097143Y-399756D1*
X1099857Y-400639D1*
X1102399Y-401934D1*
X1104709Y-403613D1*
X1106726Y-405633D1*
X1108403Y-407942D1*
X1109698Y-410486D1*
X1110579Y-413199D1*
X1111025Y-416025D1*
X1112782Y-484052D1*
X1112411Y-486882D1*
X1111600Y-489619D1*
X1110371Y-492196D1*
X1108755Y-494547D1*
X1106790Y-496618D1*
X1104526Y-498356D1*
X1102018Y-499718D1*
X1099328Y-500671D1*
X1096521Y-501192D1*
X1082773Y-501269D1*
X804915Y-500751D1*
X800734Y-503997D1*
X798249Y-505402D1*
X795570Y-506402D1*
X775240Y-510978D1*
X766690Y-511157D1*
X747571Y-511071D1*
X745907Y-511807D1*
X718520Y-539056D1*
X714461Y-542004D1*
X709991Y-544282D1*
X705220Y-545832D1*
X700265Y-546617D1*
X680041Y-546715D1*
X464463Y-546617D1*
X459159Y-545734D1*
X428113Y-545731D1*
Y-499617D1*
X424992Y-498656D1*
X422451Y-497356D1*
X420146Y-495673D1*
X418131Y-493652D1*
X416458Y-491340D1*
X415760Y-490087D1*
X415278Y-490062D1*
Y-508329D1*
X350101D1*
X350105Y-520169D1*
X355278Y-521164D1*
X415278D1*
Y-582689D1*
X1264055Y-582678D1*
X1265164Y-572310D1*
X1280458Y-534479D1*
X1284774Y-528824D1*
X1306308Y-501731D1*
X1335702Y-480828D1*
X1327678Y-478066D1*
X1322756Y-475797D1*
X1318028Y-473148D1*
X1313520Y-470136D1*
X1309264Y-466781D1*
X1305283Y-463102D1*
X1301605Y-459122D1*
X1298249Y-454866D1*
X1295238Y-450358D1*
X1292589Y-445630D1*
X1290320Y-440707D1*
X1288444Y-435622D1*
X1286972Y-430406D1*
X1285916Y-425089D1*
X1285278Y-419707D1*
X1285066Y-414291D1*
X1285278Y-408875D1*
X1285916Y-403493D1*
X1286972Y-398177D1*
X1288444Y-392961D1*
X1290320Y-387875D1*
X1292589Y-382953D1*
X1295238Y-378224D1*
X1298249Y-373717D1*
X1301605Y-369461D1*
X1305283Y-365480D1*
X1309264Y-361802D1*
X1313520Y-358446D1*
X1318028Y-355434D1*
X1322756Y-352786D1*
X1327678Y-350517D1*
X1332764Y-348640D1*
X1337980Y-347169D1*
X1343297Y-346113D1*
X1348678Y-345475D1*
X1354094Y-345262D1*
X1359510Y-345475D1*
X1364892Y-346113D1*
X1370209Y-347169D1*
X1375425Y-348640D1*
X1380510Y-350517D1*
X1387780Y-354100D1*
X1387795Y-293848D1*
X1193416Y-196570D1*
X1192100Y-195273D1*
X1191248Y-193633D1*
X1190945Y-191808D1*
Y-139885D1*
X1187497Y-141955D1*
X1183148Y-143757D1*
X1178571Y-144856D1*
X1173878Y-145226D1*
X1169185Y-144856D1*
X1164608Y-143757D1*
X1160259Y-141955D1*
X1156244Y-139496D1*
X1152664Y-136438D1*
X1149608Y-132858D1*
X1147148Y-128845D1*
X1145346Y-124496D1*
X1144247Y-119919D1*
X1143878Y-115226D1*
X1144247Y-110531D1*
X1145346Y-105954D1*
X1147148Y-101605D1*
X1149608Y-97592D1*
X1151860Y-94883D1*
X1152364Y-91899D1*
X1153436Y-88597D1*
X1155012Y-85504D1*
X1157052Y-82694D1*
X1172114Y-67538D1*
X1169482Y-64415D1*
X1167022Y-60400D1*
X1165220Y-56051D1*
X1164122Y-51474D1*
X1163752Y-46781D1*
X1164122Y-42088D1*
X1165220Y-37510D1*
X1167022Y-33161D1*
X1169482Y-29147D1*
X1172539Y-25568D1*
X1176119Y-22510D1*
X1180133Y-20051D1*
X1184482Y-18249D1*
X1186581Y-17657D1*
X1186444Y-5873D1*
X1182123Y-4478D1*
X1177929Y-2340D1*
X1174121Y427D1*
X1170791Y3756D1*
X1168025Y7564D1*
X1165887Y11759D1*
X1164433Y16235D1*
X1163696Y20885D1*
Y25593D1*
X1164433Y30243D1*
X1165887Y34719D1*
X1168025Y38913D1*
X1170791Y42722D1*
X1174121Y46051D1*
X1177929Y48818D1*
X1182123Y50955D1*
X1186600Y52409D1*
X1191249Y53147D1*
X1195958D1*
X1200608Y52409D1*
X1205084Y50955D1*
X1208420Y49299D1*
X1219463Y49302D1*
X1209390Y51375D1*
X1208151Y52007D1*
X1199760Y57699D1*
X1198858Y58757D1*
X1193285Y67228D1*
X1192856Y68551D1*
X1190949Y78510D1*
X1191017Y192689D1*
X1191588Y194446D1*
X1192675Y195941D1*
X1194171Y197028D1*
X1197425Y199612D1*
X1194966Y203626D1*
X1193164Y207975D1*
X1192064Y212552D1*
X1191696Y217245D1*
X1192064Y221938D1*
X1193164Y226516D1*
X1194966Y230865D1*
X1197601Y235102D1*
Y299576D1*
X1152281Y344885D1*
X1149812Y344899D1*
X1145550Y342264D1*
X1141201Y340462D1*
X1136623Y339362D1*
X1131930Y338993D1*
X1127238Y339362D1*
X1122660Y340462D1*
X1118311Y342264D1*
X1114297Y344723D1*
X1110718Y347781D1*
X1107660Y351360D1*
X1105201Y355374D1*
X1103399Y359723D1*
X1102299Y364301D1*
X1101930Y368993D1*
X1102299Y373686D1*
X1103399Y378264D1*
X1105201Y382613D1*
X1107660Y386627D1*
X1110718Y390206D1*
X1114297Y393264D1*
X1118311Y395723D1*
X1122660Y397525D1*
X1127238Y398625D1*
X1131930Y398993D1*
X1136623Y398625D1*
X1141201Y397525D1*
X1145550Y395723D1*
X1149787Y393088D1*
X1164138Y393014D1*
X1167871Y392423D1*
X1171467Y391255D1*
X1174836Y389538D1*
X1177895Y387315D1*
X1200163Y365152D1*
X1240017Y325193D1*
X1242240Y322134D1*
X1243957Y318765D1*
X1245125Y315169D1*
X1245717Y311436D1*
X1245790Y280017D1*
Y235102D1*
X1248425Y230865D1*
X1250227Y226516D1*
X1250589Y225232D1*
X1387808Y293846D1*
X1387795Y354067D1*
X1380510Y350517D1*
X1375425Y348640D1*
X1370209Y347169D1*
X1364892Y346113D1*
X1359510Y345475D1*
X1354094Y345262D1*
X1348678Y345475D1*
X1343297Y346113D1*
X1337980Y347169D1*
X1332764Y348640D1*
X1327678Y350517D1*
X1322756Y352786D1*
X1318028Y355434D1*
X1313520Y358446D1*
X1309264Y361802D1*
X1305283Y365480D1*
X1301605Y369461D1*
X1298249Y373717D1*
X1295238Y378224D1*
X1292589Y382953D1*
X1290320Y387875D1*
X1288444Y392961D1*
X1286972Y398177D1*
X1285916Y403493D1*
X1285278Y408875D1*
X1285066Y414291D1*
X1285278Y419707D1*
X1285916Y425089D1*
X1286972Y430406D1*
X1288444Y435622D1*
X1290320Y440707D1*
X1292589Y445630D1*
X1295238Y450358D1*
X1298249Y454866D1*
X1301605Y459122D1*
X1305283Y463102D1*
X1309264Y466781D1*
X1313520Y470136D1*
X1318028Y473148D1*
X1322756Y475797D1*
X1327678Y478066D1*
X1332764Y479942D1*
X1335759Y480786D1*
X1306182Y501850D1*
X1280837Y533828D1*
X1278051Y540374D1*
X1265122Y572479D1*
X1264045Y582699D1*
X1106547Y582677D1*
X1106734Y580093D1*
X1105990Y541848D1*
X1105493Y539037D1*
X1104562Y536339D1*
X1103220Y533819D1*
X1101501Y531541D1*
X1099448Y529559D1*
X1097109Y527924D1*
X1094542Y526673D1*
X1091812Y525841D1*
X1088980Y525445D1*
X819098Y524991D1*
X802434Y511748D1*
X799950Y510344D1*
X797270Y509344D1*
X776941Y504768D1*
X768391Y504588D1*
X749248Y504677D1*
X740873Y506404D1*
X727320Y509579D1*
X724673Y510646D1*
X722222Y512117D1*
X707042Y524227D1*
X704056Y524811D1*
X447703Y524466D1*
X444885Y524908D1*
X442168Y525786D1*
X439623Y527077D1*
X437311Y528752D1*
X435290Y530766D1*
X433609Y533073D1*
X432308Y535614D1*
X431423Y538327D1*
X430971Y541151D1*
X430646Y544780D1*
X426364Y546770D1*
X422356Y549266D1*
X420220Y550902D1*
X418954Y545512D1*
X418881Y521940D1*
X418289Y518206D1*
X417121Y514610D1*
X415404Y511241D1*
X413181Y508182D1*
X391018Y485915D1*
X279755Y374651D1*
X279682Y166890D1*
X279092Y163156D1*
X277923Y159560D1*
X276206Y156192D1*
X273984Y153133D1*
X257383Y136427D1*
X256230Y131546D1*
X254428Y127197D1*
X251969Y123182D1*
X248911Y119604D1*
X245332Y116546D1*
X241318Y114087D1*
X236969Y112285D1*
X232391Y111185D1*
X227698Y110816D1*
X223005Y111185D1*
X218428Y112285D1*
X214079Y114087D1*
X210064Y116546D1*
X206486Y119604D1*
X203428Y123182D1*
X201089Y126980D1*
X197740Y125277D1*
X194138Y124108D1*
X193278Y118060D1*
Y69698D1*
X207121Y69693D1*
X211353Y72328D1*
X215702Y74130D1*
X220280Y75230D1*
X224972Y75598D1*
X229665Y75230D1*
X234243Y74130D1*
X238592Y72328D1*
X242606Y69869D1*
X246185Y66811D1*
X249243Y63232D1*
X251702Y59218D1*
X253504Y54869D1*
X254602Y50291D1*
X254972Y45598D1*
X254602Y40906D1*
X253504Y36328D1*
X251702Y31979D1*
X249243Y27965D1*
X246185Y24386D1*
X242606Y21328D1*
X238592Y18869D1*
X234243Y17067D1*
X229665Y15967D1*
X224972Y15598D1*
X220280Y15967D1*
X215702Y17067D1*
X211353Y18869D1*
X207114Y21504D1*
X193299D1*
X193278Y-58318D1*
Y-130764D1*
X214559Y-130759D1*
X217224Y-128190D1*
X221033Y-125424D1*
X225227Y-123286D1*
X229705Y-121832D1*
X234354Y-121094D1*
X239062D1*
X243711Y-121832D1*
X248189Y-123286D1*
X252383Y-125424D1*
X256192Y-128190D1*
X259520Y-131518D1*
X262287Y-135328D1*
X264424Y-139522D1*
X265879Y-143999D1*
X266615Y-148648D1*
Y-153356D1*
X265879Y-158005D1*
X264424Y-162483D1*
X262287Y-166677D1*
X259520Y-170486D1*
X256982Y-173084D1*
X259450Y-176063D1*
X261911Y-180076D1*
X263711Y-184425D1*
X264811Y-189003D1*
X265180Y-193696D1*
X264811Y-198388D1*
X263711Y-202967D1*
X261911Y-207316D1*
X259450Y-211329D1*
X256394Y-214909D1*
X252814Y-217967D1*
X248799Y-220427D1*
X244450Y-222228D1*
X239425Y-223379D1*
X236613Y-225398D1*
X233244Y-227113D1*
X229648Y-228282D1*
X225913Y-228873D1*
X193273Y-228948D1*
X193278Y-236345D1*
X131600Y-395581D2*
Y-354751D1*
X127189Y-354748D1*
X125041Y-358891D1*
X122092Y-362950D1*
X107861Y-377320D1*
X80017Y-405164D1*
X78199Y-409437D1*
X75417Y-413978D1*
X71959Y-418028D1*
X67909Y-421486D1*
X63369Y-424268D1*
X58449Y-426306D1*
X55547Y-427097D1*
X55552Y-510289D1*
X6348D1*
X6340Y-539816D1*
X-77282D1*
Y-471942D1*
X-8377D1*
X-8385Y-428669D1*
X-97425Y-428660D1*
X-97448Y-463853D1*
X-330676D1*
Y-425029D1*
X-334688Y-424656D1*
X-339866Y-423412D1*
X-343699Y-421875D1*
X-377762Y-421871D1*
X-381436Y-423010D1*
X-386085Y-423748D1*
X-390794D1*
X-395444Y-423010D1*
X-399920Y-421556D1*
X-404114Y-419419D1*
X-407923Y-416652D1*
X-411252Y-413323D1*
X-414018Y-409514D1*
X-416156Y-405320D1*
X-417610Y-400844D1*
X-418331Y-396331D1*
X-503802Y-396337D1*
Y-312041D1*
X-568594Y-247147D1*
X-570726Y-244213D1*
X-572373Y-240982D1*
X-573492Y-237533D1*
X-574060Y-233951D1*
X-574131Y-200558D1*
X-644795Y-129888D1*
X-856634Y-129818D1*
X-860215Y-129249D1*
X-863664Y-128130D1*
X-866895Y-126483D1*
X-869829Y-124352D1*
X-894014Y-100266D1*
X-908955Y-100276D1*
X-908976Y-171173D1*
X-874976Y-171181D1*
X-872730Y-167408D1*
X-870273Y-164534D1*
X-859623Y-153988D1*
X-856564Y-151766D1*
X-853196Y-150050D1*
X-849600Y-148881D1*
X-845866Y-148290D1*
X-814448Y-148215D1*
X-663979Y-148290D1*
X-660245Y-148881D1*
X-656650Y-150050D1*
X-653281Y-151766D1*
X-650222Y-153988D1*
X-638577Y-165529D1*
X-636121Y-168403D1*
X-635067Y-169983D1*
X-633770Y-170169D1*
X-617077D1*
Y-316783D1*
X-692825D1*
Y-196406D1*
X-694944Y-200403D1*
Y-317490D1*
X-765566D1*
X-709690Y-373482D1*
X-707287Y-376790D1*
X-705430Y-380434D1*
X-704167Y-384324D1*
X-703526Y-388364D1*
X-703446Y-408517D1*
X-700493Y-406811D1*
X-695573Y-404773D1*
X-690395Y-403529D1*
X-685087Y-403112D1*
X-679778Y-403529D1*
X-674600Y-404773D1*
X-669680Y-406811D1*
X-665139Y-409593D1*
X-661089Y-413051D1*
X-657631Y-417101D1*
X-654849Y-421642D1*
X-652811Y-426562D1*
X-651567Y-431740D1*
X-651150Y-437049D1*
X-651197Y-438265D1*
X-642526Y-438276D1*
Y-544844D1*
X-635963Y-544843D1*
X-635953Y-534606D1*
X-619320D1*
X-619731Y-531640D1*
Y-527551D1*
X-619091Y-523512D1*
X-617827Y-519622D1*
X-615970Y-515978D1*
X-613567Y-512669D1*
X-595474Y-494463D1*
X-579277Y-478265D1*
X-635953Y-478249D1*
Y-405651D1*
X-551543D1*
Y-450529D1*
X-541694Y-440682D1*
X-541705Y-405308D1*
X-457295D1*
Y-477907D1*
X-505209D1*
X-561892Y-534598D1*
X-551543Y-534606D1*
Y-582657D1*
X-541693Y-582677D1*
X-541705Y-534264D1*
X-457295D1*
Y-544483D1*
X-454020Y-544475D1*
Y-451010D1*
X-378272D1*
Y-582693D1*
X-361667Y-582677D1*
X-362012Y-578273D1*
X-361643Y-573580D1*
X-360543Y-569003D1*
X-358741Y-564654D1*
X-356282Y-560639D1*
X-353070Y-556916D1*
X-356592Y-553860D1*
X-360050Y-549810D1*
X-362832Y-545269D1*
X-364870Y-540349D1*
X-366114Y-535171D1*
X-366531Y-529862D1*
X-366114Y-524554D1*
X-364870Y-519375D1*
X-362832Y-514455D1*
X-360050Y-509915D1*
X-356592Y-505865D1*
X-352542Y-502407D1*
X-348001Y-499625D1*
X-343081Y-497587D1*
X-337903Y-496343D1*
X-332594Y-495925D1*
X-327286Y-496343D1*
X-322108Y-497587D1*
X-320783Y-497894D1*
X-311671Y-497992D1*
X-306715Y-498777D1*
X-301945Y-500327D1*
X-297475Y-502605D1*
X-293409Y-505560D1*
X-289337Y-506215D1*
X-97448D1*
Y-582688D1*
X-77280Y-582677D1*
X-77282Y-558556D1*
X6340D1*
Y-582663D1*
X35432Y-582677D1*
X30850Y-579827D1*
X26331Y-575967D1*
X22471Y-571448D1*
X19366Y-566381D1*
X17092Y-560890D1*
X15703Y-555112D1*
X15238Y-549186D1*
X15703Y-543261D1*
X17092Y-537483D1*
X19366Y-531992D1*
X22471Y-526925D1*
X26331Y-522406D1*
X30850Y-518546D1*
X35917Y-515441D1*
X41408Y-513167D1*
X47186Y-511778D1*
X53112Y-511312D1*
X59037Y-511778D1*
X64815Y-513167D1*
X70306Y-515441D1*
X75373Y-518546D1*
X79892Y-522406D1*
X83752Y-526925D1*
X86857Y-531992D1*
X89131Y-537483D1*
X90520Y-543261D1*
X90986Y-549186D1*
X90520Y-555112D1*
X89131Y-560890D1*
X86857Y-566381D1*
X83752Y-571448D1*
X79892Y-575967D1*
X75373Y-579827D1*
X70762Y-582677D1*
X153542D1*
X148961Y-579827D1*
X144441Y-575967D1*
X140581Y-571448D1*
X137476Y-566381D1*
X135202Y-560890D1*
X133814Y-555112D1*
X133348Y-549186D1*
X133814Y-543261D1*
X135202Y-537483D1*
X137476Y-531992D1*
X140581Y-526925D1*
X144441Y-522406D1*
X148961Y-518546D1*
X154028Y-515441D1*
X159518Y-513167D1*
X165297Y-511778D1*
X171222Y-511312D1*
X177147Y-511778D1*
X182925Y-513167D1*
X188416Y-515441D1*
X193483Y-518546D1*
X198003Y-522406D1*
X201862Y-526925D1*
X204967Y-531992D1*
X207241Y-537483D1*
X208630Y-543261D1*
X209096Y-549186D1*
X208630Y-555112D1*
X207241Y-560890D1*
X204967Y-566381D1*
X201862Y-571448D1*
X198003Y-575967D1*
X193483Y-579827D1*
X188873Y-582677D1*
X217996Y-582678D1*
X217993Y-558556D1*
X301615D1*
Y-582663D1*
X337583Y-582678D1*
X337293Y-582056D1*
X332643Y-581319D1*
X328167Y-579865D1*
X323972Y-577727D1*
X320164Y-574961D1*
X305907Y-560835D1*
X297293Y-552089D1*
X294526Y-548281D1*
X292388Y-544087D1*
X291571Y-541867D1*
X289804Y-539816D1*
X217993D1*
Y-510266D1*
X109726Y-510289D1*
Y-424698D1*
X111686D1*
X112063Y-420734D1*
X113163Y-416156D1*
X114965Y-411807D1*
X117424Y-407793D1*
X121028Y-403667D1*
X124942Y-399883D1*
X128751Y-397117D1*
X130814Y-395962D1*
X-770692Y-312364D2*
X-770710Y-226448D1*
X-771286D1*
X-771307Y-233298D1*
X-779034D1*
X-780272Y-236192D1*
X-782247Y-239416D1*
X-784709Y-242295D1*
X-796854Y-254441D1*
X-797055Y-265503D1*
Y-286010D1*
X-770677Y-312382D1*
X-524568Y-338264D2*
X-525306Y-342913D1*
X-526760Y-347390D1*
X-528898Y-351584D1*
X-531664Y-355392D1*
X-534993Y-358722D1*
X-538802Y-361488D1*
X-542996Y-363626D1*
X-547472Y-365080D1*
X-550067Y-365573D1*
X-565650Y-381052D1*
X-568709Y-383276D1*
X-572077Y-384991D1*
X-575673Y-386160D1*
X-579407Y-386751D1*
X-610825Y-386825D1*
X-616016D1*
X-620251Y-389461D1*
X-624600Y-391262D1*
X-629177Y-392362D1*
X-633870Y-392731D1*
X-638563Y-392362D1*
X-643140Y-391262D1*
X-647490Y-389461D1*
X-651504Y-387001D1*
X-655083Y-383944D1*
X-658140Y-380365D1*
X-660600Y-376350D1*
X-662402Y-372001D1*
X-663501Y-367424D1*
X-663870Y-362731D1*
X-663501Y-358038D1*
X-662402Y-353461D1*
X-660600Y-349112D1*
X-658140Y-345097D1*
X-655083Y-341518D1*
X-651504Y-338461D1*
X-647490Y-336001D1*
X-643140Y-334199D1*
X-638563Y-333100D1*
X-633870Y-332731D1*
X-629177Y-333100D1*
X-624600Y-334199D1*
X-620251Y-336001D1*
X-616013Y-338636D1*
X-591262D1*
X-584160Y-331518D1*
X-583008Y-326639D1*
X-581206Y-322290D1*
X-578747Y-318276D1*
X-575689Y-314697D1*
X-572110Y-311639D1*
X-568096Y-309180D1*
X-563747Y-307378D1*
X-559169Y-306278D1*
X-554476Y-305909D1*
X-549783Y-306278D1*
X-545206Y-307378D1*
X-540857Y-309180D1*
X-536843Y-311639D1*
X-533264Y-314697D1*
X-530206Y-318276D1*
X-527747Y-322290D1*
X-525945Y-326639D1*
X-524845Y-331217D1*
X-524476Y-335909D1*
X-524568Y-338264D1*
X1153938Y55072D2*
X1153591Y39723D1*
X1152644Y24399D1*
X1151097Y9123D1*
X1148954Y-6080D1*
X1146218Y-21188D1*
X1142892Y-36176D1*
X1138983Y-51024D1*
X1134496Y-65706D1*
X1129437Y-80202D1*
X1123814Y-94490D1*
X1117636Y-108545D1*
X1110915Y-122348D1*
X1103656Y-135878D1*
X1095874Y-149113D1*
X1087581Y-162033D1*
X1078787Y-174619D1*
X1069509Y-186852D1*
X1059759Y-198711D1*
X1049551Y-210180D1*
X1038903Y-221240D1*
X1027829Y-231875D1*
X1016348Y-242070D1*
X1004478Y-251806D1*
X992234Y-261071D1*
X979638Y-269849D1*
X966707Y-278127D1*
X953463Y-285894D1*
X939925Y-293136D1*
X926114Y-299843D1*
X912051Y-306003D1*
X897757Y-311609D1*
X883256Y-316651D1*
X868567Y-321121D1*
X853715Y-325013D1*
X838723Y-328322D1*
X823612Y-331039D1*
X808407Y-333164D1*
X793130Y-334693D1*
X777804Y-335622D1*
X762454Y-335950D1*
X747104Y-335678D1*
X731774Y-334806D1*
X716492Y-333333D1*
X701280Y-331264D1*
X686159Y-328601D1*
X671154Y-325348D1*
X656287Y-321510D1*
X641583Y-317094D1*
X627063Y-312105D1*
X612749Y-306552D1*
X598663Y-300444D1*
X584828Y-293787D1*
X571262Y-286594D1*
X557991Y-278878D1*
X545030Y-270647D1*
X532402Y-261915D1*
X520125Y-252694D1*
X508218Y-243001D1*
X496699Y-232850D1*
X485588Y-222256D1*
X474899Y-211234D1*
X464650Y-199803D1*
X454856Y-187979D1*
X445531Y-175781D1*
X436692Y-163227D1*
X428350Y-150337D1*
X420521Y-137131D1*
X413214Y-123627D1*
X406440Y-109849D1*
X400211Y-95816D1*
X394537Y-81550D1*
X389424Y-67073D1*
X384883Y-52407D1*
X380919Y-37573D1*
X377538Y-22597D1*
X374747Y-7500D1*
X372547Y7696D1*
X370945Y22965D1*
X369942Y38285D1*
X369539Y53634D1*
X369738Y68986D1*
X370535Y84318D1*
X371934Y99608D1*
X373929Y114831D1*
X376520Y129965D1*
X379699Y144984D1*
X383465Y159869D1*
X387810Y174594D1*
X392728Y189139D1*
X398211Y203479D1*
X404253Y217594D1*
X410841Y231462D1*
X417967Y245062D1*
X425621Y258371D1*
X433789Y271371D1*
X442459Y284042D1*
X451619Y296364D1*
X461255Y308318D1*
X471350Y319885D1*
X481891Y331049D1*
X492861Y341790D1*
X504243Y352094D1*
X516018Y361946D1*
X528172Y371329D1*
X540682Y380228D1*
X553531Y388633D1*
X566699Y396526D1*
X580167Y403899D1*
X593912Y410739D1*
X607915Y417035D1*
X622154Y422780D1*
X636606Y427962D1*
X651251Y432575D1*
X666063Y436610D1*
X681024Y440063D1*
X696108Y442928D1*
X711291Y445201D1*
X726554Y446877D1*
X741869Y447954D1*
X757215Y448432D1*
X772567Y448308D1*
X787904Y447584D1*
X803199Y446260D1*
X818433Y444339D1*
X833579Y441822D1*
X848614Y438714D1*
X863516Y435021D1*
X878262Y430747D1*
X892831Y425900D1*
X907198Y420486D1*
X921343Y414513D1*
X935241Y407992D1*
X948875Y400932D1*
X962222Y393343D1*
X975261Y385238D1*
X987974Y376629D1*
X1000340Y367529D1*
X1012340Y357951D1*
X1023957Y347912D1*
X1035171Y337425D1*
X1045966Y326508D1*
X1056325Y315176D1*
X1066234Y303448D1*
X1075675Y291341D1*
X1084635Y278874D1*
X1093101Y266066D1*
X1101059Y252934D1*
X1108497Y239504D1*
X1115403Y225791D1*
X1121768Y211819D1*
X1127580Y197609D1*
X1132833Y183182D1*
X1137516Y168560D1*
X1141623Y153766D1*
X1145150Y138823D1*
X1148088Y123753D1*
X1150433Y108581D1*
X1152184Y93328D1*
X1153336Y78017D1*
X1153887Y62675D1*
X1153938Y55072D1*
X-729843Y509861D2*
Y464094D1*
X-753441D1*
X-753465Y462448D1*
X-672448Y462360D1*
X-668714Y461769D1*
X-665118Y460600D1*
X-661749Y458883D1*
X-658690Y456661D1*
X-639602Y437678D1*
X-562560Y437605D1*
X-558827Y437014D1*
X-555231Y435845D1*
X-551862Y434129D1*
X-548803Y431907D1*
X-526535Y409744D1*
X-400004Y283213D1*
X-400094Y335818D1*
X-469066Y450570D1*
X-470155Y453209D1*
X-470816Y455984D1*
X-471037Y458831D1*
X-470808Y461675D1*
X-470551Y464328D1*
X-478633Y468722D1*
X-482541Y472794D1*
X-485466Y476177D1*
X-489181Y484594D1*
X-514909Y582682D1*
X-649278Y582677D1*
X-727035Y510839D1*
X-728713Y510064D1*
X-729623Y509883D1*
X-1106772Y352441D2*
X-989685D1*
Y245197D1*
X-1112677D1*
Y352441D1*
X-1106772D1*
Y-261732D2*
X-989685D1*
Y-368976D1*
X-1112677D1*
Y-261732D1*
X-1106772D1*
X-680345Y152593D2*
X-741518Y152873D1*
X-744972Y153635D1*
X-748214Y155052D1*
X-751119Y157071D1*
X-753580Y159613D1*
X-755501Y162584D1*
X-756811Y165870D1*
X-757459Y169348D1*
X-757503Y181606D1*
X-757301Y200892D1*
X-756495Y204336D1*
X-755037Y207560D1*
X-752983Y210441D1*
X-750411Y212869D1*
X-747416Y214753D1*
X-744114Y216022D1*
X-740629Y216629D1*
X-713240Y216614D1*
X-677816Y216373D1*
X-674371Y215567D1*
X-671147Y214109D1*
X-668266Y212055D1*
X-665839Y209483D1*
X-663954Y206490D1*
X-662685Y203186D1*
X-662079Y199701D1*
X-662093Y172312D1*
X-662256Y168381D1*
X-663062Y164937D1*
X-664520Y161713D1*
X-666573Y158832D1*
X-669146Y156404D1*
X-672140Y154520D1*
X-675442Y153251D1*
X-678928Y152644D1*
X-680112Y152594D1*
X-501220Y152147D2*
X-561678Y152354D1*
X-564497Y152808D1*
X-567209Y153697D1*
X-569749Y155000D1*
X-572054Y156682D1*
X-574067Y158706D1*
X-575739Y161020D1*
X-577028Y163566D1*
X-577903Y166282D1*
X-578343Y169102D1*
X-578325Y198091D1*
X-578094Y200936D1*
X-577421Y203709D1*
X-576323Y206343D1*
X-574824Y208773D1*
X-572966Y210938D1*
X-570790Y212787D1*
X-568353Y214272D1*
X-565714Y215357D1*
X-562937Y216017D1*
X-560085Y216234D1*
X-499610Y216026D1*
X-496793Y215572D1*
X-494080Y214684D1*
X-491539Y213381D1*
X-489235Y211698D1*
X-487222Y209675D1*
X-485550Y207361D1*
X-484261Y204815D1*
X-483386Y202098D1*
X-482946Y199278D1*
X-482963Y170290D1*
X-483194Y167445D1*
X-483867Y164672D1*
X-484966Y162038D1*
X-486465Y159608D1*
X-488323Y157442D1*
X-490499Y155593D1*
X-492936Y154109D1*
X-495575Y153024D1*
X-498352Y152364D1*
X-501203Y152147D1*
X318385Y-573312D2*
X298925Y-553853D1*
X-798354Y385719D2*
D10*
Y345900D1*
X-836205D2*
X-798354D1*
X-670408Y88448D2*
Y50597D1*
X-630589D1*
X340734Y-236373D2*
Y-406562D1*
X285167Y-321467D2*
X396301D1*
X-460022Y-348621D2*
Y-396315D1*
X-503778Y-348621D2*
X-460022D1*
X-1072888Y-533421D2*
Y-573241D1*
X-1110739Y-533421D2*
X-1072888D1*
X-1152707Y-533627D2*
Y-573448D1*
Y-533627D2*
X-1114856D1*
X-1000828Y-533598D2*
Y-573419D1*
X-864114Y-534042D2*
Y-573862D1*
X-1222837Y-534219D2*
Y-574039D1*
X-1260688Y-534219D2*
X-1222837D1*
X-932310Y-534513D2*
Y-574333D1*
X-416146Y-451034D2*
Y-490853D1*
X-453996D2*
X-378295D1*
X376420Y-446385D2*
Y-508306D1*
X-654951Y-276941D2*
Y-316761D1*
X-692802Y-276941D2*
X-617100D1*
X-732818Y-277647D2*
Y-317467D1*
X-770668Y-277647D2*
X-694966D1*
X-425304Y177092D2*
Y145147D1*
X-472997D2*
X-425304D1*
X761735Y448434D2*
Y-335928D1*
X369554Y56253D2*
X1153916D1*
X-923228Y440945D2*
Y395219D1*
X-963047Y440945D2*
X-923228D1*
X-994543Y-96850D2*
X-951772D1*
X-709778Y216622D2*
Y152651D1*
X-757517Y184636D2*
X-662039D1*
X-593748Y-405675D2*
Y-478226D1*
X-635929Y-441950D2*
X-551567D1*
D27*
X-798354Y278971D3*
Y345900D3*
D28*
X-745210Y49992D3*
X-678281D3*
D29*
X187190Y-321467D3*
X340734D3*
D30*
X-460022Y-348621D3*
X-385219D3*
D27*
X-1072888Y-533421D3*
Y-466492D3*
X-1152707Y-533627D3*
Y-466698D3*
X-1000828Y-533598D3*
Y-466669D3*
X-864114Y-534042D3*
Y-467113D3*
X-1222837Y-534219D3*
Y-467290D3*
X-932310Y-534513D3*
Y-467584D3*
D31*
X-690243Y-556858D3*
Y-482055D3*
D27*
X-416146Y-557782D3*
Y-490853D3*
D32*
X-214062Y-406294D3*
Y-563774D3*
D34*
X376420Y-477345D3*
Y-552148D3*
X466971Y-514747D3*
D28*
X-664227Y358416D3*
X-597298D3*
D27*
X-654951Y-276941D3*
Y-210012D3*
X-732818Y-277647D3*
Y-210718D3*
D28*
X-501415Y48458D3*
X-568344D3*
D35*
X-314675Y-301703D3*
X-264675D3*
X-214675D3*
X-164675D3*
X-114675D3*
X-64675D3*
X-14675D3*
X35325D3*
D36*
X145562Y-204853D3*
Y-154853D3*
Y-104853D3*
Y-54853D3*
Y-4853D3*
Y45147D3*
Y95147D3*
Y145147D3*
X-425304Y-204853D3*
Y-154853D3*
Y-104853D3*
Y-54853D3*
Y-4853D3*
Y45147D3*
Y95147D3*
Y145147D3*
D101*
X760885Y-451619D3*
X762585Y564126D3*
D37*
X761735Y56253D3*
D38*
X344860Y580945D3*
X394860D3*
X294860D3*
X444860D3*
X295349Y580752D3*
X345349D3*
X245349D3*
X395349D3*
D39*
X-944882Y505906D3*
X-771654D3*
D40*
X-858268Y440945D3*
D41*
X-923228D3*
X-793307D3*
D42*
X-951772Y21260D3*
Y1575D3*
Y-18110D3*
Y-37795D3*
Y-57480D3*
Y-77165D3*
Y-96850D3*
Y-116535D3*
Y-136220D3*
Y-155906D3*
Y-175591D3*
Y-195276D3*
Y-214961D3*
Y-234646D3*
Y40945D3*
Y60630D3*
Y80315D3*
Y100000D3*
Y119685D3*
Y139370D3*
Y159055D3*
Y178740D3*
Y198425D3*
Y218110D3*
D43*
X-1051181Y298819D3*
Y-315354D3*
D104*
X-709566Y269282D3*
X-709778Y184636D3*
X-530432Y268836D3*
X-530644Y184190D3*
D44*
X-827488Y-272825D3*
X-801740Y-202353D3*
X-853236D3*
D46*
X-785051Y-566319D3*
Y-437364D3*
X-499500Y-441608D3*
Y-570563D3*
X-593748Y-441950D3*
Y-570906D3*
D47*
X-35471Y-592493D3*
Y-505879D3*
D48*
X23584Y-467493D3*
X141694D3*
X200749D3*
D47*
X259804Y-505879D3*
Y-592493D3*
M02*
