G04 DipTrace 3.2.0.1*
G04 TopPaste.gbr*
%MOIN*%
G04 #@! TF.FileFunction,Paste,Top*
G04 #@! TF.Part,Single*
%AMOUTLINE5*
4,1,4,
-0.025615,-0.009779,
0.025565,-0.009907,
0.025615,0.009779,
-0.025565,0.009907,
-0.025615,-0.009779,
0*%
%ADD61R,0.019685X0.041339*%
%ADD63R,0.03937X0.023622*%
%ADD65R,0.040157X0.028346*%
%ADD67R,0.016614X0.017638*%
%ADD69R,0.07874X0.062992*%
%ADD71R,0.041339X0.003937*%
%ADD73R,0.035433X0.047244*%
%ADD75R,0.051181X0.047244*%
%ADD81C,0.740157*%
%ADD83R,0.051181X0.019685*%
%ADD85R,0.019685X0.051181*%
%ADD87R,0.033465X0.017717*%
%ADD89R,0.188976X0.070866*%
%ADD91R,0.051181X0.043307*%
%ADD93R,0.043307X0.051181*%
%ADD95R,0.066929X0.125984*%
%ADD96R,0.035433X0.031496*%
%ADD98R,0.031496X0.035433*%
%ADD106OUTLINE5*%
%FSLAX26Y26*%
G04*
G70*
G90*
G75*
G01*
G04 TopPaste*
%LPD*%
D98*
X-798354Y278971D3*
Y345900D3*
D96*
X-745210Y49992D3*
X-678281D3*
D95*
X187190Y-321467D3*
X340734D3*
D93*
X-460022Y-348621D3*
X-385219D3*
D98*
X-1072888Y-533421D3*
Y-466492D3*
X-1152707Y-533627D3*
Y-466698D3*
X-1000828Y-533598D3*
Y-466669D3*
X-864114Y-534042D3*
Y-467113D3*
X-1222837Y-534219D3*
Y-467290D3*
X-932310Y-534513D3*
Y-467584D3*
D91*
X-690243Y-556858D3*
Y-482055D3*
D98*
X-416146Y-557782D3*
Y-490853D3*
D89*
X-214062Y-406294D3*
Y-563774D3*
D87*
X376420Y-477345D3*
Y-552148D3*
X466971Y-514747D3*
D96*
X-664227Y358416D3*
X-597298D3*
D98*
X-654951Y-276941D3*
Y-210012D3*
X-732818Y-277647D3*
Y-210718D3*
D96*
X-501415Y48458D3*
X-568344D3*
D85*
X-314675Y-301703D3*
X-264675D3*
X-214675D3*
X-164675D3*
X-114675D3*
X-64675D3*
X-14675D3*
X35325D3*
D83*
X145562Y-204853D3*
Y-154853D3*
Y-104853D3*
Y-54853D3*
Y-4853D3*
Y45147D3*
Y95147D3*
Y145147D3*
X-425304Y-204853D3*
Y-154853D3*
Y-104853D3*
Y-54853D3*
Y-4853D3*
Y45147D3*
Y95147D3*
Y145147D3*
D81*
X761735Y56253D3*
D75*
X-858268Y440945D3*
D73*
X-923228D3*
X-793307D3*
D71*
X-951772Y21260D3*
Y1575D3*
Y-18110D3*
Y-37795D3*
Y-57480D3*
Y-77165D3*
Y-96850D3*
Y-116535D3*
Y-136220D3*
Y-155906D3*
Y-175591D3*
Y-195276D3*
Y-214961D3*
Y-234646D3*
Y40945D3*
Y60630D3*
Y80315D3*
Y100000D3*
Y119685D3*
Y139370D3*
Y159055D3*
Y178740D3*
Y198425D3*
Y218110D3*
D69*
X-1051181Y298819D3*
Y-315354D3*
D106*
X-709566Y269282D3*
X-709778Y184636D3*
X-530432Y268836D3*
X-530644Y184190D3*
D67*
X-827488Y-272825D3*
X-801740Y-202353D3*
X-853236D3*
D65*
X-785051Y-566319D3*
Y-437364D3*
X-499500Y-441608D3*
Y-570563D3*
X-593748Y-441950D3*
Y-570906D3*
D63*
X-35471Y-592493D3*
Y-505879D3*
D61*
X23584Y-467493D3*
X141694D3*
X200749D3*
D63*
X259804Y-505879D3*
Y-592493D3*
M02*
